STARTFONT 2.1
COMMENT
COMMENT Converted from OpenType font "JF-Dot-K14-2004.ttf" by "otf2bdf 3.0".
COMMENT
FONT -FreeType-JF Dot K14 2004-Medium-R-Normal--14-100-100-100-P-128-ISO10646-1
SIZE 10 100 100
FONTBOUNDINGBOX 14 14 0 -2
STARTPROPERTIES 19
FOUNDRY "FreeType"
FAMILY_NAME "JF Dot K14 2004"
WEIGHT_NAME "Medium"
SLANT "R"
SETWIDTH_NAME "Normal"
ADD_STYLE_NAME ""
PIXEL_SIZE 14
POINT_SIZE 100
RESOLUTION_X 100
RESOLUTION_Y 100
SPACING "P"
AVERAGE_WIDTH 128
CHARSET_REGISTRY "ISO10646"
CHARSET_ENCODING "1"
FONT_ASCENT 12
FONT_DESCENT 1
COPYRIGHT "-FreeType-JF Dot K14 2004-Medium-R-Normal--14-100-100-100-P-128-ISO10646-1"
_OTF_FONTFILE "JF-Dot-K14-2004.ttf"
_OTF_PSNAME "JF-Dot-K14-2004-Regular"
ENDPROPERTIES
CHARS 8927
STARTCHAR 0020
ENCODING 32
SWIDTH 504 0
DWIDTH 7 0
BBX 0 0 0 -2
BITMAP
ENDCHAR
STARTCHAR 0021
ENCODING 33
SWIDTH 504 0
DWIDTH 7 0
BBX 1 10 3 0
BITMAP
80
80
80
80
80
80
80
00
80
80
ENDCHAR
STARTCHAR 0022
ENCODING 34
SWIDTH 504 0
DWIDTH 7 0
BBX 5 4 1 -1
BITMAP
D8
48
48
90
ENDCHAR
STARTCHAR 0023
ENCODING 35
SWIDTH 504 0
DWIDTH 7 0
BBX 5 10 1 0
BITMAP
50
50
50
F8
50
50
F8
50
50
50
ENDCHAR
STARTCHAR 0024
ENCODING 36
SWIDTH 504 0
DWIDTH 7 0
BBX 6 11 0 0
BITMAP
10
78
94
94
50
38
14
94
94
78
10
ENDCHAR
STARTCHAR 0025
ENCODING 37
SWIDTH 504 0
DWIDTH 7 0
BBX 6 10 0 0
BITMAP
64
94
98
70
10
20
38
64
A4
98
ENDCHAR
STARTCHAR 0026
ENCODING 38
SWIDTH 504 0
DWIDTH 7 0
BBX 6 10 0 0
BITMAP
30
48
48
48
30
64
94
88
98
64
ENDCHAR
STARTCHAR 0027
ENCODING 39
SWIDTH 504 0
DWIDTH 7 0
BBX 2 4 2 -1
BITMAP
C0
40
40
80
ENDCHAR
STARTCHAR 0028
ENCODING 40
SWIDTH 504 0
DWIDTH 7 0
BBX 4 13 2 -1
BITMAP
10
20
40
40
80
80
80
80
80
40
40
20
10
ENDCHAR
STARTCHAR 0029
ENCODING 41
SWIDTH 504 0
DWIDTH 7 0
BBX 4 13 1 -1
BITMAP
80
40
20
20
10
10
10
10
10
20
20
40
80
ENDCHAR
STARTCHAR 002A
ENCODING 42
SWIDTH 504 0
DWIDTH 7 0
BBX 5 7 1 2
BITMAP
20
A8
70
20
70
A8
20
ENDCHAR
STARTCHAR 002B
ENCODING 43
SWIDTH 504 0
DWIDTH 7 0
BBX 5 7 1 2
BITMAP
20
20
20
F8
20
20
20
ENDCHAR
STARTCHAR 002C
ENCODING 44
SWIDTH 504 0
DWIDTH 7 0
BBX 2 4 2 8
BITMAP
C0
40
40
80
ENDCHAR
STARTCHAR 002D
ENCODING 45
SWIDTH 504 0
DWIDTH 7 0
BBX 5 1 1 5
BITMAP
F8
ENDCHAR
STARTCHAR 002E
ENCODING 46
SWIDTH 504 0
DWIDTH 7 0
BBX 2 2 2 8
BITMAP
C0
C0
ENDCHAR
STARTCHAR 002F
ENCODING 47
SWIDTH 504 0
DWIDTH 7 0
BBX 6 13 0 -1
BITMAP
04
04
08
08
10
10
10
20
20
40
40
80
80
ENDCHAR
STARTCHAR 0030
ENCODING 48
SWIDTH 504 0
DWIDTH 7 0
BBX 6 10 0 0
BITMAP
30
48
84
84
84
84
84
84
48
30
ENDCHAR
STARTCHAR 0031
ENCODING 49
SWIDTH 504 0
DWIDTH 7 0
BBX 5 10 1 0
BITMAP
20
60
A0
20
20
20
20
20
20
F8
ENDCHAR
STARTCHAR 0032
ENCODING 50
SWIDTH 504 0
DWIDTH 7 0
BBX 6 10 0 0
BITMAP
78
84
84
04
08
08
10
20
40
FC
ENDCHAR
STARTCHAR 0033
ENCODING 51
SWIDTH 504 0
DWIDTH 7 0
BBX 6 10 0 0
BITMAP
FC
04
08
10
38
04
04
84
84
78
ENDCHAR
STARTCHAR 0034
ENCODING 52
SWIDTH 504 0
DWIDTH 7 0
BBX 6 10 0 0
BITMAP
08
18
28
28
48
48
88
FC
08
08
ENDCHAR
STARTCHAR 0035
ENCODING 53
SWIDTH 504 0
DWIDTH 7 0
BBX 6 10 0 0
BITMAP
FC
80
80
F8
84
04
04
84
84
78
ENDCHAR
STARTCHAR 0036
ENCODING 54
SWIDTH 504 0
DWIDTH 7 0
BBX 6 10 0 0
BITMAP
38
40
80
80
B8
C4
84
84
84
78
ENDCHAR
STARTCHAR 0037
ENCODING 55
SWIDTH 504 0
DWIDTH 7 0
BBX 6 10 0 0
BITMAP
FC
04
08
08
10
10
20
20
40
40
ENDCHAR
STARTCHAR 0038
ENCODING 56
SWIDTH 504 0
DWIDTH 7 0
BBX 6 10 0 0
BITMAP
78
84
84
48
30
48
84
84
84
78
ENDCHAR
STARTCHAR 0039
ENCODING 57
SWIDTH 504 0
DWIDTH 7 0
BBX 6 10 0 0
BITMAP
78
84
84
84
8C
74
04
84
88
70
ENDCHAR
STARTCHAR 003A
ENCODING 58
SWIDTH 504 0
DWIDTH 7 0
BBX 2 6 2 3
BITMAP
C0
C0
00
00
C0
C0
ENDCHAR
STARTCHAR 003B
ENCODING 59
SWIDTH 504 0
DWIDTH 7 0
BBX 2 8 2 3
BITMAP
C0
C0
00
00
C0
40
40
80
ENDCHAR
STARTCHAR 003C
ENCODING 60
SWIDTH 504 0
DWIDTH 7 0
BBX 5 9 1 1
BITMAP
08
10
20
40
80
40
20
10
08
ENDCHAR
STARTCHAR 003D
ENCODING 61
SWIDTH 504 0
DWIDTH 7 0
BBX 6 4 0 3
BITMAP
FC
00
00
FC
ENDCHAR
STARTCHAR 003E
ENCODING 62
SWIDTH 504 0
DWIDTH 7 0
BBX 5 9 1 1
BITMAP
80
40
20
10
08
10
20
40
80
ENDCHAR
STARTCHAR 003F
ENCODING 63
SWIDTH 504 0
DWIDTH 7 0
BBX 6 10 0 0
BITMAP
78
84
84
08
10
10
10
00
10
10
ENDCHAR
STARTCHAR 0040
ENCODING 64
SWIDTH 504 0
DWIDTH 7 0
BBX 6 10 0 0
BITMAP
38
44
9C
A4
A4
A4
A4
9C
40
3C
ENDCHAR
STARTCHAR 0041
ENCODING 65
SWIDTH 504 0
DWIDTH 7 0
BBX 6 10 0 0
BITMAP
30
30
48
48
48
78
84
84
84
84
ENDCHAR
STARTCHAR 0042
ENCODING 66
SWIDTH 504 0
DWIDTH 7 0
BBX 6 10 0 0
BITMAP
F0
88
88
88
F0
88
84
84
88
F0
ENDCHAR
STARTCHAR 0043
ENCODING 67
SWIDTH 504 0
DWIDTH 7 0
BBX 6 10 0 0
BITMAP
38
44
84
80
80
80
80
84
44
38
ENDCHAR
STARTCHAR 0044
ENCODING 68
SWIDTH 504 0
DWIDTH 7 0
BBX 6 10 0 0
BITMAP
F0
88
84
84
84
84
84
84
88
F0
ENDCHAR
STARTCHAR 0045
ENCODING 69
SWIDTH 504 0
DWIDTH 7 0
BBX 6 10 0 0
BITMAP
FC
80
80
80
F0
80
80
80
80
FC
ENDCHAR
STARTCHAR 0046
ENCODING 70
SWIDTH 504 0
DWIDTH 7 0
BBX 6 10 0 0
BITMAP
FC
80
80
80
F0
80
80
80
80
80
ENDCHAR
STARTCHAR 0047
ENCODING 71
SWIDTH 504 0
DWIDTH 7 0
BBX 6 10 0 0
BITMAP
38
44
84
80
80
9C
84
84
4C
34
ENDCHAR
STARTCHAR 0048
ENCODING 72
SWIDTH 504 0
DWIDTH 7 0
BBX 6 10 0 0
BITMAP
84
84
84
84
FC
84
84
84
84
84
ENDCHAR
STARTCHAR 0049
ENCODING 73
SWIDTH 504 0
DWIDTH 7 0
BBX 3 10 2 0
BITMAP
E0
40
40
40
40
40
40
40
40
E0
ENDCHAR
STARTCHAR 004A
ENCODING 74
SWIDTH 504 0
DWIDTH 7 0
BBX 5 10 0 0
BITMAP
08
08
08
08
08
08
08
88
88
70
ENDCHAR
STARTCHAR 004B
ENCODING 75
SWIDTH 504 0
DWIDTH 7 0
BBX 6 10 0 0
BITMAP
84
88
90
90
A0
D0
90
88
88
84
ENDCHAR
STARTCHAR 004C
ENCODING 76
SWIDTH 504 0
DWIDTH 7 0
BBX 6 10 0 0
BITMAP
80
80
80
80
80
80
80
80
80
FC
ENDCHAR
STARTCHAR 004D
ENCODING 77
SWIDTH 504 0
DWIDTH 7 0
BBX 6 10 0 0
BITMAP
84
CC
CC
B4
B4
84
84
84
84
84
ENDCHAR
STARTCHAR 004E
ENCODING 78
SWIDTH 504 0
DWIDTH 7 0
BBX 6 10 0 0
BITMAP
84
84
C4
C4
A4
94
8C
8C
84
84
ENDCHAR
STARTCHAR 004F
ENCODING 79
SWIDTH 504 0
DWIDTH 7 0
BBX 6 10 0 0
BITMAP
78
84
84
84
84
84
84
84
84
78
ENDCHAR
STARTCHAR 0050
ENCODING 80
SWIDTH 504 0
DWIDTH 7 0
BBX 6 10 0 0
BITMAP
F8
84
84
84
84
F8
80
80
80
80
ENDCHAR
STARTCHAR 0051
ENCODING 81
SWIDTH 504 0
DWIDTH 7 0
BBX 6 12 0 0
BITMAP
78
84
84
84
84
84
E4
94
8C
78
08
04
ENDCHAR
STARTCHAR 0052
ENCODING 82
SWIDTH 504 0
DWIDTH 7 0
BBX 6 10 0 0
BITMAP
F8
84
84
84
84
F8
90
88
84
84
ENDCHAR
STARTCHAR 0053
ENCODING 83
SWIDTH 504 0
DWIDTH 7 0
BBX 6 10 0 0
BITMAP
78
84
84
80
60
18
04
84
84
78
ENDCHAR
STARTCHAR 0054
ENCODING 84
SWIDTH 504 0
DWIDTH 7 0
BBX 7 10 0 0
BITMAP
FE
10
10
10
10
10
10
10
10
10
ENDCHAR
STARTCHAR 0055
ENCODING 85
SWIDTH 504 0
DWIDTH 7 0
BBX 6 10 0 0
BITMAP
84
84
84
84
84
84
84
84
84
78
ENDCHAR
STARTCHAR 0056
ENCODING 86
SWIDTH 504 0
DWIDTH 7 0
BBX 6 10 0 0
BITMAP
84
84
84
84
48
48
48
30
30
30
ENDCHAR
STARTCHAR 0057
ENCODING 87
SWIDTH 504 0
DWIDTH 7 0
BBX 5 10 1 0
BITMAP
88
88
88
A8
A8
A8
A8
A8
50
50
ENDCHAR
STARTCHAR 0058
ENCODING 88
SWIDTH 504 0
DWIDTH 7 0
BBX 6 10 0 0
BITMAP
84
84
48
48
30
30
48
48
84
84
ENDCHAR
STARTCHAR 0059
ENCODING 89
SWIDTH 504 0
DWIDTH 7 0
BBX 5 10 1 0
BITMAP
88
88
88
50
50
20
20
20
20
20
ENDCHAR
STARTCHAR 005A
ENCODING 90
SWIDTH 504 0
DWIDTH 7 0
BBX 6 10 0 0
BITMAP
FC
04
08
10
10
20
40
40
80
FC
ENDCHAR
STARTCHAR 005B
ENCODING 91
SWIDTH 504 0
DWIDTH 7 0
BBX 4 13 2 -1
BITMAP
F0
80
80
80
80
80
80
80
80
80
80
80
F0
ENDCHAR
STARTCHAR 005C
ENCODING 92
SWIDTH 504 0
DWIDTH 7 0
BBX 5 10 1 0
BITMAP
88
50
50
20
F8
20
F8
20
20
20
ENDCHAR
STARTCHAR 005D
ENCODING 93
SWIDTH 504 0
DWIDTH 7 0
BBX 4 13 1 -1
BITMAP
F0
10
10
10
10
10
10
10
10
10
10
10
F0
ENDCHAR
STARTCHAR 005E
ENCODING 94
SWIDTH 504 0
DWIDTH 7 0
BBX 6 3 0 -1
BITMAP
30
48
84
ENDCHAR
STARTCHAR 005F
ENCODING 95
SWIDTH 504 0
DWIDTH 7 0
BBX 6 1 0 11
BITMAP
FC
ENDCHAR
STARTCHAR 0060
ENCODING 96
SWIDTH 504 0
DWIDTH 7 0
BBX 2 4 2 -1
BITMAP
C0
80
80
40
ENDCHAR
STARTCHAR 0061
ENCODING 97
SWIDTH 504 0
DWIDTH 7 0
BBX 6 7 0 3
BITMAP
78
84
04
7C
84
84
7C
ENDCHAR
STARTCHAR 0062
ENCODING 98
SWIDTH 504 0
DWIDTH 7 0
BBX 6 10 0 0
BITMAP
80
80
80
B8
C4
84
84
84
C4
B8
ENDCHAR
STARTCHAR 0063
ENCODING 99
SWIDTH 504 0
DWIDTH 7 0
BBX 6 7 0 3
BITMAP
78
84
80
80
80
84
78
ENDCHAR
STARTCHAR 0064
ENCODING 100
SWIDTH 504 0
DWIDTH 7 0
BBX 6 10 0 0
BITMAP
04
04
04
74
8C
84
84
84
8C
74
ENDCHAR
STARTCHAR 0065
ENCODING 101
SWIDTH 504 0
DWIDTH 7 0
BBX 6 7 0 3
BITMAP
78
84
84
FC
80
84
78
ENDCHAR
STARTCHAR 0066
ENCODING 102
SWIDTH 504 0
DWIDTH 7 0
BBX 6 10 0 0
BITMAP
18
24
20
20
F8
20
20
20
20
20
ENDCHAR
STARTCHAR 0067
ENCODING 103
SWIDTH 504 0
DWIDTH 7 0
BBX 6 9 0 3
BITMAP
74
88
88
88
70
40
B8
84
78
ENDCHAR
STARTCHAR 0068
ENCODING 104
SWIDTH 504 0
DWIDTH 7 0
BBX 6 10 0 0
BITMAP
80
80
80
B8
C4
84
84
84
84
84
ENDCHAR
STARTCHAR 0069
ENCODING 105
SWIDTH 504 0
DWIDTH 7 0
BBX 2 10 2 0
BITMAP
40
40
00
C0
40
40
40
40
40
40
ENDCHAR
STARTCHAR 006A
ENCODING 106
SWIDTH 504 0
DWIDTH 7 0
BBX 4 12 1 0
BITMAP
10
10
00
30
10
10
10
10
10
10
20
C0
ENDCHAR
STARTCHAR 006B
ENCODING 107
SWIDTH 504 0
DWIDTH 7 0
BBX 6 10 0 0
BITMAP
80
80
80
88
90
A0
E0
90
88
84
ENDCHAR
STARTCHAR 006C
ENCODING 108
SWIDTH 504 0
DWIDTH 7 0
BBX 2 10 2 0
BITMAP
C0
40
40
40
40
40
40
40
40
40
ENDCHAR
STARTCHAR 006D
ENCODING 109
SWIDTH 504 0
DWIDTH 7 0
BBX 5 7 1 3
BITMAP
D0
A8
A8
A8
A8
A8
88
ENDCHAR
STARTCHAR 006E
ENCODING 110
SWIDTH 504 0
DWIDTH 7 0
BBX 6 7 0 3
BITMAP
B8
C4
84
84
84
84
84
ENDCHAR
STARTCHAR 006F
ENCODING 111
SWIDTH 504 0
DWIDTH 7 0
BBX 6 7 0 3
BITMAP
78
84
84
84
84
84
78
ENDCHAR
STARTCHAR 0070
ENCODING 112
SWIDTH 504 0
DWIDTH 7 0
BBX 6 9 0 3
BITMAP
B8
C4
84
84
84
C4
B8
80
80
ENDCHAR
STARTCHAR 0071
ENCODING 113
SWIDTH 504 0
DWIDTH 7 0
BBX 6 9 0 3
BITMAP
74
8C
84
84
84
8C
74
04
04
ENDCHAR
STARTCHAR 0072
ENCODING 114
SWIDTH 504 0
DWIDTH 7 0
BBX 6 7 0 3
BITMAP
B8
C4
84
80
80
80
80
ENDCHAR
STARTCHAR 0073
ENCODING 115
SWIDTH 504 0
DWIDTH 7 0
BBX 6 7 0 3
BITMAP
78
84
40
30
08
84
78
ENDCHAR
STARTCHAR 0074
ENCODING 116
SWIDTH 504 0
DWIDTH 7 0
BBX 6 10 0 0
BITMAP
20
20
20
F8
20
20
20
20
24
18
ENDCHAR
STARTCHAR 0075
ENCODING 117
SWIDTH 504 0
DWIDTH 7 0
BBX 6 7 0 3
BITMAP
84
84
84
84
84
8C
74
ENDCHAR
STARTCHAR 0076
ENCODING 118
SWIDTH 504 0
DWIDTH 7 0
BBX 5 7 1 3
BITMAP
88
88
88
50
50
20
20
ENDCHAR
STARTCHAR 0077
ENCODING 119
SWIDTH 504 0
DWIDTH 7 0
BBX 5 7 1 3
BITMAP
88
88
A8
A8
A8
50
50
ENDCHAR
STARTCHAR 0078
ENCODING 120
SWIDTH 504 0
DWIDTH 7 0
BBX 6 7 0 3
BITMAP
84
48
48
30
48
48
84
ENDCHAR
STARTCHAR 0079
ENCODING 121
SWIDTH 504 0
DWIDTH 7 0
BBX 6 9 0 3
BITMAP
84
84
48
48
30
10
20
20
C0
ENDCHAR
STARTCHAR 007A
ENCODING 122
SWIDTH 504 0
DWIDTH 7 0
BBX 6 7 0 3
BITMAP
FC
08
10
20
20
40
FC
ENDCHAR
STARTCHAR 007B
ENCODING 123
SWIDTH 504 0
DWIDTH 7 0
BBX 4 13 2 -1
BITMAP
30
40
40
40
40
40
80
40
40
40
40
40
30
ENDCHAR
STARTCHAR 007C
ENCODING 124
SWIDTH 504 0
DWIDTH 7 0
BBX 1 13 3 -1
BITMAP
80
80
80
80
80
80
80
80
80
80
80
80
80
ENDCHAR
STARTCHAR 007D
ENCODING 125
SWIDTH 504 0
DWIDTH 7 0
BBX 4 13 1 -1
BITMAP
C0
20
20
20
20
20
10
20
20
20
20
20
C0
ENDCHAR
STARTCHAR 007E
ENCODING 126
SWIDTH 504 0
DWIDTH 7 0
BBX 7 1 0 -2
BITMAP
FE
ENDCHAR
STARTCHAR 00A0
ENCODING 160
SWIDTH 1008 0
DWIDTH 14 0
BBX 13 1 0 -2
BITMAP
AAA8
ENDCHAR
STARTCHAR 00A1
ENCODING 161
SWIDTH 1008 0
DWIDTH 14 0
BBX 3 14 6 -2
BITMAP
40
E0
40
00
40
40
40
E0
E0
E0
E0
E0
E0
40
ENDCHAR
STARTCHAR 00A2
ENCODING 162
SWIDTH 504 0
DWIDTH 7 0
BBX 6 9 0 -1
BITMAP
20
78
A4
A0
A0
A0
A4
78
20
ENDCHAR
STARTCHAR 00A3
ENCODING 163
SWIDTH 504 0
DWIDTH 7 0
BBX 5 9 1 0
BITMAP
30
48
40
40
F0
40
40
F0
48
ENDCHAR
STARTCHAR 00A4
ENCODING 164
SWIDTH 1008 0
DWIDTH 14 0
BBX 12 12 1 -1
BITMAP
8010
4620
39C0
2040
2040
4020
4020
2040
2040
39C0
4620
8010
ENDCHAR
STARTCHAR 00A5
ENCODING 165
SWIDTH 504 0
DWIDTH 7 0
BBX 6 13 0 -2
BITMAP
80
80
40
40
20
20
20
10
10
08
08
04
04
ENDCHAR
STARTCHAR 00A6
ENCODING 166
SWIDTH 1008 0
DWIDTH 14 0
BBX 1 11 7 0
BITMAP
80
80
80
80
80
00
80
80
80
80
80
ENDCHAR
STARTCHAR 00A7
ENCODING 167
SWIDTH 1008 0
DWIDTH 14 0
BBX 5 14 5 -2
BITMAP
70
88
88
C0
60
70
98
C8
70
30
18
88
88
70
ENDCHAR
STARTCHAR 00A8
ENCODING 168
SWIDTH 1008 0
DWIDTH 14 0
BBX 7 2 4 10
BITMAP
C6
C6
ENDCHAR
STARTCHAR 00A9
ENCODING 169
SWIDTH 1008 0
DWIDTH 14 0
BBX 14 14 0 -2
BITMAP
0780
1860
2010
47A8
4C68
9824
9824
9804
9824
4C48
4788
2010
1860
0780
ENDCHAR
STARTCHAR 00AA
ENCODING 170
SWIDTH 1008 0
DWIDTH 14 0
BBX 6 7 4 5
BITMAP
70
48
0C
7C
8C
8C
7C
ENDCHAR
STARTCHAR 00AB
ENCODING 171
SWIDTH 1008 0
DWIDTH 14 0
BBX 6 5 7 0
BITMAP
24
48
D8
48
24
ENDCHAR
STARTCHAR 00AC
ENCODING 172
SWIDTH 504 0
DWIDTH 7 0
BBX 5 4 1 0
BITMAP
F8
08
08
08
ENDCHAR
STARTCHAR 00AD
ENCODING 173
SWIDTH 1008 0
DWIDTH 14 0
BBX 13 8 0 -2
BITMAP
0FE0
0000
0000
0000
0000
0000
0000
AAA8
ENDCHAR
STARTCHAR 00AE
ENCODING 174
SWIDTH 1008 0
DWIDTH 14 0
BBX 14 14 0 -2
BITMAP
0780
1860
2010
5F88
4C48
8C44
8F84
8C84
8C84
4C48
5E68
2010
1860
0780
ENDCHAR
STARTCHAR 00AF
ENCODING 175
SWIDTH 1008 0
DWIDTH 14 0
BBX 10 1 2 11
BITMAP
FFC0
ENDCHAR
STARTCHAR 00B0
ENCODING 176
SWIDTH 1008 0
DWIDTH 14 0
BBX 4 4 2 7
BITMAP
60
90
90
60
ENDCHAR
STARTCHAR 00B1
ENCODING 177
SWIDTH 1008 0
DWIDTH 14 0
BBX 11 11 2 0
BITMAP
0400
0400
0400
0400
FFE0
0400
0400
0400
0400
0000
FFE0
ENDCHAR
STARTCHAR 00B2
ENCODING 178
SWIDTH 1008 0
DWIDTH 14 0
BBX 6 7 4 5
BITMAP
78
8C
0C
78
C0
C0
FC
ENDCHAR
STARTCHAR 00B3
ENCODING 179
SWIDTH 1008 0
DWIDTH 14 0
BBX 6 7 4 5
BITMAP
78
8C
0C
78
0C
8C
78
ENDCHAR
STARTCHAR 00B4
ENCODING 180
SWIDTH 1008 0
DWIDTH 14 0
BBX 4 3 5 9
BITMAP
30
60
80
ENDCHAR
STARTCHAR 00B5
ENCODING 181
SWIDTH 504 0
DWIDTH 7 0
BBX 6 8 0 -2
BITMAP
44
44
44
44
6C
54
40
80
ENDCHAR
STARTCHAR 00B6
ENCODING 182
SWIDTH 1008 0
DWIDTH 14 0
BBX 5 12 5 -1
BITMAP
78
E8
E8
E8
68
28
28
28
28
28
28
28
ENDCHAR
STARTCHAR 00B7
ENCODING 183
SWIDTH 1008 0
DWIDTH 14 0
BBX 2 2 6 4
BITMAP
C0
C0
ENDCHAR
STARTCHAR 00B8
ENCODING 184
SWIDTH 1008 0
DWIDTH 14 0
BBX 4 5 6 7
BITMAP
40
60
10
90
60
ENDCHAR
STARTCHAR 00B9
ENCODING 185
SWIDTH 1008 0
DWIDTH 14 0
BBX 6 7 4 -2
BITMAP
10
30
F0
30
30
30
FC
ENDCHAR
STARTCHAR 00BA
ENCODING 186
SWIDTH 1008 0
DWIDTH 14 0
BBX 7 7 3 -2
BITMAP
38
6C
C6
C6
C6
44
38
ENDCHAR
STARTCHAR 00BB
ENCODING 187
SWIDTH 1008 0
DWIDTH 14 0
BBX 6 5 7 5
BITMAP
90
48
6C
48
90
ENDCHAR
STARTCHAR 00BC
ENCODING 188
SWIDTH 1008 0
DWIDTH 14 0
BBX 12 14 1 -2
BITMAP
1000
3010
7020
1040
1080
1100
1220
7C60
08A0
1120
2220
43F0
8020
0020
ENDCHAR
STARTCHAR 00BD
ENCODING 189
SWIDTH 1008 0
DWIDTH 14 0
BBX 12 14 1 -2
BITMAP
1000
3010
7020
1040
1080
1100
13E0
7D10
0B10
1060
2080
4100
8200
03F0
ENDCHAR
STARTCHAR 00BE
ENCODING 190
SWIDTH 1008 0
DWIDTH 14 0
BBX 12 14 1 -2
BITMAP
3800
4410
0420
1840
0480
4500
4A20
3460
08A0
1120
2220
43F0
8020
0020
ENDCHAR
STARTCHAR 00BF
ENCODING 191
SWIDTH 1008 0
DWIDTH 14 0
BBX 7 13 3 -2
BITMAP
30
30
00
10
10
10
08
0C
C6
C6
86
4C
38
ENDCHAR
STARTCHAR 00C0
ENCODING 192
SWIDTH 1008 0
DWIDTH 14 0
BBX 12 12 1 -2
BITMAP
0300
0100
0080
0700
0700
0980
0880
10C0
1FC0
2060
2060
F0F0
ENDCHAR
STARTCHAR 00C1
ENCODING 193
SWIDTH 1008 0
DWIDTH 14 0
BBX 12 12 1 -2
BITMAP
0600
0400
0800
0700
0700
0980
0980
10C0
1FC0
2060
2060
F0F0
ENDCHAR
STARTCHAR 00C2
ENCODING 194
SWIDTH 1008 0
DWIDTH 14 0
BBX 12 12 1 -2
BITMAP
0200
0500
0880
0700
0700
0980
0980
10C0
1FC0
2060
2060
F0F0
ENDCHAR
STARTCHAR 00C3
ENCODING 195
SWIDTH 1008 0
DWIDTH 14 0
BBX 12 12 1 -2
BITMAP
0640
0980
0000
0700
0700
0980
0980
10C0
1FC0
2060
2060
F0F0
ENDCHAR
STARTCHAR 00C4
ENCODING 196
SWIDTH 1008 0
DWIDTH 14 0
BBX 12 12 1 -2
BITMAP
1980
1980
0000
0700
0700
0980
0980
10C0
1FC0
2060
2060
F0F0
ENDCHAR
STARTCHAR 00C5
ENCODING 197
SWIDTH 1008 0
DWIDTH 14 0
BBX 12 12 1 -2
BITMAP
0300
0480
0480
0700
0700
0980
0980
10C0
1FC0
2060
2060
F0F0
ENDCHAR
STARTCHAR 00C6
ENCODING 198
SWIDTH 1008 0
DWIDTH 14 0
BBX 14 11 0 -1
BITMAP
07F8
0388
0384
0580
0990
09F0
1190
3F80
2184
4188
E3F8
ENDCHAR
STARTCHAR 00C7
ENCODING 199
SWIDTH 1008 0
DWIDTH 14 0
BBX 10 13 2 -1
BITMAP
0F40
30C0
6040
C040
C000
C000
C000
C000
6040
30C0
0F00
0600
1C00
ENDCHAR
STARTCHAR 00C8
ENCODING 200
SWIDTH 1008 0
DWIDTH 14 0
BBX 11 12 2 -2
BITMAP
0C00
0400
0200
FF80
3080
3040
3100
3F00
3100
3020
3040
FFC0
ENDCHAR
STARTCHAR 00C9
ENCODING 201
SWIDTH 1008 0
DWIDTH 14 0
BBX 11 12 2 -2
BITMAP
0600
0400
0800
FF80
3080
3040
3100
3F00
3100
3020
3040
FFC0
ENDCHAR
STARTCHAR 00CA
ENCODING 202
SWIDTH 1008 0
DWIDTH 14 0
BBX 11 12 2 -2
BITMAP
0400
0A00
1100
FF80
3080
3040
3100
3F00
3100
3020
3040
FFC0
ENDCHAR
STARTCHAR 00CB
ENCODING 203
SWIDTH 1008 0
DWIDTH 14 0
BBX 11 12 2 -2
BITMAP
3300
3300
0000
FF80
3080
3040
3100
3F00
3100
3020
3040
FFC0
ENDCHAR
STARTCHAR 00CC
ENCODING 204
SWIDTH 1008 0
DWIDTH 14 0
BBX 6 12 4 -2
BITMAP
30
10
08
FC
30
30
30
30
30
30
30
FC
ENDCHAR
STARTCHAR 00CD
ENCODING 205
SWIDTH 1008 0
DWIDTH 14 0
BBX 6 12 4 -2
BITMAP
18
10
20
FC
30
30
30
30
30
30
30
FC
ENDCHAR
STARTCHAR 00CE
ENCODING 206
SWIDTH 1008 0
DWIDTH 14 0
BBX 6 12 4 -2
BITMAP
20
50
88
FC
30
30
30
30
30
30
30
FC
ENDCHAR
STARTCHAR 00CF
ENCODING 207
SWIDTH 1008 0
DWIDTH 14 0
BBX 6 12 4 -2
BITMAP
CC
CC
00
FC
30
30
30
30
30
30
30
FC
ENDCHAR
STARTCHAR 00D0
ENCODING 208
SWIDTH 1008 0
DWIDTH 14 0
BBX 12 11 1 -1
BITMAP
7F00
18C0
1860
1830
1830
FF30
1830
1830
1860
18C0
7F00
ENDCHAR
STARTCHAR 00D1
ENCODING 209
SWIDTH 1008 0
DWIDTH 14 0
BBX 10 12 2 -2
BITMAP
1900
2600
E1C0
7080
5880
5880
4C80
4680
4680
4380
4180
E180
ENDCHAR
STARTCHAR 00D2
ENCODING 210
SWIDTH 1008 0
DWIDTH 14 0
BBX 11 12 2 -2
BITMAP
0C00
0400
0200
0E00
3180
60C0
C060
C060
C060
60C0
3180
0E00
ENDCHAR
STARTCHAR 00D3
ENCODING 211
SWIDTH 1008 0
DWIDTH 14 0
BBX 11 12 2 -2
BITMAP
0600
0400
0800
0E00
3180
60C0
C060
C060
C060
60C0
3180
0E00
ENDCHAR
STARTCHAR 00D4
ENCODING 212
SWIDTH 1008 0
DWIDTH 14 0
BBX 11 12 2 -2
BITMAP
0400
0A00
1100
0E00
3180
60C0
C060
C060
C060
60C0
3180
0E00
ENDCHAR
STARTCHAR 00D5
ENCODING 213
SWIDTH 1008 0
DWIDTH 14 0
BBX 11 12 2 -2
BITMAP
1900
2600
0000
0E00
3180
60C0
C060
C060
C060
60C0
3180
0E00
ENDCHAR
STARTCHAR 00D6
ENCODING 214
SWIDTH 1008 0
DWIDTH 14 0
BBX 11 12 2 -2
BITMAP
3300
3300
0000
0E00
3180
60C0
C060
C060
C060
60C0
3180
0E00
ENDCHAR
STARTCHAR 00D7
ENCODING 215
SWIDTH 1008 0
DWIDTH 14 0
BBX 11 11 2 -1
BITMAP
8020
4040
2080
1100
0A00
0400
0A00
1100
2080
4040
8020
ENDCHAR
STARTCHAR 00D8
ENCODING 216
SWIDTH 1008 0
DWIDTH 14 0
BBX 11 11 2 -1
BITMAP
0E20
31C0
60C0
C160
C260
C460
C860
D060
60C0
7180
8E00
ENDCHAR
STARTCHAR 00D9
ENCODING 217
SWIDTH 1008 0
DWIDTH 14 0
BBX 11 12 2 -2
BITMAP
0C00
0400
0200
F0E0
6040
6040
6040
6040
6040
6040
3080
0F00
ENDCHAR
STARTCHAR 00DA
ENCODING 218
SWIDTH 1008 0
DWIDTH 14 0
BBX 11 12 2 -2
BITMAP
0600
0400
0800
F0E0
6040
6040
6040
6040
6040
6040
3080
0F00
ENDCHAR
STARTCHAR 00DB
ENCODING 219
SWIDTH 1008 0
DWIDTH 14 0
BBX 11 12 2 -2
BITMAP
0400
0A00
1100
F0E0
6040
6040
6040
6040
6040
6040
3080
0F00
ENDCHAR
STARTCHAR 00DC
ENCODING 220
SWIDTH 1008 0
DWIDTH 14 0
BBX 11 12 2 -2
BITMAP
3300
3300
0000
F0E0
6040
6040
6040
6040
6040
6040
3080
0F00
ENDCHAR
STARTCHAR 00DD
ENCODING 221
SWIDTH 1008 0
DWIDTH 14 0
BBX 11 12 2 -2
BITMAP
0600
0400
F9E0
6080
3100
1A00
0C00
0C00
0C00
0C00
0C00
3F00
ENDCHAR
STARTCHAR 00DE
ENCODING 222
SWIDTH 1008 0
DWIDTH 14 0
BBX 10 11 2 -1
BITMAP
FC00
3000
3E00
3180
30C0
30C0
3180
3E00
3000
3000
FC00
ENDCHAR
STARTCHAR 00DF
ENCODING 223
SWIDTH 1008 0
DWIDTH 14 0
BBX 8 11 3 -1
BITMAP
1C
22
63
62
6C
63
63
63
63
6A
E4
ENDCHAR
STARTCHAR 00E0
ENCODING 224
SWIDTH 1008 0
DWIDTH 14 0
BBX 9 12 3 -2
BITMAP
1800
0800
0400
0000
3C00
6200
6300
1F00
6300
C300
C700
7980
ENDCHAR
STARTCHAR 00E1
ENCODING 225
SWIDTH 1008 0
DWIDTH 14 0
BBX 9 12 3 -2
BITMAP
0C00
0800
1000
0000
3C00
6200
6300
1F00
6300
C300
C700
7980
ENDCHAR
STARTCHAR 00E2
ENCODING 226
SWIDTH 1008 0
DWIDTH 14 0
BBX 9 12 3 -2
BITMAP
0800
1400
2200
0000
3C00
6200
6300
1F00
6300
C300
C700
7980
ENDCHAR
STARTCHAR 00E3
ENCODING 227
SWIDTH 1008 0
DWIDTH 14 0
BBX 9 11 3 -1
BITMAP
3200
4C00
0000
3C00
6200
6300
1F00
6300
C300
C700
7980
ENDCHAR
STARTCHAR 00E4
ENCODING 228
SWIDTH 1008 0
DWIDTH 14 0
BBX 9 11 3 -1
BITMAP
6600
6600
0000
3C00
6200
6300
1F00
6300
C300
C700
7980
ENDCHAR
STARTCHAR 00E5
ENCODING 229
SWIDTH 1008 0
DWIDTH 14 0
BBX 9 12 3 -2
BITMAP
1800
2400
2400
1800
3C00
6200
6300
1F00
6300
C300
C700
7980
ENDCHAR
STARTCHAR 00E6
ENCODING 230
SWIDTH 1008 0
DWIDTH 14 0
BBX 12 8 1 2
BITMAP
38C0
6720
4630
3FF0
4600
C610
CF10
76E0
ENDCHAR
STARTCHAR 00E7
ENCODING 231
SWIDTH 1008 0
DWIDTH 14 0
BBX 8 10 3 2
BITMAP
1C
63
C1
C0
C0
C1
63
1C
18
70
ENDCHAR
STARTCHAR 00E8
ENCODING 232
SWIDTH 1008 0
DWIDTH 14 0
BBX 9 12 3 -2
BITMAP
1800
0800
0400
0000
3E00
4100
C180
FF80
C000
C080
6180
1E00
ENDCHAR
STARTCHAR 00E9
ENCODING 233
SWIDTH 1008 0
DWIDTH 14 0
BBX 9 12 3 -2
BITMAP
0C00
0800
1000
0000
3E00
4100
C180
FF80
C000
C080
6180
1E00
ENDCHAR
STARTCHAR 00EA
ENCODING 234
SWIDTH 1008 0
DWIDTH 14 0
BBX 9 12 3 -2
BITMAP
0800
1400
2200
0000
3E00
4100
C180
FF80
C000
C080
6180
1E00
ENDCHAR
STARTCHAR 00EB
ENCODING 235
SWIDTH 1008 0
DWIDTH 14 0
BBX 9 11 3 -1
BITMAP
6600
6600
0000
3E00
4100
C180
FF80
C000
C080
6180
1E00
ENDCHAR
STARTCHAR 00EC
ENCODING 236
SWIDTH 1008 0
DWIDTH 14 0
BBX 6 11 4 -1
BITMAP
30
10
08
00
F0
30
30
30
30
30
FC
ENDCHAR
STARTCHAR 00ED
ENCODING 237
SWIDTH 1008 0
DWIDTH 14 0
BBX 6 11 4 -1
BITMAP
18
10
20
00
F0
30
30
30
30
30
FC
ENDCHAR
STARTCHAR 00EE
ENCODING 238
SWIDTH 1008 0
DWIDTH 14 0
BBX 6 11 4 -1
BITMAP
10
28
44
00
F0
30
30
30
30
30
FC
ENDCHAR
STARTCHAR 00EF
ENCODING 239
SWIDTH 1008 0
DWIDTH 14 0
BBX 6 11 4 -1
BITMAP
CC
CC
00
00
F0
30
30
30
30
30
FC
ENDCHAR
STARTCHAR 00F0
ENCODING 240
SWIDTH 1008 0
DWIDTH 14 0
BBX 8 12 3 -1
BITMAP
39
46
1A
23
03
3B
47
C3
C3
C3
46
3C
ENDCHAR
STARTCHAR 00F1
ENCODING 241
SWIDTH 1008 0
DWIDTH 14 0
BBX 10 11 3 -1
BITMAP
3200
4C00
0000
EE00
7100
6180
6180
6180
6180
6180
F3C0
ENDCHAR
STARTCHAR 00F2
ENCODING 242
SWIDTH 1008 0
DWIDTH 14 0
BBX 9 12 3 -2
BITMAP
1800
0800
0400
0000
1C00
6300
C180
C180
C180
C180
6300
1C00
ENDCHAR
STARTCHAR 00F3
ENCODING 243
SWIDTH 1008 0
DWIDTH 14 0
BBX 9 12 3 -2
BITMAP
0C00
0800
1000
0000
1C00
6300
C180
C180
C180
C180
6300
1C00
ENDCHAR
STARTCHAR 00F4
ENCODING 244
SWIDTH 1008 0
DWIDTH 14 0
BBX 9 12 3 -2
BITMAP
0800
1400
2200
0000
1C00
6300
C180
C180
C180
C180
6300
1C00
ENDCHAR
STARTCHAR 00F5
ENCODING 245
SWIDTH 1008 0
DWIDTH 14 0
BBX 9 11 3 -1
BITMAP
3200
4C00
0000
1C00
6300
C180
C180
C180
C180
6300
1C00
ENDCHAR
STARTCHAR 00F6
ENCODING 246
SWIDTH 1008 0
DWIDTH 14 0
BBX 9 11 3 -1
BITMAP
6600
6600
0000
1C00
6300
C180
C180
C180
C180
6300
1C00
ENDCHAR
STARTCHAR 00F7
ENCODING 247
SWIDTH 1008 0
DWIDTH 14 0
BBX 11 11 2 -1
BITMAP
0400
0E00
0400
0000
0000
FFE0
0000
0000
0400
0E00
0400
ENDCHAR
STARTCHAR 00F8
ENCODING 248
SWIDTH 1008 0
DWIDTH 14 0
BBX 9 8 3 2
BITMAP
1D00
6300
C580
C980
C980
D180
6300
5C00
ENDCHAR
STARTCHAR 00F9
ENCODING 249
SWIDTH 1008 0
DWIDTH 14 0
BBX 10 12 3 -2
BITMAP
1800
0800
0400
0000
E780
6180
6180
6180
6180
6180
6380
3CC0
ENDCHAR
STARTCHAR 00FA
ENCODING 250
SWIDTH 1008 0
DWIDTH 14 0
BBX 10 12 3 -2
BITMAP
0C00
0800
1000
0000
E780
6180
6180
6180
6180
6180
6380
3CC0
ENDCHAR
STARTCHAR 00FB
ENCODING 251
SWIDTH 1008 0
DWIDTH 14 0
BBX 10 12 3 -2
BITMAP
0800
1400
2200
0000
E780
6180
6180
6180
6180
6180
6380
3CC0
ENDCHAR
STARTCHAR 00FC
ENCODING 252
SWIDTH 1008 0
DWIDTH 14 0
BBX 10 11 3 -1
BITMAP
6600
6600
0000
E780
6180
6180
6180
6180
6180
6380
3CC0
ENDCHAR
STARTCHAR 00FD
ENCODING 253
SWIDTH 1008 0
DWIDTH 14 0
BBX 9 14 3 -2
BITMAP
0C00
0800
1000
0000
FB80
6100
3100
3200
1A00
1C00
0C00
C800
C800
7000
ENDCHAR
STARTCHAR 00FE
ENCODING 254
SWIDTH 1008 0
DWIDTH 14 0
BBX 9 14 3 -2
BITMAP
E000
6000
6000
6000
6E00
7300
6180
6180
6180
6180
7300
6E00
6000
F000
ENDCHAR
STARTCHAR 00FF
ENCODING 255
SWIDTH 1008 0
DWIDTH 14 0
BBX 9 13 3 -1
BITMAP
6600
6600
0000
FB80
6100
3100
3200
1A00
1C00
0C00
C800
C800
7000
ENDCHAR
STARTCHAR 0100
ENCODING 256
SWIDTH 1008 0
DWIDTH 14 0
BBX 12 12 1 -2
BITMAP
1F80
0000
0200
0700
0700
0980
0980
10C0
1FC0
2060
2060
F0F0
ENDCHAR
STARTCHAR 0101
ENCODING 257
SWIDTH 1008 0
DWIDTH 14 0
BBX 9 10 3 0
BITMAP
7E00
0000
3C00
6200
6300
1F00
6300
C300
C700
7980
ENDCHAR
STARTCHAR 0102
ENCODING 258
SWIDTH 1008 0
DWIDTH 14 0
BBX 12 12 1 -2
BITMAP
0880
0700
0000
0700
0700
0980
0980
10C0
1FC0
2060
2060
F0F0
ENDCHAR
STARTCHAR 0103
ENCODING 259
SWIDTH 1008 0
DWIDTH 14 0
BBX 9 11 3 -1
BITMAP
2200
1C00
0000
3C00
6200
6300
1F00
6300
C300
C700
7980
ENDCHAR
STARTCHAR 0104
ENCODING 260
SWIDTH 1008 0
DWIDTH 14 0
BBX 12 13 1 -1
BITMAP
0200
0200
0700
0700
0980
0980
10C0
1FC0
2060
2060
F0F0
0040
0030
ENDCHAR
STARTCHAR 0105
ENCODING 261
SWIDTH 1008 0
DWIDTH 14 0
BBX 11 10 3 2
BITMAP
3C00
6200
6300
1F00
6300
C300
C700
7980
0080
0060
ENDCHAR
STARTCHAR 0106
ENCODING 262
SWIDTH 1008 0
DWIDTH 14 0
BBX 10 12 2 -2
BITMAP
0600
0400
0800
0F40
30C0
6040
C040
C000
C000
6040
30C0
0F00
ENDCHAR
STARTCHAR 0107
ENCODING 263
SWIDTH 1008 0
DWIDTH 14 0
BBX 8 12 3 -2
BITMAP
0C
08
10
00
1C
63
C1
C0
C0
C1
63
1C
ENDCHAR
STARTCHAR 0108
ENCODING 264
SWIDTH 1008 0
DWIDTH 14 0
BBX 10 12 2 -2
BITMAP
0400
0A00
1100
0F40
30C0
6040
C040
C000
C000
6040
30C0
0F00
ENDCHAR
STARTCHAR 0109
ENCODING 265
SWIDTH 1008 0
DWIDTH 14 0
BBX 8 12 3 -2
BITMAP
08
14
22
00
1C
63
C1
C0
C0
C1
63
1C
ENDCHAR
STARTCHAR 010C
ENCODING 268
SWIDTH 1008 0
DWIDTH 14 0
BBX 10 12 2 -2
BITMAP
1100
0A00
0400
0F40
30C0
6040
C040
C000
C000
6040
30C0
0F00
ENDCHAR
STARTCHAR 010D
ENCODING 269
SWIDTH 1008 0
DWIDTH 14 0
BBX 8 12 3 -2
BITMAP
22
14
08
00
1C
63
C1
C0
C0
C1
63
1C
ENDCHAR
STARTCHAR 010E
ENCODING 270
SWIDTH 1008 0
DWIDTH 14 0
BBX 11 12 2 -2
BITMAP
1100
0A00
0400
FE00
3180
30C0
3060
3060
3060
30C0
3180
FE00
ENDCHAR
STARTCHAR 010F
ENCODING 271
SWIDTH 1008 0
DWIDTH 14 0
BBX 9 12 3 -2
BITMAP
2200
1400
0F00
0300
0300
3B00
6700
C300
C300
C300
6700
1B80
ENDCHAR
STARTCHAR 0111
ENCODING 273
SWIDTH 1008 0
DWIDTH 14 0
BBX 9 11 3 -1
BITMAP
0700
0300
3F80
0300
1B00
6700
C300
C300
C300
6700
1B80
ENDCHAR
STARTCHAR 0112
ENCODING 274
SWIDTH 1008 0
DWIDTH 14 0
BBX 11 12 2 -2
BITMAP
3F00
0000
FF80
3080
3040
3100
3F00
3100
3000
3020
3040
FFC0
ENDCHAR
STARTCHAR 0113
ENCODING 275
SWIDTH 1008 0
DWIDTH 14 0
BBX 9 10 3 0
BITMAP
7E00
0000
3E00
4100
C180
FF80
C000
C080
6180
1E00
ENDCHAR
STARTCHAR 0118
ENCODING 280
SWIDTH 1008 0
DWIDTH 14 0
BBX 11 13 2 -1
BITMAP
FF80
3080
3040
3000
3100
3F00
3100
3000
3020
3040
FFC0
0080
0060
ENDCHAR
STARTCHAR 0119
ENCODING 281
SWIDTH 1008 0
DWIDTH 14 0
BBX 9 10 3 2
BITMAP
3E00
4100
C180
FF80
C000
C080
6180
1E00
0200
0180
ENDCHAR
STARTCHAR 011A
ENCODING 282
SWIDTH 1008 0
DWIDTH 14 0
BBX 11 12 2 -2
BITMAP
1100
0A00
0400
FF80
3080
3040
3100
3F00
3100
3020
3040
FFC0
ENDCHAR
STARTCHAR 011B
ENCODING 283
SWIDTH 1008 0
DWIDTH 14 0
BBX 9 12 3 -2
BITMAP
2200
1400
0800
0000
3E00
4100
C180
FF80
C000
C080
6180
1E00
ENDCHAR
STARTCHAR 011C
ENCODING 284
SWIDTH 1008 0
DWIDTH 14 0
BBX 11 12 2 -2
BITMAP
0400
0A00
1100
0F40
30C0
6040
C000
C3E0
C0C0
60C0
3180
0E00
ENDCHAR
STARTCHAR 011D
ENCODING 285
SWIDTH 1008 0
DWIDTH 14 0
BBX 8 14 3 -2
BITMAP
08
14
22
00
3F
66
46
44
38
60
7E
C7
41
3E
ENDCHAR
STARTCHAR 0124
ENCODING 292
SWIDTH 1008 0
DWIDTH 14 0
BBX 11 12 2 -2
BITMAP
0400
0A00
1100
F1E0
60C0
60C0
60C0
7FC0
60C0
60C0
60C0
F1E0
ENDCHAR
STARTCHAR 0125
ENCODING 293
SWIDTH 1008 0
DWIDTH 14 0
BBX 10 12 3 -2
BITMAP
0400
EA00
7100
6000
6E00
7300
6180
6180
6180
6180
6180
F3C0
ENDCHAR
STARTCHAR 0127
ENCODING 295
SWIDTH 1008 0
DWIDTH 14 0
BBX 10 11 3 -1
BITMAP
E000
6000
FC00
6000
6E00
7300
6180
6180
6180
6180
F3C0
ENDCHAR
STARTCHAR 012A
ENCODING 298
SWIDTH 1008 0
DWIDTH 14 0
BBX 6 12 4 -2
BITMAP
FC
00
FC
30
30
30
30
30
30
30
30
FC
ENDCHAR
STARTCHAR 012B
ENCODING 299
SWIDTH 1008 0
DWIDTH 14 0
BBX 6 10 4 0
BITMAP
FC
00
00
F0
30
30
30
30
30
FC
ENDCHAR
STARTCHAR 0134
ENCODING 308
SWIDTH 1008 0
DWIDTH 14 0
BBX 11 12 2 -2
BITMAP
0400
0A00
1100
07E0
0180
0180
0180
4180
E180
C180
6300
1C00
ENDCHAR
STARTCHAR 0135
ENCODING 309
SWIDTH 1008 0
DWIDTH 14 0
BBX 7 13 3 -1
BITMAP
08
14
22
00
7C
0C
0C
0C
0C
0C
CC
C8
70
ENDCHAR
STARTCHAR 0139
ENCODING 313
SWIDTH 1008 0
DWIDTH 14 0
BBX 11 12 2 -2
BITMAP
0300
FA00
3400
3000
3000
3000
3000
3000
3000
3020
3040
FFC0
ENDCHAR
STARTCHAR 013A
ENCODING 314
SWIDTH 1008 0
DWIDTH 14 0
BBX 6 12 4 -2
BITMAP
18
10
20
F0
30
30
30
30
30
30
30
FC
ENDCHAR
STARTCHAR 013D
ENCODING 317
SWIDTH 1008 0
DWIDTH 14 0
BBX 11 12 2 -2
BITMAP
0880
F500
3200
3000
3000
3000
3000
3000
3000
3020
3040
FFC0
ENDCHAR
STARTCHAR 013E
ENCODING 318
SWIDTH 1008 0
DWIDTH 14 0
BBX 6 12 4 -2
BITMAP
44
28
10
F0
30
30
30
30
30
30
30
FC
ENDCHAR
STARTCHAR 0141
ENCODING 321
SWIDTH 1008 0
DWIDTH 14 0
BBX 11 11 2 -1
BITMAP
FC00
3000
3000
3400
3800
3000
7000
B000
3020
3040
FFC0
ENDCHAR
STARTCHAR 0142
ENCODING 322
SWIDTH 1008 0
DWIDTH 14 0
BBX 6 11 4 -1
BITMAP
F0
30
34
38
30
70
B0
30
30
30
FC
ENDCHAR
STARTCHAR 0143
ENCODING 323
SWIDTH 1008 0
DWIDTH 14 0
BBX 10 12 2 -2
BITMAP
0600
0400
E9C0
7080
5880
5880
4C80
4680
4680
4380
4180
E180
ENDCHAR
STARTCHAR 0144
ENCODING 324
SWIDTH 1008 0
DWIDTH 14 0
BBX 10 12 3 -2
BITMAP
0C00
0800
1000
0000
EE00
7100
6180
6180
6180
6180
6180
F3C0
ENDCHAR
STARTCHAR 0147
ENCODING 327
SWIDTH 1008 0
DWIDTH 14 0
BBX 10 12 2 -2
BITMAP
1900
2600
0000
E1C0
7080
7880
5C80
4E80
4680
4380
4180
E180
ENDCHAR
STARTCHAR 0148
ENCODING 328
SWIDTH 1008 0
DWIDTH 14 0
BBX 10 12 3 -2
BITMAP
2200
1400
0800
0000
EE00
7100
6180
6180
6180
6180
6180
F3C0
ENDCHAR
STARTCHAR 014B
ENCODING 331
SWIDTH 1008 0
DWIDTH 14 0
BBX 9 10 3 2
BITMAP
EE00
7100
6180
6180
6180
6180
6180
F180
0900
0E00
ENDCHAR
STARTCHAR 014C
ENCODING 332
SWIDTH 1008 0
DWIDTH 14 0
BBX 11 12 2 -2
BITMAP
3F00
0000
0E00
3180
60C0
C060
C060
C060
C060
60C0
3180
0E00
ENDCHAR
STARTCHAR 014D
ENCODING 333
SWIDTH 1008 0
DWIDTH 14 0
BBX 9 10 3 0
BITMAP
7E00
0000
1C00
6300
C180
C180
C180
C180
6300
1C00
ENDCHAR
STARTCHAR 0150
ENCODING 336
SWIDTH 1008 0
DWIDTH 14 0
BBX 11 12 2 -2
BITMAP
1980
1100
2200
0E00
3180
60C0
C060
C060
C060
60C0
3180
0E00
ENDCHAR
STARTCHAR 0151
ENCODING 337
SWIDTH 1008 0
DWIDTH 14 0
BBX 9 12 3 -2
BITMAP
1B00
1200
2400
0000
1C00
6300
C180
C180
C180
C180
6300
1C00
ENDCHAR
STARTCHAR 0152
ENCODING 338
SWIDTH 1008 0
DWIDTH 14 0
BBX 13 11 1 -1
BITMAP
3BF0
6710
4308
C300
C320
C3E0
C320
C300
4308
6710
3BF0
ENDCHAR
STARTCHAR 0153
ENCODING 339
SWIDTH 1008 0
DWIDTH 14 0
BBX 12 8 1 2
BITMAP
38C0
6F20
C630
C7F0
C600
C610
6F10
39E0
ENDCHAR
STARTCHAR 0154
ENCODING 340
SWIDTH 1008 0
DWIDTH 14 0
BBX 11 12 2 -2
BITMAP
0600
0400
0800
FF00
31C0
30C0
3180
3E00
3300
3180
31C0
F8E0
ENDCHAR
STARTCHAR 0155
ENCODING 341
SWIDTH 1008 0
DWIDTH 14 0
BBX 8 12 3 -2
BITMAP
0C
08
10
00
EE
73
63
60
60
60
60
F0
ENDCHAR
STARTCHAR 0158
ENCODING 344
SWIDTH 1008 0
DWIDTH 14 0
BBX 11 12 2 -2
BITMAP
1100
0A00
0400
FF00
30C0
30C0
3180
3E00
3300
3180
30C0
F8E0
ENDCHAR
STARTCHAR 0159
ENCODING 345
SWIDTH 1008 0
DWIDTH 14 0
BBX 8 12 3 -2
BITMAP
22
14
08
00
EE
73
63
60
60
60
60
F0
ENDCHAR
STARTCHAR 015A
ENCODING 346
SWIDTH 1008 0
DWIDTH 14 0
BBX 9 12 3 -2
BITMAP
0C00
0800
1000
3D00
4300
C100
7800
3E00
8F00
C180
E100
9E00
ENDCHAR
STARTCHAR 015B
ENCODING 347
SWIDTH 1008 0
DWIDTH 14 0
BBX 8 12 3 -2
BITMAP
0C
08
10
00
7E
C2
E0
78
1E
87
C3
BE
ENDCHAR
STARTCHAR 015C
ENCODING 348
SWIDTH 1008 0
DWIDTH 14 0
BBX 9 12 3 -2
BITMAP
0800
1400
2200
3D00
4300
C100
7800
3E00
8F00
C180
E100
9E00
ENDCHAR
STARTCHAR 015D
ENCODING 349
SWIDTH 1008 0
DWIDTH 14 0
BBX 8 12 3 -2
BITMAP
10
28
44
00
7E
C2
E0
78
1E
87
C3
BE
ENDCHAR
STARTCHAR 015E
ENCODING 350
SWIDTH 1008 0
DWIDTH 14 0
BBX 9 13 3 -1
BITMAP
3D00
4300
C100
E000
7800
1E00
0700
8180
C180
E100
9E00
0800
3000
ENDCHAR
STARTCHAR 015F
ENCODING 351
SWIDTH 1008 0
DWIDTH 14 0
BBX 8 10 3 2
BITMAP
7E
C2
E0
78
1E
87
C3
BE
08
30
ENDCHAR
STARTCHAR 0160
ENCODING 352
SWIDTH 1008 0
DWIDTH 14 0
BBX 9 12 3 -2
BITMAP
2200
1400
0800
3D00
4300
C100
7800
3E00
8F00
C180
E100
9E00
ENDCHAR
STARTCHAR 0161
ENCODING 353
SWIDTH 1008 0
DWIDTH 14 0
BBX 8 12 3 -2
BITMAP
22
14
08
00
7E
C2
E0
78
1E
87
C3
BE
ENDCHAR
STARTCHAR 0162
ENCODING 354
SWIDTH 1008 0
DWIDTH 14 0
BBX 12 13 1 -1
BITMAP
7FE0
4620
8610
0600
0600
0600
0600
0600
0600
0600
1F80
0400
1800
ENDCHAR
STARTCHAR 0163
ENCODING 355
SWIDTH 1008 0
DWIDTH 14 0
BBX 8 12 3 0
BITMAP
10
30
30
FF
30
30
30
30
31
1E
08
30
ENDCHAR
STARTCHAR 0164
ENCODING 356
SWIDTH 1008 0
DWIDTH 14 0
BBX 12 12 1 -2
BITMAP
0880
0500
0200
7FE0
4620
8610
0600
0600
0600
0600
0600
1F80
ENDCHAR
STARTCHAR 0165
ENCODING 357
SWIDTH 1008 0
DWIDTH 14 0
BBX 8 12 3 -2
BITMAP
11
0A
14
30
30
FF
30
30
30
30
31
1E
ENDCHAR
STARTCHAR 016A
ENCODING 362
SWIDTH 1008 0
DWIDTH 14 0
BBX 11 12 2 -2
BITMAP
3F00
0000
F0E0
6040
6040
6040
6040
6040
6040
6040
3080
0F00
ENDCHAR
STARTCHAR 016B
ENCODING 363
SWIDTH 1008 0
DWIDTH 14 0
BBX 10 10 3 0
BITMAP
7E00
0000
E780
6180
6180
6180
6180
6180
6380
3CC0
ENDCHAR
STARTCHAR 016C
ENCODING 364
SWIDTH 1008 0
DWIDTH 14 0
BBX 11 12 2 -2
BITMAP
1100
0E00
F0E0
6040
6040
6040
6040
6040
6040
6040
3080
0F00
ENDCHAR
STARTCHAR 016D
ENCODING 365
SWIDTH 1008 0
DWIDTH 14 0
BBX 10 11 3 -1
BITMAP
2200
1C00
0000
E780
6180
6180
6180
6180
6180
6380
3CC0
ENDCHAR
STARTCHAR 016E
ENCODING 366
SWIDTH 1008 0
DWIDTH 14 0
BBX 11 12 2 -2
BITMAP
0600
0900
0900
F6E0
6040
6040
6040
6040
6040
6040
3080
0F00
ENDCHAR
STARTCHAR 016F
ENCODING 367
SWIDTH 1008 0
DWIDTH 14 0
BBX 10 12 3 -2
BITMAP
1800
2400
2400
1800
E780
6180
6180
6180
6180
6180
6380
3CC0
ENDCHAR
STARTCHAR 0170
ENCODING 368
SWIDTH 1008 0
DWIDTH 14 0
BBX 11 12 2 -2
BITMAP
0D80
0900
1200
F0E0
6040
6040
6040
6040
6040
6040
3080
0F00
ENDCHAR
STARTCHAR 0171
ENCODING 369
SWIDTH 1008 0
DWIDTH 14 0
BBX 10 12 3 -2
BITMAP
1B00
1200
2400
0000
E780
6180
6180
6180
6180
6180
6380
3CC0
ENDCHAR
STARTCHAR 0179
ENCODING 377
SWIDTH 1008 0
DWIDTH 14 0
BBX 11 12 2 -2
BITMAP
0600
0400
0800
7FC0
4180
8300
0600
0C00
1800
3020
6040
FFC0
ENDCHAR
STARTCHAR 017A
ENCODING 378
SWIDTH 1008 0
DWIDTH 14 0
BBX 8 12 3 -2
BITMAP
0C
08
10
00
FF
86
0C
18
30
60
C1
FF
ENDCHAR
STARTCHAR 017B
ENCODING 379
SWIDTH 1008 0
DWIDTH 14 0
BBX 11 12 2 -2
BITMAP
0C00
0C00
0000
7FC0
4180
8300
0600
0C00
1800
3020
6040
FFC0
ENDCHAR
STARTCHAR 017C
ENCODING 380
SWIDTH 1008 0
DWIDTH 14 0
BBX 8 11 3 -1
BITMAP
18
18
00
FF
86
0C
18
30
60
C1
FF
ENDCHAR
STARTCHAR 017D
ENCODING 381
SWIDTH 1008 0
DWIDTH 14 0
BBX 11 12 2 -2
BITMAP
1100
0A00
0400
7FC0
4180
8300
0600
0C00
1800
3020
6040
FFC0
ENDCHAR
STARTCHAR 017E
ENCODING 382
SWIDTH 1008 0
DWIDTH 14 0
BBX 8 12 3 -2
BITMAP
22
14
08
00
FF
86
0C
18
30
60
C1
FF
ENDCHAR
STARTCHAR 0193
ENCODING 403
SWIDTH 1008 0
DWIDTH 14 0
BBX 11 11 2 -1
BITMAP
0EE0
31A0
6080
C000
C000
C3E0
C0C0
C0C0
60C0
3180
0E00
ENDCHAR
STARTCHAR 01C2
ENCODING 450
SWIDTH 1008 0
DWIDTH 14 0
BBX 7 11 4 -1
BITMAP
10
10
10
FE
10
10
10
FE
10
10
10
ENDCHAR
STARTCHAR 01CD
ENCODING 461
SWIDTH 1008 0
DWIDTH 14 0
BBX 12 12 1 -2
BITMAP
0880
0500
0200
0700
0700
0980
0980
10C0
1FC0
2060
2060
F0F0
ENDCHAR
STARTCHAR 01CE
ENCODING 462
SWIDTH 1008 0
DWIDTH 14 0
BBX 9 12 3 -2
BITMAP
4400
2800
1000
0000
3C00
6200
6300
1F00
6300
C300
C700
7980
ENDCHAR
STARTCHAR 01D0
ENCODING 464
SWIDTH 1008 0
DWIDTH 14 0
BBX 6 11 4 -1
BITMAP
44
28
10
00
F0
30
30
30
30
30
FC
ENDCHAR
STARTCHAR 01D1
ENCODING 465
SWIDTH 1008 0
DWIDTH 14 0
BBX 11 12 2 -2
BITMAP
1100
0A00
0400
0E00
3180
60C0
C060
C060
C060
60C0
3180
0E00
ENDCHAR
STARTCHAR 01D2
ENCODING 466
SWIDTH 1008 0
DWIDTH 14 0
BBX 9 11 3 -1
BITMAP
2200
1400
0800
1C00
6300
C180
C180
C180
C180
6300
1C00
ENDCHAR
STARTCHAR 01D4
ENCODING 468
SWIDTH 1008 0
DWIDTH 14 0
BBX 10 11 3 -1
BITMAP
2200
1400
0800
E780
6180
6180
6180
6180
6180
6380
3CC0
ENDCHAR
STARTCHAR 01D6
ENCODING 470
SWIDTH 1008 0
DWIDTH 14 0
BBX 10 12 3 -2
BITMAP
7F00
0000
6300
6300
0000
E780
6180
6180
6180
6180
6380
3CC0
ENDCHAR
STARTCHAR 01D8
ENCODING 472
SWIDTH 1008 0
DWIDTH 14 0
BBX 10 12 3 -2
BITMAP
0C00
0800
7300
6300
0000
E780
6180
6180
6180
6180
6380
3CC0
ENDCHAR
STARTCHAR 01DA
ENCODING 474
SWIDTH 1008 0
DWIDTH 14 0
BBX 10 12 3 -2
BITMAP
2200
1400
6B00
6300
0000
E780
6180
6180
6180
6180
6380
3CC0
ENDCHAR
STARTCHAR 01DC
ENCODING 476
SWIDTH 1008 0
DWIDTH 14 0
BBX 10 12 3 -2
BITMAP
1800
0800
6700
6300
0000
E780
6180
6180
6180
6180
6380
3CC0
ENDCHAR
STARTCHAR 01F8
ENCODING 504
SWIDTH 1008 0
DWIDTH 14 0
BBX 10 12 2 -2
BITMAP
1800
E9C0
6480
7080
5880
5880
4C80
4680
4680
4380
4180
E180
ENDCHAR
STARTCHAR 01F9
ENCODING 505
SWIDTH 1008 0
DWIDTH 14 0
BBX 10 12 3 -2
BITMAP
1800
0800
0400
0000
EE00
7100
6180
6180
6180
6180
6180
F3C0
ENDCHAR
STARTCHAR 01FD
ENCODING 509
SWIDTH 1008 0
DWIDTH 14 0
BBX 12 12 1 -2
BITMAP
0300
0200
0400
0000
38C0
6720
4630
3FF0
4600
C610
CF10
76E0
ENDCHAR
STARTCHAR 0250
ENCODING 592
SWIDTH 1008 0
DWIDTH 14 0
BBX 9 8 2 2
BITMAP
CF00
7180
6180
6300
7C00
6300
2300
1E00
ENDCHAR
STARTCHAR 0251
ENCODING 593
SWIDTH 1008 0
DWIDTH 14 0
BBX 9 8 3 2
BITMAP
1B00
6700
C300
C300
C300
C300
6700
1980
ENDCHAR
STARTCHAR 0252
ENCODING 594
SWIDTH 1008 0
DWIDTH 14 0
BBX 9 8 2 2
BITMAP
CC00
7300
6180
6180
6180
6180
7300
6C00
ENDCHAR
STARTCHAR 0253
ENCODING 595
SWIDTH 1008 0
DWIDTH 14 0
BBX 9 11 3 -1
BITMAP
1E00
2300
6300
6000
6C00
7300
6180
6180
6180
7300
EC00
ENDCHAR
STARTCHAR 0254
ENCODING 596
SWIDTH 1008 0
DWIDTH 14 0
BBX 8 8 3 2
BITMAP
38
C6
83
03
03
83
C6
B8
ENDCHAR
STARTCHAR 0255
ENCODING 597
SWIDTH 1008 0
DWIDTH 14 0
BBX 8 10 3 2
BITMAP
1C
63
C1
C0
C2
C5
69
1E
10
20
ENDCHAR
STARTCHAR 0256
ENCODING 598
SWIDTH 1008 0
DWIDTH 14 0
BBX 10 13 3 -1
BITMAP
0700
0300
0300
1B00
6700
C300
C300
C300
C300
6700
1B00
0340
01C0
ENDCHAR
STARTCHAR 0257
ENCODING 599
SWIDTH 1008 0
DWIDTH 14 0
BBX 11 11 2 -1
BITMAP
01E0
0320
0300
1B00
6700
C300
C300
C300
C300
6700
1B80
ENDCHAR
STARTCHAR 0258
ENCODING 600
SWIDTH 1008 0
DWIDTH 14 0
BBX 9 8 3 2
BITMAP
3E00
4100
C180
FF80
0180
8180
C300
3C00
ENDCHAR
STARTCHAR 0259
ENCODING 601
SWIDTH 1008 0
DWIDTH 14 0
BBX 9 8 3 2
BITMAP
3C00
C300
8180
0180
FF80
C180
4100
3E00
ENDCHAR
STARTCHAR 025A
ENCODING 602
SWIDTH 1008 0
DWIDTH 14 0
BBX 11 8 3 2
BITMAP
3C40
CEC0
8720
1B00
2300
C300
6200
3C00
ENDCHAR
STARTCHAR 025C
ENCODING 604
SWIDTH 1008 0
DWIDTH 14 0
BBX 9 8 3 2
BITMAP
3E00
C380
0180
1F00
0180
8180
4300
3E00
ENDCHAR
STARTCHAR 025E
ENCODING 606
SWIDTH 1008 0
DWIDTH 14 0
BBX 9 8 3 2
BITMAP
3E00
4380
8180
9F00
8180
8180
4300
3E00
ENDCHAR
STARTCHAR 025F
ENCODING 607
SWIDTH 1008 0
DWIDTH 14 0
BBX 8 9 3 3
BITMAP
3F
0C
0C
3F
0C
0C
CC
C8
70
ENDCHAR
STARTCHAR 0260
ENCODING 608
SWIDTH 1008 0
DWIDTH 14 0
BBX 11 11 2 1
BITMAP
00E0
1D20
6300
C300
C300
C300
6700
1B00
C300
C200
7C00
ENDCHAR
STARTCHAR 0261
ENCODING 609
SWIDTH 1008 0
DWIDTH 14 0
BBX 8 10 3 2
BITMAP
1D
63
C3
C3
C3
67
1B
C3
C2
7C
ENDCHAR
STARTCHAR 0264
ENCODING 612
SWIDTH 1008 0
DWIDTH 14 0
BBX 9 8 3 2
BITMAP
F780
6300
3600
1C00
0800
1C00
1400
0800
ENDCHAR
STARTCHAR 0265
ENCODING 613
SWIDTH 1008 0
DWIDTH 14 0
BBX 10 11 3 -1
BITMAP
F180
6180
6180
6180
6180
6180
3380
1D80
0180
0180
01C0
ENDCHAR
STARTCHAR 0266
ENCODING 614
SWIDTH 1008 0
DWIDTH 14 0
BBX 10 11 3 -1
BITMAP
1E00
2300
6300
6000
6E00
7300
6180
6180
6180
6180
F3C0
ENDCHAR
STARTCHAR 0267
ENCODING 615
SWIDTH 1008 0
DWIDTH 14 0
BBX 9 13 3 -1
BITMAP
1E00
2300
6300
6000
6E00
7300
6180
6180
6180
6180
F180
0900
0E00
ENDCHAR
STARTCHAR 0268
ENCODING 616
SWIDTH 1008 0
DWIDTH 14 0
BBX 6 11 4 -1
BITMAP
10
38
10
00
F0
30
30
FC
30
30
FC
ENDCHAR
STARTCHAR 026C
ENCODING 620
SWIDTH 1008 0
DWIDTH 14 0
BBX 8 11 3 -1
BITMAP
78
18
18
78
98
98
98
7F
18
18
7E
ENDCHAR
STARTCHAR 026D
ENCODING 621
SWIDTH 1008 0
DWIDTH 14 0
BBX 7 13 4 -1
BITMAP
F0
30
30
30
30
30
30
30
30
30
30
32
1E
ENDCHAR
STARTCHAR 026E
ENCODING 622
SWIDTH 1008 0
DWIDTH 14 0
BBX 11 13 2 -1
BITMAP
F000
3000
3000
3FE0
30C0
3180
3180
3300
37C0
30E0
F8E0
18C0
0F80
ENDCHAR
STARTCHAR 026F
ENCODING 623
SWIDTH 1008 0
DWIDTH 14 0
BBX 12 8 1 2
BITMAP
EEF0
6660
6660
6660
6660
6660
66E0
3B70
ENDCHAR
STARTCHAR 0270
ENCODING 624
SWIDTH 1008 0
DWIDTH 14 0
BBX 12 10 1 2
BITMAP
EEF0
6660
6660
6660
6660
6660
66E0
3B60
0060
0070
ENDCHAR
STARTCHAR 0271
ENCODING 625
SWIDTH 1008 0
DWIDTH 14 0
BBX 11 10 1 2
BITMAP
EDC0
7660
6660
6660
6660
6660
6660
F660
0360
03C0
ENDCHAR
STARTCHAR 0272
ENCODING 626
SWIDTH 1008 0
DWIDTH 14 0
BBX 12 10 1 2
BITMAP
1D80
0E40
0C60
0C60
0C60
0C60
0C60
CCF0
C800
7000
ENDCHAR
STARTCHAR 0273
ENCODING 627
SWIDTH 1008 0
DWIDTH 14 0
BBX 11 10 2 2
BITMAP
EE00
7100
6180
6180
6180
6180
6180
F180
01A0
00E0
ENDCHAR
STARTCHAR 0275
ENCODING 629
SWIDTH 1008 0
DWIDTH 14 0
BBX 9 8 3 2
BITMAP
3E00
4100
C180
FF80
C180
C180
6300
1C00
ENDCHAR
STARTCHAR 0279
ENCODING 633
SWIDTH 1008 0
DWIDTH 14 0
BBX 8 8 3 2
BITMAP
0F
06
06
06
06
C6
CE
77
ENDCHAR
STARTCHAR 027A
ENCODING 634
SWIDTH 1008 0
DWIDTH 14 0
BBX 8 11 3 -1
BITMAP
0F
06
06
06
06
06
06
06
C6
CE
77
ENDCHAR
STARTCHAR 027B
ENCODING 635
SWIDTH 1008 0
DWIDTH 14 0
BBX 10 10 3 2
BITMAP
0F00
0600
0600
0600
0600
C600
CE00
7600
0640
03C0
ENDCHAR
STARTCHAR 027D
ENCODING 637
SWIDTH 1008 0
DWIDTH 14 0
BBX 8 10 3 2
BITMAP
EE
73
63
60
60
60
60
60
64
3C
ENDCHAR
STARTCHAR 027E
ENCODING 638
SWIDTH 1008 0
DWIDTH 14 0
BBX 7 8 4 2
BITMAP
1C
32
36
36
30
30
30
FC
ENDCHAR
STARTCHAR 0281
ENCODING 641
SWIDTH 1008 0
DWIDTH 14 0
BBX 9 8 3 2
BITMAP
E380
6580
6C00
7300
6180
6180
7300
EC00
ENDCHAR
STARTCHAR 0282
ENCODING 642
SWIDTH 1008 0
DWIDTH 14 0
BBX 8 10 3 2
BITMAP
7E
C2
E0
78
1E
87
C3
BE
80
60
ENDCHAR
STARTCHAR 0283
ENCODING 643
SWIDTH 1008 0
DWIDTH 14 0
BBX 10 14 2 -2
BITMAP
0780
0CC0
0CC0
0C00
0C00
0C00
0C00
0C00
0C00
0C00
0C00
CC00
CC00
7800
ENDCHAR
STARTCHAR 0284
ENCODING 644
SWIDTH 1008 0
DWIDTH 14 0
BBX 9 11 3 1
BITMAP
0700
0980
1980
1800
1800
1800
1800
7E00
1800
9800
F000
ENDCHAR
STARTCHAR 0288
ENCODING 648
SWIDTH 1008 0
DWIDTH 14 0
BBX 8 12 3 0
BITMAP
10
30
30
FF
30
30
30
30
30
30
32
1E
ENDCHAR
STARTCHAR 0289
ENCODING 649
SWIDTH 1008 0
DWIDTH 14 0
BBX 10 8 3 2
BITMAP
E780
6180
6180
FFC0
6180
6180
6380
3CC0
ENDCHAR
STARTCHAR 028A
ENCODING 650
SWIDTH 1008 0
DWIDTH 14 0
BBX 9 8 3 2
BITMAP
F780
9480
2200
6300
C180
C180
6300
3E00
ENDCHAR
STARTCHAR 028B
ENCODING 651
SWIDTH 1008 0
DWIDTH 14 0
BBX 9 8 3 2
BITMAP
E780
6180
6180
6180
6180
6100
6300
3C00
ENDCHAR
STARTCHAR 028C
ENCODING 652
SWIDTH 1008 0
DWIDTH 14 0
BBX 10 8 2 2
BITMAP
0C00
0C00
1600
1600
2300
2300
4180
E7C0
ENDCHAR
STARTCHAR 028D
ENCODING 653
SWIDTH 1008 0
DWIDTH 14 0
BBX 11 8 2 2
BITMAP
3300
3300
3300
3B80
5B80
4CC0
4CC0
EDE0
ENDCHAR
STARTCHAR 028E
ENCODING 654
SWIDTH 1008 0
DWIDTH 14 0
BBX 9 10 3 0
BITMAP
0700
0980
0980
1800
1C00
2C00
2600
4600
4300
EF80
ENDCHAR
STARTCHAR 0290
ENCODING 656
SWIDTH 1008 0
DWIDTH 14 0
BBX 10 10 3 2
BITMAP
FF00
8600
0C00
1800
3000
6000
C100
FF00
0140
00C0
ENDCHAR
STARTCHAR 0291
ENCODING 657
SWIDTH 1008 0
DWIDTH 14 0
BBX 8 10 3 2
BITMAP
FF
86
0C
18
32
65
C9
FF
10
20
ENDCHAR
STARTCHAR 0292
ENCODING 658
SWIDTH 1008 0
DWIDTH 14 0
BBX 8 10 3 2
BITMAP
FF
86
8C
0C
18
3E
07
C7
C6
7C
ENDCHAR
STARTCHAR 0294
ENCODING 660
SWIDTH 1008 0
DWIDTH 14 0
BBX 8 11 3 -1
BITMAP
3C
4E
83
C3
C3
1E
18
18
18
18
7E
ENDCHAR
STARTCHAR 0295
ENCODING 661
SWIDTH 1008 0
DWIDTH 14 0
BBX 8 11 3 -1
BITMAP
3C
72
C1
C3
C3
78
18
18
18
18
7E
ENDCHAR
STARTCHAR 0298
ENCODING 664
SWIDTH 1008 0
DWIDTH 14 0
BBX 10 10 2 0
BITMAP
3F00
6180
C0C0
8040
8C40
8C40
8040
C0C0
6180
3F00
ENDCHAR
STARTCHAR 029D
ENCODING 669
SWIDTH 1008 0
DWIDTH 14 0
BBX 7 13 3 -1
BITMAP
08
1C
08
00
7E
18
18
18
18
18
FE
98
70
ENDCHAR
STARTCHAR 02A1
ENCODING 673
SWIDTH 1008 0
DWIDTH 14 0
BBX 8 11 3 -1
BITMAP
3C
4E
83
C3
C3
1E
18
7E
18
18
7E
ENDCHAR
STARTCHAR 02A2
ENCODING 674
SWIDTH 1008 0
DWIDTH 14 0
BBX 8 11 3 -1
BITMAP
3C
72
C1
C3
C3
78
18
7E
18
18
7E
ENDCHAR
STARTCHAR 02C7
ENCODING 711
SWIDTH 1008 0
DWIDTH 14 0
BBX 7 4 4 -2
BITMAP
82
44
28
10
ENDCHAR
STARTCHAR 02C8
ENCODING 712
SWIDTH 1008 0
DWIDTH 14 0
BBX 1 4 7 -1
BITMAP
80
80
80
80
ENDCHAR
STARTCHAR 02CC
ENCODING 716
SWIDTH 1008 0
DWIDTH 14 0
BBX 1 4 7 7
BITMAP
80
80
80
80
ENDCHAR
STARTCHAR 02D0
ENCODING 720
SWIDTH 1008 0
DWIDTH 14 0
BBX 5 9 5 1
BITMAP
F8
70
20
20
00
20
20
70
F8
ENDCHAR
STARTCHAR 02D1
ENCODING 721
SWIDTH 1008 0
DWIDTH 14 0
BBX 5 4 5 1
BITMAP
F8
70
20
20
ENDCHAR
STARTCHAR 02D8
ENCODING 728
SWIDTH 1008 0
DWIDTH 14 0
BBX 6 4 4 -2
BITMAP
84
84
48
30
ENDCHAR
STARTCHAR 02D9
ENCODING 729
SWIDTH 1008 0
DWIDTH 14 0
BBX 2 2 6 -1
BITMAP
C0
C0
ENDCHAR
STARTCHAR 02DB
ENCODING 731
SWIDTH 1008 0
DWIDTH 14 0
BBX 3 5 8 6
BITMAP
40
80
80
60
60
ENDCHAR
STARTCHAR 02DD
ENCODING 733
SWIDTH 1008 0
DWIDTH 14 0
BBX 5 3 5 -1
BITMAP
28
50
A0
ENDCHAR
STARTCHAR 02DE
ENCODING 734
SWIDTH 1008 0
DWIDTH 14 0
BBX 6 4 3 4
BITMAP
E0
24
24
18
ENDCHAR
STARTCHAR 02E5
ENCODING 741
SWIDTH 1008 0
DWIDTH 14 0
BBX 8 14 0 -2
BITMAP
FF
01
01
01
01
01
01
01
01
01
01
01
01
01
ENDCHAR
STARTCHAR 02E6
ENCODING 742
SWIDTH 1008 0
DWIDTH 14 0
BBX 8 14 0 -2
BITMAP
01
01
01
FF
01
01
01
01
01
01
01
01
01
01
ENDCHAR
STARTCHAR 02E7
ENCODING 743
SWIDTH 1008 0
DWIDTH 14 0
BBX 8 14 0 -2
BITMAP
01
01
01
01
01
01
01
FF
01
01
01
01
01
01
ENDCHAR
STARTCHAR 02E8
ENCODING 744
SWIDTH 1008 0
DWIDTH 14 0
BBX 8 14 0 -2
BITMAP
01
01
01
01
01
01
01
01
01
01
FF
01
01
01
ENDCHAR
STARTCHAR 02E9
ENCODING 745
SWIDTH 1008 0
DWIDTH 14 0
BBX 8 14 0 -2
BITMAP
01
01
01
01
01
01
01
01
01
01
01
01
01
FF
ENDCHAR
STARTCHAR 0300
ENCODING 768
SWIDTH 1008 0
DWIDTH 14 0
BBX 4 3 5 -1
BITMAP
C0
60
10
ENDCHAR
STARTCHAR 0301
ENCODING 769
SWIDTH 1008 0
DWIDTH 14 0
BBX 4 3 6 -1
BITMAP
30
60
80
ENDCHAR
STARTCHAR 0302
ENCODING 770
SWIDTH 1008 0
DWIDTH 14 0
BBX 5 3 5 -1
BITMAP
20
50
88
ENDCHAR
STARTCHAR 0303
ENCODING 771
SWIDTH 1008 0
DWIDTH 14 0
BBX 6 2 4 -1
BITMAP
64
98
ENDCHAR
STARTCHAR 0304
ENCODING 772
SWIDTH 1008 0
DWIDTH 14 0
BBX 5 1 5 -1
BITMAP
F8
ENDCHAR
STARTCHAR 0306
ENCODING 774
SWIDTH 1008 0
DWIDTH 14 0
BBX 6 4 4 -1
BITMAP
84
84
48
30
ENDCHAR
STARTCHAR 0308
ENCODING 776
SWIDTH 1008 0
DWIDTH 14 0
BBX 6 2 4 -2
BITMAP
CC
CC
ENDCHAR
STARTCHAR 030B
ENCODING 779
SWIDTH 1008 0
DWIDTH 14 0
BBX 5 3 5 -1
BITMAP
28
50
A0
ENDCHAR
STARTCHAR 030C
ENCODING 780
SWIDTH 1008 0
DWIDTH 14 0
BBX 5 3 5 -1
BITMAP
88
50
20
ENDCHAR
STARTCHAR 030F
ENCODING 783
SWIDTH 1008 0
DWIDTH 14 0
BBX 5 3 5 -1
BITMAP
A0
50
28
ENDCHAR
STARTCHAR 0318
ENCODING 792
SWIDTH 1008 0
DWIDTH 14 0
BBX 4 5 4 7
BITMAP
10
10
F0
10
10
ENDCHAR
STARTCHAR 0319
ENCODING 793
SWIDTH 1008 0
DWIDTH 14 0
BBX 4 5 7 7
BITMAP
80
80
F0
80
80
ENDCHAR
STARTCHAR 031A
ENCODING 794
SWIDTH 1008 0
DWIDTH 14 0
BBX 3 3 8 -1
BITMAP
E0
20
20
ENDCHAR
STARTCHAR 031C
ENCODING 796
SWIDTH 1008 0
DWIDTH 14 0
BBX 4 4 5 8
BITMAP
70
80
80
70
ENDCHAR
STARTCHAR 031D
ENCODING 797
SWIDTH 1008 0
DWIDTH 14 0
BBX 7 3 4 7
BITMAP
10
10
FE
ENDCHAR
STARTCHAR 031E
ENCODING 798
SWIDTH 1008 0
DWIDTH 14 0
BBX 7 3 4 9
BITMAP
FE
10
10
ENDCHAR
STARTCHAR 031F
ENCODING 799
SWIDTH 1008 0
DWIDTH 14 0
BBX 7 5 4 7
BITMAP
10
10
FE
10
10
ENDCHAR
STARTCHAR 0320
ENCODING 800
SWIDTH 1008 0
DWIDTH 14 0
BBX 7 1 4 9
BITMAP
FE
ENDCHAR
STARTCHAR 0324
ENCODING 804
SWIDTH 1008 0
DWIDTH 14 0
BBX 6 2 4 10
BITMAP
CC
CC
ENDCHAR
STARTCHAR 0325
ENCODING 805
SWIDTH 1008 0
DWIDTH 14 0
BBX 5 4 5 8
BITMAP
70
88
88
70
ENDCHAR
STARTCHAR 0329
ENCODING 809
SWIDTH 1008 0
DWIDTH 14 0
BBX 1 4 7 8
BITMAP
80
80
80
80
ENDCHAR
STARTCHAR 032A
ENCODING 810
SWIDTH 1008 0
DWIDTH 14 0
BBX 7 3 4 8
BITMAP
FE
82
82
ENDCHAR
STARTCHAR 032C
ENCODING 812
SWIDTH 1008 0
DWIDTH 14 0
BBX 5 3 5 9
BITMAP
88
50
20
ENDCHAR
STARTCHAR 032F
ENCODING 815
SWIDTH 1008 0
DWIDTH 14 0
BBX 6 4 4 7
BITMAP
30
48
84
84
ENDCHAR
STARTCHAR 0330
ENCODING 816
SWIDTH 1008 0
DWIDTH 14 0
BBX 6 2 4 10
BITMAP
64
98
ENDCHAR
STARTCHAR 0334
ENCODING 820
SWIDTH 1008 0
DWIDTH 14 0
BBX 6 2 4 4
BITMAP
64
98
ENDCHAR
STARTCHAR 0339
ENCODING 825
SWIDTH 1008 0
DWIDTH 14 0
BBX 4 4 6 8
BITMAP
E0
10
10
E0
ENDCHAR
STARTCHAR 033A
ENCODING 826
SWIDTH 1008 0
DWIDTH 14 0
BBX 7 3 4 8
BITMAP
82
82
FE
ENDCHAR
STARTCHAR 033B
ENCODING 827
SWIDTH 1008 0
DWIDTH 14 0
BBX 7 3 4 8
BITMAP
FE
82
FE
ENDCHAR
STARTCHAR 033C
ENCODING 828
SWIDTH 1008 0
DWIDTH 14 0
BBX 8 2 3 10
BITMAP
66
99
ENDCHAR
STARTCHAR 033D
ENCODING 829
SWIDTH 1008 0
DWIDTH 14 0
BBX 4 3 5 -2
BITMAP
90
60
90
ENDCHAR
STARTCHAR 0361
ENCODING 865
SWIDTH 1008 0
DWIDTH 14 0
BBX 10 3 2 -1
BITMAP
1E00
6180
8040
ENDCHAR
STARTCHAR 0391
ENCODING 913
SWIDTH 1008 0
DWIDTH 14 0
BBX 12 11 1 -1
BITMAP
0200
0200
0700
0700
0980
0980
10C0
1FC0
2060
2060
F0F0
ENDCHAR
STARTCHAR 0392
ENCODING 914
SWIDTH 1008 0
DWIDTH 14 0
BBX 11 11 2 -1
BITMAP
FE00
3180
30C0
30C0
3180
3F00
30C0
3060
3060
30C0
FF00
ENDCHAR
STARTCHAR 0393
ENCODING 915
SWIDTH 1008 0
DWIDTH 14 0
BBX 10 11 2 -1
BITMAP
FF80
3180
3040
3000
3000
3000
3000
3000
3000
3000
FC00
ENDCHAR
STARTCHAR 0394
ENCODING 916
SWIDTH 1008 0
DWIDTH 14 0
BBX 11 11 2 -1
BITMAP
0400
0400
0E00
0E00
1300
1300
2180
2180
40C0
40C0
FFE0
ENDCHAR
STARTCHAR 0395
ENCODING 917
SWIDTH 1008 0
DWIDTH 14 0
BBX 11 11 2 -1
BITMAP
FF80
3080
3040
3000
3100
3F00
3100
3000
3020
3040
FFC0
ENDCHAR
STARTCHAR 0396
ENCODING 918
SWIDTH 1008 0
DWIDTH 14 0
BBX 11 11 2 -1
BITMAP
7FC0
4180
8300
0600
0600
0C00
1800
1800
3020
6040
FFC0
ENDCHAR
STARTCHAR 0397
ENCODING 919
SWIDTH 1008 0
DWIDTH 14 0
BBX 11 11 2 -1
BITMAP
F1E0
60C0
60C0
60C0
60C0
7FC0
60C0
60C0
60C0
60C0
F1E0
ENDCHAR
STARTCHAR 0398
ENCODING 920
SWIDTH 1008 0
DWIDTH 14 0
BBX 11 11 2 -1
BITMAP
0E00
3180
60C0
C060
D160
DF60
D160
C060
60C0
3180
0E00
ENDCHAR
STARTCHAR 0399
ENCODING 921
SWIDTH 1008 0
DWIDTH 14 0
BBX 6 11 4 -1
BITMAP
FC
30
30
30
30
30
30
30
30
30
FC
ENDCHAR
STARTCHAR 039A
ENCODING 922
SWIDTH 1008 0
DWIDTH 14 0
BBX 11 11 2 -1
BITMAP
F1E0
6080
6100
6200
6600
6B00
7300
6180
6180
60C0
F1E0
ENDCHAR
STARTCHAR 039B
ENCODING 923
SWIDTH 1008 0
DWIDTH 14 0
BBX 11 11 2 -1
BITMAP
0400
0400
0E00
0E00
1300
1300
2180
2180
40C0
40C0
E1E0
ENDCHAR
STARTCHAR 039C
ENCODING 924
SWIDTH 1008 0
DWIDTH 14 0
BBX 11 11 2 -1
BITMAP
E0E0
60C0
71C0
71C0
5AC0
5AC0
5CC0
4CC0
48C0
40C0
E1E0
ENDCHAR
STARTCHAR 039D
ENCODING 925
SWIDTH 1008 0
DWIDTH 14 0
BBX 10 11 2 -1
BITMAP
E1C0
6080
7080
5880
5880
4C80
4680
4680
4380
4180
E180
ENDCHAR
STARTCHAR 039E
ENCODING 926
SWIDTH 1008 0
DWIDTH 14 0
BBX 10 12 2 -1
BITMAP
7FC0
7F80
8080
0000
4080
7F80
7F80
4080
0000
4040
7F80
FF80
ENDCHAR
STARTCHAR 039F
ENCODING 927
SWIDTH 1008 0
DWIDTH 14 0
BBX 11 11 2 -1
BITMAP
0E00
3180
60C0
C060
C060
C060
C060
C060
60C0
3180
0E00
ENDCHAR
STARTCHAR 03A0
ENCODING 928
SWIDTH 1008 0
DWIDTH 14 0
BBX 11 11 2 -1
BITMAP
FFE0
60C0
60C0
60C0
60C0
60C0
60C0
60C0
60C0
60C0
F1E0
ENDCHAR
STARTCHAR 03A1
ENCODING 929
SWIDTH 1008 0
DWIDTH 14 0
BBX 10 11 2 -1
BITMAP
FE00
3180
30C0
30C0
3180
3E00
3000
3000
3000
3000
FC00
ENDCHAR
STARTCHAR 03A3
ENCODING 931
SWIDTH 1008 0
DWIDTH 14 0
BBX 10 11 2 -1
BITMAP
FF80
6080
3040
1800
0C00
0600
0400
0800
1040
2080
FF80
ENDCHAR
STARTCHAR 03A4
ENCODING 932
SWIDTH 1008 0
DWIDTH 14 0
BBX 12 11 1 -1
BITMAP
7FE0
4620
8610
0600
0600
0600
0600
0600
0600
0600
1F80
ENDCHAR
STARTCHAR 03A5
ENCODING 933
SWIDTH 1008 0
DWIDTH 14 0
BBX 10 11 2 -1
BITMAP
3300
5E80
8C40
8C40
0C00
0C00
0C00
0C00
0C00
0C00
3F00
ENDCHAR
STARTCHAR 03A6
ENCODING 934
SWIDTH 1008 0
DWIDTH 14 0
BBX 10 11 2 -1
BITMAP
3F00
0C00
1E00
6D80
CCC0
CCC0
CCC0
6D80
1E00
0C00
3F00
ENDCHAR
STARTCHAR 03A7
ENCODING 935
SWIDTH 1008 0
DWIDTH 14 0
BBX 11 11 2 -1
BITMAP
F1E0
6080
3100
1A00
0C00
0C00
0E00
1300
2180
40C0
E1E0
ENDCHAR
STARTCHAR 03A8
ENCODING 936
SWIDTH 1008 0
DWIDTH 14 0
BBX 12 11 1 -1
BITMAP
1F80
0600
C630
6660
6660
6660
2640
1F80
0600
0600
1F80
ENDCHAR
STARTCHAR 03A9
ENCODING 937
SWIDTH 1008 0
DWIDTH 14 0
BBX 11 11 2 -1
BITMAP
0E00
3180
60C0
C060
C060
C060
60C0
2080
1100
8A20
FBE0
ENDCHAR
STARTCHAR 03B1
ENCODING 945
SWIDTH 1008 0
DWIDTH 14 0
BBX 9 9 3 1
BITMAP
0100
3900
6500
C300
8300
8200
8600
CA00
7180
ENDCHAR
STARTCHAR 03B2
ENCODING 946
SWIDTH 1008 0
DWIDTH 14 0
BBX 9 13 3 -1
BITMAP
0700
0880
1080
1080
2100
2E00
2100
6100
4100
6300
DE00
8000
8000
ENDCHAR
STARTCHAR 03B3
ENCODING 947
SWIDTH 1008 0
DWIDTH 14 0
BBX 8 9 4 2
BITMAP
63
94
18
10
10
30
30
30
20
ENDCHAR
STARTCHAR 03B4
ENCODING 948
SWIDTH 1008 0
DWIDTH 14 0
BBX 8 11 4 -1
BITMAP
38
4E
41
20
38
4C
C4
84
8C
98
70
ENDCHAR
STARTCHAR 03B5
ENCODING 949
SWIDTH 1008 0
DWIDTH 14 0
BBX 6 8 4 2
BITMAP
38
64
40
38
60
C0
C4
78
ENDCHAR
STARTCHAR 03B6
ENCODING 950
SWIDTH 1008 0
DWIDTH 14 0
BBX 7 13 4 -1
BITMAP
40
CE
7C
20
40
40
80
80
E0
78
0C
64
38
ENDCHAR
STARTCHAR 03B7
ENCODING 951
SWIDTH 1008 0
DWIDTH 14 0
BBX 8 10 3 2
BITMAP
66
B9
11
21
21
62
42
46
04
04
ENDCHAR
STARTCHAR 03B8
ENCODING 952
SWIDTH 1008 0
DWIDTH 14 0
BBX 8 11 4 -1
BITMAP
0E
11
21
61
43
FF
C2
86
84
88
70
ENDCHAR
STARTCHAR 03B9
ENCODING 953
SWIDTH 1008 0
DWIDTH 14 0
BBX 4 8 5 2
BITMAP
20
60
40
C0
80
80
D0
60
ENDCHAR
STARTCHAR 03BA
ENCODING 954
SWIDTH 1008 0
DWIDTH 14 0
BBX 9 8 3 2
BITMAP
2380
2600
6800
7000
4800
C800
8D00
8600
ENDCHAR
STARTCHAR 03BB
ENCODING 955
SWIDTH 1008 0
DWIDTH 14 0
BBX 8 11 4 -1
BITMAP
38
0C
04
0C
14
14
24
64
44
C6
83
ENDCHAR
STARTCHAR 03BC
ENCODING 956
SWIDTH 1008 0
DWIDTH 14 0
BBX 10 10 3 2
BITMAP
2100
2100
2300
6200
4200
4200
6740
D980
8000
8000
ENDCHAR
STARTCHAR 03BD
ENCODING 957
SWIDTH 1008 0
DWIDTH 14 0
BBX 7 8 4 2
BITMAP
82
C2
44
44
48
70
E0
80
ENDCHAR
STARTCHAR 03BE
ENCODING 958
SWIDTH 1008 0
DWIDTH 14 0
BBX 7 14 4 -2
BITMAP
30
46
3E
20
40
40
3C
4C
80
80
E0
78
0C
78
ENDCHAR
STARTCHAR 03BF
ENCODING 959
SWIDTH 1008 0
DWIDTH 14 0
BBX 8 8 4 2
BITMAP
0C
32
61
C3
C3
86
4C
30
ENDCHAR
STARTCHAR 03C0
ENCODING 960
SWIDTH 1008 0
DWIDTH 14 0
BBX 11 9 2 1
BITMAP
3020
7FC0
8900
1100
1200
2200
2200
6300
C180
ENDCHAR
STARTCHAR 03C1
ENCODING 961
SWIDTH 1008 0
DWIDTH 14 0
BBX 9 10 3 2
BITMAP
0F00
1880
3080
2080
6180
6100
6300
DC00
8000
8000
ENDCHAR
STARTCHAR 03C2
ENCODING 962
SWIDTH 1008 0
DWIDTH 14 0
BBX 8 11 4 1
BITMAP
1C
3A
61
C3
83
C6
40
20
10
48
30
ENDCHAR
STARTCHAR 03C3
ENCODING 963
SWIDTH 1008 0
DWIDTH 14 0
BBX 9 8 3 2
BITMAP
0F80
3C00
6200
C200
8200
8600
8C00
7800
ENDCHAR
STARTCHAR 03C4
ENCODING 964
SWIDTH 1008 0
DWIDTH 14 0
BBX 9 8 3 2
BITMAP
3180
7F00
8800
1800
1000
2000
3400
1800
ENDCHAR
STARTCHAR 03C5
ENCODING 965
SWIDTH 1008 0
DWIDTH 14 0
BBX 7 8 4 2
BITMAP
44
46
C2
C2
86
84
8C
78
ENDCHAR
STARTCHAR 03C6
ENCODING 966
SWIDTH 1008 0
DWIDTH 14 0
BBX 10 13 2 -1
BITMAP
0200
0200
0200
0E00
3700
6480
C4C0
C8C0
4980
3B00
1C00
1000
1000
ENDCHAR
STARTCHAR 03C7
ENCODING 967
SWIDTH 1008 0
DWIDTH 14 0
BBX 10 13 2 -1
BITMAP
1840
2CC0
0580
0500
0600
0400
0C00
1C00
1400
2400
6400
C680
8300
ENDCHAR
STARTCHAR 03C8
ENCODING 968
SWIDTH 1008 0
DWIDTH 14 0
BBX 11 13 1 -1
BITMAP
0100
0100
0100
6340
B260
1220
1220
2460
24C0
2580
1E00
0800
0800
ENDCHAR
STARTCHAR 03C9
ENCODING 969
SWIDTH 1008 0
DWIDTH 14 0
BBX 10 8 2 2
BITMAP
2080
4040
C440
8C40
88C0
8880
D980
6600
ENDCHAR
STARTCHAR 0401
ENCODING 1025
SWIDTH 1008 0
DWIDTH 14 0
BBX 11 12 2 -2
BITMAP
3300
3300
FF80
3040
3000
3100
3F00
3100
3000
3020
3040
FFC0
ENDCHAR
STARTCHAR 0410
ENCODING 1040
SWIDTH 1008 0
DWIDTH 14 0
BBX 12 11 1 -1
BITMAP
0200
0200
0700
0700
0980
0980
10C0
1FC0
2060
2060
F0F0
ENDCHAR
STARTCHAR 0411
ENCODING 1041
SWIDTH 1008 0
DWIDTH 14 0
BBX 10 12 2 -1
BITMAP
FF80
3080
3040
3000
3000
3E00
3180
30C0
30C0
30C0
3180
FE00
ENDCHAR
STARTCHAR 0412
ENCODING 1042
SWIDTH 1008 0
DWIDTH 14 0
BBX 11 11 2 -1
BITMAP
FE00
3180
30C0
30C0
3180
3F00
30C0
3060
3060
30C0
FF00
ENDCHAR
STARTCHAR 0413
ENCODING 1043
SWIDTH 1008 0
DWIDTH 14 0
BBX 10 11 2 -1
BITMAP
FF80
3180
3040
3000
3000
3000
3000
3000
3000
3000
FC00
ENDCHAR
STARTCHAR 0414
ENCODING 1044
SWIDTH 1008 0
DWIDTH 14 0
BBX 11 13 2 -1
BITMAP
3FC0
1180
1180
1180
1180
1180
1180
1180
2180
2180
7FE0
C060
8020
ENDCHAR
STARTCHAR 0415
ENCODING 1045
SWIDTH 1008 0
DWIDTH 14 0
BBX 11 11 2 -1
BITMAP
FF80
3080
3040
3000
3100
3F00
3100
3000
3020
3040
FFC0
ENDCHAR
STARTCHAR 0416
ENCODING 1046
SWIDTH 1008 0
DWIDTH 14 0
BBX 12 11 1 -1
BITMAP
CF30
E670
2640
2640
2640
1F80
1680
2640
6660
4620
EF70
ENDCHAR
STARTCHAR 0417
ENCODING 1047
SWIDTH 1008 0
DWIDTH 14 0
BBX 9 11 3 -1
BITMAP
3C00
E300
8180
0180
0300
1E00
0300
0180
8180
E300
3C00
ENDCHAR
STARTCHAR 0418
ENCODING 1048
SWIDTH 1008 0
DWIDTH 14 0
BBX 11 11 2 -1
BITMAP
F1E0
60C0
60C0
61C0
62C0
64C0
68C0
70C0
60C0
60C0
F1E0
ENDCHAR
STARTCHAR 0419
ENCODING 1049
SWIDTH 1008 0
DWIDTH 14 0
BBX 11 12 2 -2
BITMAP
1B00
0E00
F1E0
60C0
61C0
62C0
64C0
68C0
70C0
60C0
60C0
F1E0
ENDCHAR
STARTCHAR 041A
ENCODING 1050
SWIDTH 1008 0
DWIDTH 14 0
BBX 11 11 2 -1
BITMAP
F0E0
6160
6200
6200
6400
7C00
6600
6300
6180
60C0
F1E0
ENDCHAR
STARTCHAR 041B
ENCODING 1051
SWIDTH 1008 0
DWIDTH 14 0
BBX 11 11 2 -1
BITMAP
1FE0
08C0
08C0
08C0
08C0
08C0
08C0
08C0
D0C0
D0C0
61E0
ENDCHAR
STARTCHAR 041C
ENCODING 1052
SWIDTH 1008 0
DWIDTH 14 0
BBX 12 11 1 -1
BITMAP
70E0
30C0
30C0
39C0
39C0
2EC0
4C60
4460
4460
4060
E0F0
ENDCHAR
STARTCHAR 041D
ENCODING 1053
SWIDTH 1008 0
DWIDTH 14 0
BBX 11 11 2 -1
BITMAP
F1E0
60C0
60C0
60C0
60C0
7FC0
60C0
60C0
60C0
60C0
F1E0
ENDCHAR
STARTCHAR 041E
ENCODING 1054
SWIDTH 1008 0
DWIDTH 14 0
BBX 11 11 2 -1
BITMAP
0E00
3180
60C0
C060
C060
C060
C060
C060
60C0
3180
0E00
ENDCHAR
STARTCHAR 041F
ENCODING 1055
SWIDTH 1008 0
DWIDTH 14 0
BBX 11 11 2 -1
BITMAP
FFE0
60C0
60C0
60C0
60C0
60C0
60C0
60C0
60C0
60C0
F1E0
ENDCHAR
STARTCHAR 0420
ENCODING 1056
SWIDTH 1008 0
DWIDTH 14 0
BBX 10 11 2 -1
BITMAP
FE00
3180
30C0
30C0
3180
3E00
3000
3000
3000
3000
FC00
ENDCHAR
STARTCHAR 0421
ENCODING 1057
SWIDTH 1008 0
DWIDTH 14 0
BBX 10 11 2 -1
BITMAP
0F40
30C0
6040
C040
C000
C000
C000
C000
6040
30C0
0F00
ENDCHAR
STARTCHAR 0422
ENCODING 1058
SWIDTH 1008 0
DWIDTH 14 0
BBX 12 11 1 -1
BITMAP
7FE0
4620
8610
0600
0600
0600
0600
0600
0600
0600
1F80
ENDCHAR
STARTCHAR 0423
ENCODING 1059
SWIDTH 1008 0
DWIDTH 14 0
BBX 11 13 2 -1
BITMAP
F1E0
6040
6040
3080
3080
1900
1900
0E00
0E00
0400
6400
6800
3000
ENDCHAR
STARTCHAR 0424
ENCODING 1060
SWIDTH 1008 0
DWIDTH 14 0
BBX 10 11 2 -1
BITMAP
3F00
0C00
1E00
6D80
CCC0
CCC0
CCC0
6D80
1E00
0C00
3F00
ENDCHAR
STARTCHAR 0425
ENCODING 1061
SWIDTH 1008 0
DWIDTH 14 0
BBX 11 11 2 -1
BITMAP
F1E0
6080
3100
1A00
0C00
0C00
0E00
1300
2180
40C0
E1E0
ENDCHAR
STARTCHAR 0426
ENCODING 1062
SWIDTH 1008 0
DWIDTH 14 0
BBX 11 13 2 -1
BITMAP
F1E0
60C0
60C0
60C0
60C0
60C0
60C0
60C0
60C0
60C0
FFE0
0060
0020
ENDCHAR
STARTCHAR 0427
ENCODING 1063
SWIDTH 1008 0
DWIDTH 14 0
BBX 10 11 2 -1
BITMAP
F3C0
6180
6180
6180
6180
6180
3F80
0180
0180
0180
07C0
ENDCHAR
STARTCHAR 0428
ENCODING 1064
SWIDTH 1008 0
DWIDTH 14 0
BBX 12 11 1 -1
BITMAP
EF70
6660
6660
6660
6660
6660
6660
6660
6660
6660
FFF0
ENDCHAR
STARTCHAR 0429
ENCODING 1065
SWIDTH 1008 0
DWIDTH 14 0
BBX 12 13 1 -1
BITMAP
EF70
6660
6660
6660
6660
6660
6660
6660
6660
6660
FFF0
0030
0010
ENDCHAR
STARTCHAR 042A
ENCODING 1066
SWIDTH 1008 0
DWIDTH 14 0
BBX 12 11 1 -1
BITMAP
7E00
4C00
8C00
0C00
0FC0
0C60
0C30
0C30
0C30
0C60
3F80
ENDCHAR
STARTCHAR 042B
ENCODING 1067
SWIDTH 1008 0
DWIDTH 14 0
BBX 11 11 2 -1
BITMAP
F1E0
60C0
60C0
60C0
78C0
66C0
63C0
63C0
63C0
66C0
F9E0
ENDCHAR
STARTCHAR 042C
ENCODING 1068
SWIDTH 1008 0
DWIDTH 14 0
BBX 10 11 2 -1
BITMAP
FC00
3000
3000
3000
3E00
3180
30C0
30C0
30C0
3180
FE00
ENDCHAR
STARTCHAR 042D
ENCODING 1069
SWIDTH 1008 0
DWIDTH 14 0
BBX 10 11 3 -1
BITMAP
3C00
E300
8180
0080
30C0
5DC0
06C0
0080
8180
E300
3C00
ENDCHAR
STARTCHAR 042E
ENCODING 1070
SWIDTH 1008 0
DWIDTH 14 0
BBX 12 11 1 -1
BITMAP
F180
6660
6420
6C30
6C30
7C30
6C30
6C30
6420
6660
F180
ENDCHAR
STARTCHAR 042F
ENCODING 1071
SWIDTH 1008 0
DWIDTH 14 0
BBX 11 11 2 -1
BITMAP
0FE0
30C0
60C0
60C0
60C0
30C0
1FC0
0CC0
18C0
30C0
C1E0
ENDCHAR
STARTCHAR 0430
ENCODING 1072
SWIDTH 1008 0
DWIDTH 14 0
BBX 9 8 3 2
BITMAP
3C00
6200
6300
1F00
6300
C300
C700
7980
ENDCHAR
STARTCHAR 0431
ENCODING 1073
SWIDTH 1008 0
DWIDTH 14 0
BBX 8 12 4 -2
BITMAP
01
0E
3C
40
58
E6
C3
C3
C3
C3
66
18
ENDCHAR
STARTCHAR 0432
ENCODING 1074
SWIDTH 1008 0
DWIDTH 14 0
BBX 9 8 3 2
BITMAP
FE00
6300
6300
7E00
6100
6180
6180
FF00
ENDCHAR
STARTCHAR 0433
ENCODING 1075
SWIDTH 1008 0
DWIDTH 14 0
BBX 9 8 3 2
BITMAP
FF00
6100
6080
6000
6000
6000
6000
F800
ENDCHAR
STARTCHAR 0434
ENCODING 1076
SWIDTH 1008 0
DWIDTH 14 0
BBX 10 9 2 2
BITMAP
3FC0
1180
1180
1180
1180
1180
2180
FF80
8040
ENDCHAR
STARTCHAR 0435
ENCODING 1077
SWIDTH 1008 0
DWIDTH 14 0
BBX 9 8 3 2
BITMAP
3E00
4100
C180
FF80
C000
C080
6180
1E00
ENDCHAR
STARTCHAR 0436
ENCODING 1078
SWIDTH 1008 0
DWIDTH 14 0
BBX 12 8 1 2
BITMAP
CF30
E670
1680
1F80
1680
2640
6660
CF30
ENDCHAR
STARTCHAR 0437
ENCODING 1079
SWIDTH 1008 0
DWIDTH 14 0
BBX 8 8 3 2
BITMAP
3C
C3
83
1E
03
83
C3
3C
ENDCHAR
STARTCHAR 0438
ENCODING 1080
SWIDTH 1008 0
DWIDTH 14 0
BBX 10 8 2 2
BITMAP
F3C0
6180
6380
6580
6980
7180
6180
F3C0
ENDCHAR
STARTCHAR 0439
ENCODING 1081
SWIDTH 1008 0
DWIDTH 14 0
BBX 10 11 2 -1
BITMAP
1B00
0E00
0000
F3C0
6180
6380
6580
6980
7180
6180
F3C0
ENDCHAR
STARTCHAR 043A
ENCODING 1082
SWIDTH 1008 0
DWIDTH 14 0
BBX 10 8 2 2
BITMAP
F180
6380
6400
7C00
6600
6300
6180
F1C0
ENDCHAR
STARTCHAR 043B
ENCODING 1083
SWIDTH 1008 0
DWIDTH 14 0
BBX 10 8 2 2
BITMAP
1FC0
0980
0980
0980
0980
D180
D180
63C0
ENDCHAR
STARTCHAR 043C
ENCODING 1084
SWIDTH 1008 0
DWIDTH 14 0
BBX 11 8 2 2
BITMAP
E0E0
71C0
71C0
5AC0
5AC0
4CC0
4CC0
E1E0
ENDCHAR
STARTCHAR 043D
ENCODING 1085
SWIDTH 1008 0
DWIDTH 14 0
BBX 10 8 2 2
BITMAP
F3C0
6180
6180
7F80
6180
6180
6180
F3C0
ENDCHAR
STARTCHAR 043E
ENCODING 1086
SWIDTH 1008 0
DWIDTH 14 0
BBX 9 8 3 2
BITMAP
1C00
6300
C180
C180
C180
C180
6300
1C00
ENDCHAR
STARTCHAR 043F
ENCODING 1087
SWIDTH 1008 0
DWIDTH 14 0
BBX 10 8 2 2
BITMAP
FFC0
6180
6180
6180
6180
6180
6180
F3C0
ENDCHAR
STARTCHAR 0440
ENCODING 1088
SWIDTH 1008 0
DWIDTH 14 0
BBX 9 10 3 2
BITMAP
EE00
7300
6180
6180
6180
6180
7300
6E00
6000
F000
ENDCHAR
STARTCHAR 0441
ENCODING 1089
SWIDTH 1008 0
DWIDTH 14 0
BBX 8 8 3 2
BITMAP
1C
63
C1
C0
C0
C1
63
1C
ENDCHAR
STARTCHAR 0442
ENCODING 1090
SWIDTH 1008 0
DWIDTH 14 0
BBX 10 8 2 2
BITMAP
7F80
4C80
8C40
0C00
0C00
0C00
0C00
1E00
ENDCHAR
STARTCHAR 0443
ENCODING 1091
SWIDTH 1008 0
DWIDTH 14 0
BBX 9 10 3 2
BITMAP
FB80
6100
3100
3200
1A00
1C00
0C00
C800
C800
7000
ENDCHAR
STARTCHAR 0444
ENCODING 1092
SWIDTH 1008 0
DWIDTH 14 0
BBX 12 13 1 -1
BITMAP
0200
0600
0600
36C0
6F60
C630
C630
C630
C630
6F60
36C0
0600
0F00
ENDCHAR
STARTCHAR 0445
ENCODING 1093
SWIDTH 1008 0
DWIDTH 14 0
BBX 9 8 3 2
BITMAP
F380
6100
3200
1C00
1C00
2600
4300
E780
ENDCHAR
STARTCHAR 0446
ENCODING 1094
SWIDTH 1008 0
DWIDTH 14 0
BBX 10 10 2 2
BITMAP
F3C0
6180
6180
6180
6180
6180
6180
7FC0
00C0
0040
ENDCHAR
STARTCHAR 0447
ENCODING 1095
SWIDTH 1008 0
DWIDTH 14 0
BBX 10 8 2 2
BITMAP
F3C0
6180
6180
6180
3F80
0180
0180
03C0
ENDCHAR
STARTCHAR 0448
ENCODING 1096
SWIDTH 1008 0
DWIDTH 14 0
BBX 12 8 1 2
BITMAP
EEF0
6660
6660
6660
6660
6660
6660
FFF0
ENDCHAR
STARTCHAR 0449
ENCODING 1097
SWIDTH 1008 0
DWIDTH 14 0
BBX 12 10 1 2
BITMAP
EEF0
6660
6660
6660
6660
6660
6660
FFF0
0030
0010
ENDCHAR
STARTCHAR 044A
ENCODING 1098
SWIDTH 1008 0
DWIDTH 14 0
BBX 11 8 1 2
BITMAP
7E00
4C00
8C00
0FC0
0C60
0C60
0C60
1FC0
ENDCHAR
STARTCHAR 044B
ENCODING 1099
SWIDTH 1008 0
DWIDTH 14 0
BBX 11 8 2 2
BITMAP
F1E0
60C0
60C0
7CC0
66C0
66C0
66C0
FDE0
ENDCHAR
STARTCHAR 044C
ENCODING 1100
SWIDTH 1008 0
DWIDTH 14 0
BBX 9 8 3 2
BITMAP
F000
6000
6000
7F00
6180
6180
6180
FF00
ENDCHAR
STARTCHAR 044D
ENCODING 1101
SWIDTH 1008 0
DWIDTH 14 0
BBX 9 8 3 2
BITMAP
3C00
C300
8180
1B80
2D80
8180
C300
3C00
ENDCHAR
STARTCHAR 044E
ENCODING 1102
SWIDTH 1008 0
DWIDTH 14 0
BBX 11 8 2 2
BITMAP
F380
6440
6C60
7C60
6C60
6C60
6440
F380
ENDCHAR
STARTCHAR 044F
ENCODING 1103
SWIDTH 1008 0
DWIDTH 14 0
BBX 9 8 3 2
BITMAP
3F80
4300
C300
C300
7F00
3300
6300
8780
ENDCHAR
STARTCHAR 0451
ENCODING 1105
SWIDTH 1008 0
DWIDTH 14 0
BBX 9 11 3 -1
BITMAP
3300
3300
0000
3E00
4100
C180
FF80
C000
C080
6180
1E00
ENDCHAR
STARTCHAR 1E3E
ENCODING 7742
SWIDTH 1008 0
DWIDTH 14 0
BBX 11 12 2 -2
BITMAP
0600
E4E0
68C0
71C0
71C0
5AC0
5AC0
5CC0
4CC0
48C0
40C0
E1E0
ENDCHAR
STARTCHAR 1E3F
ENCODING 7743
SWIDTH 1008 0
DWIDTH 14 0
BBX 12 12 1 -2
BITMAP
0600
0400
0800
0000
EDC0
7660
6660
6660
6660
6660
6660
F770
ENDCHAR
STARTCHAR 1F70
ENCODING 8048
SWIDTH 1008 0
DWIDTH 14 0
BBX 9 12 3 -2
BITMAP
1800
0800
0400
0000
1B00
6700
C300
C300
C300
C300
6700
1980
ENDCHAR
STARTCHAR 1F71
ENCODING 8049
SWIDTH 1008 0
DWIDTH 14 0
BBX 9 12 3 -2
BITMAP
0C00
0800
1000
0000
1B00
6700
C300
C300
C300
C300
6700
1980
ENDCHAR
STARTCHAR 1F72
ENCODING 8050
SWIDTH 1008 0
DWIDTH 14 0
BBX 9 12 3 -2
BITMAP
1800
0800
0400
0000
3E00
E380
C000
7E00
C000
C080
6100
3E00
ENDCHAR
STARTCHAR 1F73
ENCODING 8051
SWIDTH 1008 0
DWIDTH 14 0
BBX 9 12 3 -2
BITMAP
0C00
0800
1000
0000
3E00
E380
C000
7E00
C000
C080
6100
3E00
ENDCHAR
STARTCHAR 2000
ENCODING 8192
SWIDTH 1008 0
DWIDTH 14 0
BBX 0 0 0 -2
BITMAP
ENDCHAR
STARTCHAR 2001
ENCODING 8193
SWIDTH 1008 0
DWIDTH 14 0
BBX 0 0 0 -2
BITMAP
ENDCHAR
STARTCHAR 2002
ENCODING 8194
SWIDTH 1008 0
DWIDTH 14 0
BBX 0 0 0 -2
BITMAP
ENDCHAR
STARTCHAR 2003
ENCODING 8195
SWIDTH 1008 0
DWIDTH 14 0
BBX 0 0 0 -2
BITMAP
ENDCHAR
STARTCHAR 2004
ENCODING 8196
SWIDTH 1008 0
DWIDTH 14 0
BBX 0 0 0 -2
BITMAP
ENDCHAR
STARTCHAR 2005
ENCODING 8197
SWIDTH 1008 0
DWIDTH 14 0
BBX 0 0 0 -2
BITMAP
ENDCHAR
STARTCHAR 2006
ENCODING 8198
SWIDTH 1008 0
DWIDTH 14 0
BBX 0 0 0 -2
BITMAP
ENDCHAR
STARTCHAR 2007
ENCODING 8199
SWIDTH 1008 0
DWIDTH 14 0
BBX 0 0 0 -2
BITMAP
ENDCHAR
STARTCHAR 2008
ENCODING 8200
SWIDTH 1008 0
DWIDTH 14 0
BBX 0 0 0 -2
BITMAP
ENDCHAR
STARTCHAR 2009
ENCODING 8201
SWIDTH 1008 0
DWIDTH 14 0
BBX 0 0 0 -2
BITMAP
ENDCHAR
STARTCHAR 200A
ENCODING 8202
SWIDTH 1008 0
DWIDTH 14 0
BBX 0 0 0 -2
BITMAP
ENDCHAR
STARTCHAR 200B
ENCODING 8203
SWIDTH 504 0
DWIDTH 7 0
BBX 0 0 0 0
BITMAP
ENDCHAR
STARTCHAR 200C
ENCODING 8204
SWIDTH 504 0
DWIDTH 7 0
BBX 0 0 0 0
BITMAP
ENDCHAR
STARTCHAR 200D
ENCODING 8205
SWIDTH 504 0
DWIDTH 7 0
BBX 0 0 0 0
BITMAP
ENDCHAR
STARTCHAR 200E
ENCODING 8206
SWIDTH 504 0
DWIDTH 7 0
BBX 0 0 0 0
BITMAP
ENDCHAR
STARTCHAR 200F
ENCODING 8207
SWIDTH 504 0
DWIDTH 7 0
BBX 0 0 0 0
BITMAP
ENDCHAR
STARTCHAR 2010
ENCODING 8208
SWIDTH 1008 0
DWIDTH 14 0
BBX 5 1 5 4
BITMAP
F8
ENDCHAR
STARTCHAR 2013
ENCODING 8211
SWIDTH 1008 0
DWIDTH 14 0
BBX 6 1 4 4
BITMAP
FC
ENDCHAR
STARTCHAR 2014
ENCODING 8212
SWIDTH 1008 0
DWIDTH 14 0
BBX 14 1 0 4
BITMAP
FFFC
ENDCHAR
STARTCHAR 2015
ENCODING 8213
SWIDTH 1008 0
DWIDTH 14 0
BBX 14 1 0 4
BITMAP
FFFC
ENDCHAR
STARTCHAR 2016
ENCODING 8214
SWIDTH 1008 0
DWIDTH 14 0
BBX 4 14 5 -2
BITMAP
90
90
90
90
90
90
90
90
90
90
90
90
90
90
ENDCHAR
STARTCHAR 2018
ENCODING 8216
SWIDTH 1008 0
DWIDTH 14 0
BBX 3 5 10 -2
BITMAP
60
80
C0
E0
40
ENDCHAR
STARTCHAR 2019
ENCODING 8217
SWIDTH 1008 0
DWIDTH 14 0
BBX 3 5 1 -2
BITMAP
40
E0
60
20
C0
ENDCHAR
STARTCHAR 201C
ENCODING 8220
SWIDTH 1008 0
DWIDTH 14 0
BBX 7 5 6 -2
BITMAP
66
88
CC
EE
44
ENDCHAR
STARTCHAR 201D
ENCODING 8221
SWIDTH 1008 0
DWIDTH 14 0
BBX 7 5 1 -2
BITMAP
44
EE
66
22
CC
ENDCHAR
STARTCHAR 2020
ENCODING 8224
SWIDTH 1008 0
DWIDTH 14 0
BBX 9 14 3 -2
BITMAP
0800
1C00
0800
4900
FF80
4900
1C00
1C00
0800
0800
0800
0800
0800
0800
ENDCHAR
STARTCHAR 2021
ENCODING 8225
SWIDTH 1008 0
DWIDTH 14 0
BBX 9 14 3 -2
BITMAP
0800
1C00
4900
FF80
4900
1C00
0800
0800
1C00
4900
FF80
4900
1C00
0800
ENDCHAR
STARTCHAR 2022
ENCODING 8226
SWIDTH 1008 0
DWIDTH 14 0
BBX 5 5 5 3
BITMAP
70
F8
F8
F8
70
ENDCHAR
STARTCHAR 2025
ENCODING 8229
SWIDTH 1008 0
DWIDTH 14 0
BBX 8 2 3 4
BITMAP
C3
C3
ENDCHAR
STARTCHAR 2026
ENCODING 8230
SWIDTH 1008 0
DWIDTH 14 0
BBX 10 2 2 4
BITMAP
CCC0
CCC0
ENDCHAR
STARTCHAR 2030
ENCODING 8240
SWIDTH 1008 0
DWIDTH 14 0
BBX 13 12 1 -1
BITMAP
3040
4880
CD00
CD00
4A00
3400
0620
0D50
1DD8
2DD8
2550
4220
ENDCHAR
STARTCHAR 2032
ENCODING 8242
SWIDTH 1008 0
DWIDTH 14 0
BBX 4 5 1 -1
BITMAP
30
30
60
40
80
ENDCHAR
STARTCHAR 2033
ENCODING 8243
SWIDTH 1008 0
DWIDTH 14 0
BBX 7 5 1 -1
BITMAP
36
36
6C
48
90
ENDCHAR
STARTCHAR 203B
ENCODING 8251
SWIDTH 1008 0
DWIDTH 14 0
BBX 11 11 2 0
BITMAP
8420
4E40
2480
1100
4A40
E4E0
4A40
1100
2480
4E40
8420
ENDCHAR
STARTCHAR 203C
ENCODING 8252
SWIDTH 1008 0
DWIDTH 14 0
BBX 8 13 3 -1
BITMAP
42
E7
E7
E7
E7
E7
42
42
42
00
42
E7
42
ENDCHAR
STARTCHAR 203E
ENCODING 8254
SWIDTH 1008 0
DWIDTH 14 0
BBX 14 1 0 -2
BITMAP
FFFC
ENDCHAR
STARTCHAR 203F
ENCODING 8255
SWIDTH 1008 0
DWIDTH 14 0
BBX 10 3 2 8
BITMAP
8040
6180
1E00
ENDCHAR
STARTCHAR 2042
ENCODING 8258
SWIDTH 1008 0
DWIDTH 14 0
BBX 13 14 1 -2
BITMAP
0200
3760
1AC0
0700
1AC0
3760
0200
1040
BAE8
D558
38E0
D558
BAE8
1040
ENDCHAR
STARTCHAR 2047
ENCODING 8263
SWIDTH 1008 0
DWIDTH 14 0
BBX 11 13 2 -1
BITMAP
30C0
5960
8A20
CB20
CB20
1860
1040
2080
2080
2080
0000
30C0
30C0
ENDCHAR
STARTCHAR 2048
ENCODING 8264
SWIDTH 1008 0
DWIDTH 14 0
BBX 10 13 2 -1
BITMAP
3080
59C0
89C0
C9C0
C9C0
19C0
1080
2080
2080
2000
0080
31C0
3080
ENDCHAR
STARTCHAR 2049
ENCODING 8265
SWIDTH 1008 0
DWIDTH 14 0
BBX 10 13 3 -1
BITMAP
4180
E2C0
E440
E640
E640
E0C0
4080
4100
4100
0100
4000
E180
4180
ENDCHAR
STARTCHAR 2051
ENCODING 8273
SWIDTH 1008 0
DWIDTH 14 0
BBX 9 14 3 -2
BITMAP
0800
DD80
6B00
1C00
6B00
DD80
0800
0800
DD80
6B00
1C00
6B00
DD80
0800
ENDCHAR
STARTCHAR 20AC
ENCODING 8364
SWIDTH 1008 0
DWIDTH 14 0
BBX 11 11 1 -1
BITMAP
0780
1860
3020
6000
FFC0
4000
FF80
6000
3020
1860
0780
ENDCHAR
STARTCHAR 2103
ENCODING 8451
SWIDTH 1008 0
DWIDTH 14 0
BBX 12 12 1 -1
BITMAP
6000
91D0
9230
6610
0C10
0C00
0C00
0C00
0C00
0410
0220
01C0
ENDCHAR
STARTCHAR 210F
ENCODING 8463
SWIDTH 1008 0
DWIDTH 14 0
BBX 11 11 2 -1
BITMAP
7600
3800
7000
B700
3980
30C0
30C0
30C0
30C0
30C0
79E0
ENDCHAR
STARTCHAR 2113
ENCODING 8467
SWIDTH 1008 0
DWIDTH 14 0
BBX 9 11 2 -1
BITMAP
0600
0F00
1D00
1900
3900
3100
3200
3200
3C80
1D00
E600
ENDCHAR
STARTCHAR 2116
ENCODING 8470
SWIDTH 1008 0
DWIDTH 14 0
BBX 14 12 0 -1
BITMAP
E700
6200
7200
7260
5A90
5B18
5B18
4F18
4F18
4694
E66C
0004
ENDCHAR
STARTCHAR 2121
ENCODING 8481
SWIDTH 1008 0
DWIDTH 14 0
BBX 14 10 0 0
BITMAP
FF70
22A0
2220
2220
23A0
2220
2220
2220
22A4
2778
ENDCHAR
STARTCHAR 2127
ENCODING 8487
SWIDTH 1008 0
DWIDTH 14 0
BBX 11 11 2 -1
BITMAP
F1E0
8A20
1100
2080
60C0
C060
C060
C060
60C0
3180
0E00
ENDCHAR
STARTCHAR 212B
ENCODING 8491
SWIDTH 1008 0
DWIDTH 14 0
BBX 11 13 2 -2
BITMAP
0C00
1200
1200
0C00
0400
0E00
0E00
1300
1300
2180
3F80
40C0
E1E0
ENDCHAR
STARTCHAR 2135
ENCODING 8501
SWIDTH 1008 0
DWIDTH 14 0
BBX 10 12 2 -1
BITMAP
4100
6180
60C0
3140
3900
1E00
2600
2300
2380
21C0
E0C0
C0C0
ENDCHAR
STARTCHAR 2153
ENCODING 8531
SWIDTH 1008 0
DWIDTH 14 0
BBX 11 12 2 -1
BITMAP
2000
6040
A080
2100
2200
25C0
0A20
1020
21C0
4020
8220
01C0
ENDCHAR
STARTCHAR 2154
ENCODING 8532
SWIDTH 1008 0
DWIDTH 14 0
BBX 12 12 1 -1
BITMAP
7000
8820
0840
7080
8100
82E0
FD10
0810
10E0
2010
4110
00E0
ENDCHAR
STARTCHAR 2155
ENCODING 8533
SWIDTH 1008 0
DWIDTH 14 0
BBX 11 12 2 -1
BITMAP
2000
6040
A080
2100
2200
27E0
0A00
1200
23C0
4020
8220
01C0
ENDCHAR
STARTCHAR 2160
ENCODING 8544
SWIDTH 1008 0
DWIDTH 14 0
BBX 6 11 4 -1
BITMAP
FC
30
30
30
30
30
30
30
30
30
FC
ENDCHAR
STARTCHAR 2161
ENCODING 8545
SWIDTH 1008 0
DWIDTH 14 0
BBX 10 11 2 -1
BITMAP
FFC0
3300
3300
3300
3300
3300
3300
3300
3300
3300
FFC0
ENDCHAR
STARTCHAR 2162
ENCODING 8546
SWIDTH 1008 0
DWIDTH 14 0
BBX 12 11 1 -1
BITMAP
FFF0
6660
6660
6660
6660
6660
6660
6660
6660
6660
FFF0
ENDCHAR
STARTCHAR 2163
ENCODING 8547
SWIDTH 1008 0
DWIDTH 14 0
BBX 12 11 1 -1
BITMAP
FE70
6C20
6C20
6640
6640
6640
6280
6380
6300
6100
F100
ENDCHAR
STARTCHAR 2164
ENCODING 8548
SWIDTH 1008 0
DWIDTH 14 0
BBX 11 11 2 -1
BITMAP
F0E0
6040
6040
3080
3080
1900
1900
0E00
0E00
0400
0400
ENDCHAR
STARTCHAR 2165
ENCODING 8549
SWIDTH 1008 0
DWIDTH 14 0
BBX 12 11 1 -1
BITMAP
F3F0
6160
6160
3260
3260
3260
1460
1C60
1860
0860
08F0
ENDCHAR
STARTCHAR 2166
ENCODING 8550
SWIDTH 1008 0
DWIDTH 14 0
BBX 14 11 0 -1
BITMAP
F7FC
62D8
62D8
64D8
64D8
34D8
38D8
38D8
10D8
10D8
11FC
ENDCHAR
STARTCHAR 2167
ENCODING 8551
SWIDTH 1008 0
DWIDTH 14 0
BBX 14 11 0 -1
BITMAP
F7FC
62A8
62A8
64A8
64A8
34A8
38A8
38A8
10A8
10A8
11FC
ENDCHAR
STARTCHAR 2168
ENCODING 8552
SWIDTH 1008 0
DWIDTH 14 0
BBX 14 11 0 -1
BITMAP
FF9C
3188
3098
30D0
3060
3060
3060
30B0
3090
3118
FF9C
ENDCHAR
STARTCHAR 2169
ENCODING 8553
SWIDTH 1008 0
DWIDTH 14 0
BBX 11 11 2 -1
BITMAP
F1E0
6080
3100
1A00
0C00
0C00
0E00
1300
2180
40C0
E1E0
ENDCHAR
STARTCHAR 216A
ENCODING 8554
SWIDTH 1008 0
DWIDTH 14 0
BBX 14 11 0 -1
BITMAP
F3FC
3130
1330
1A30
0C30
0C30
0C30
1630
1230
2330
F3FC
ENDCHAR
STARTCHAR 216B
ENCODING 8555
SWIDTH 1008 0
DWIDTH 14 0
BBX 14 11 0 -1
BITMAP
E7FC
62D8
26D8
34D8
18D8
18D8
18D8
2CD8
24D8
46D8
E7FC
ENDCHAR
STARTCHAR 2170
ENCODING 8560
SWIDTH 1008 0
DWIDTH 14 0
BBX 6 11 4 -1
BITMAP
10
38
10
00
F0
30
30
30
30
30
FC
ENDCHAR
STARTCHAR 2171
ENCODING 8561
SWIDTH 1008 0
DWIDTH 14 0
BBX 10 11 2 -1
BITMAP
2100
7380
2100
0000
F780
3180
3180
3180
3180
3180
FFC0
ENDCHAR
STARTCHAR 2172
ENCODING 8562
SWIDTH 1008 0
DWIDTH 14 0
BBX 13 11 1 -1
BITMAP
2220
7770
2220
0000
EEE0
6660
6660
6660
6660
6660
FFF8
ENDCHAR
STARTCHAR 2173
ENCODING 8563
SWIDTH 1008 0
DWIDTH 14 0
BBX 12 11 1 -1
BITMAP
1000
3800
1000
0F70
F420
3620
3640
3340
3340
3180
F980
ENDCHAR
STARTCHAR 2174
ENCODING 8564
SWIDTH 1008 0
DWIDTH 14 0
BBX 10 8 2 2
BITMAP
F9C0
6080
3100
3100
1A00
1A00
0C00
0C00
ENDCHAR
STARTCHAR 2175
ENCODING 8565
SWIDTH 1008 0
DWIDTH 14 0
BBX 12 11 1 -1
BITMAP
0020
0070
0020
F700
42E0
6260
6460
3460
3460
1860
19F0
ENDCHAR
STARTCHAR 2176
ENCODING 8566
SWIDTH 1008 0
DWIDTH 14 0
BBX 12 11 1 -1
BITMAP
0120
03F0
0120
EE00
45F0
65B0
69B0
69B0
31B0
31B0
33F0
ENDCHAR
STARTCHAR 2177
ENCODING 8567
SWIDTH 1008 0
DWIDTH 14 0
BBX 13 11 0 -1
BITMAP
0150
03F8
0150
EE00
45F0
6550
6950
6950
3150
3150
33F8
ENDCHAR
STARTCHAR 2178
ENCODING 8568
SWIDTH 1008 0
DWIDTH 14 0
BBX 12 11 1 -1
BITMAP
2000
7000
2000
1E70
EC20
6640
6380
6380
64C0
6860
FCF0
ENDCHAR
STARTCHAR 2179
ENCODING 8569
SWIDTH 1008 0
DWIDTH 14 0
BBX 9 8 3 2
BITMAP
F380
6100
3200
1C00
1C00
2600
4300
E780
ENDCHAR
STARTCHAR 217A
ENCODING 8570
SWIDTH 1008 0
DWIDTH 14 0
BBX 12 11 1 -1
BITMAP
0020
0070
0020
F380
6160
3260
1C60
1C60
2660
4360
E7F0
ENDCHAR
STARTCHAR 217B
ENCODING 8571
SWIDTH 1008 0
DWIDTH 14 0
BBX 12 11 1 -1
BITMAP
0120
03F0
0120
F600
65F0
69B0
31B0
39B0
5DB0
4DB0
EFF0
ENDCHAR
STARTCHAR 2190
ENCODING 8592
SWIDTH 1008 0
DWIDTH 14 0
BBX 12 7 1 1
BITMAP
0400
0800
3000
FFF0
3000
0800
0400
ENDCHAR
STARTCHAR 2191
ENCODING 8593
SWIDTH 1008 0
DWIDTH 14 0
BBX 7 12 4 -1
BITMAP
10
10
38
38
54
92
10
10
10
10
10
10
ENDCHAR
STARTCHAR 2192
ENCODING 8594
SWIDTH 1008 0
DWIDTH 14 0
BBX 12 7 1 1
BITMAP
0200
0100
00C0
FFF0
00C0
0100
0200
ENDCHAR
STARTCHAR 2193
ENCODING 8595
SWIDTH 1008 0
DWIDTH 14 0
BBX 7 12 4 -1
BITMAP
10
10
10
10
10
10
92
54
38
38
10
10
ENDCHAR
STARTCHAR 2194
ENCODING 8596
SWIDTH 1008 0
DWIDTH 14 0
BBX 12 7 1 1
BITMAP
1080
1080
6060
FFF0
6060
1080
1080
ENDCHAR
STARTCHAR 2196
ENCODING 8598
SWIDTH 1008 0
DWIDTH 14 0
BBX 12 12 1 -1
BITMAP
8000
6000
7C00
3000
2800
2400
0200
0100
0080
0040
0020
0010
ENDCHAR
STARTCHAR 2197
ENCODING 8599
SWIDTH 1008 0
DWIDTH 14 0
BBX 12 12 1 -1
BITMAP
0010
0060
03E0
00C0
0140
0240
0400
0800
1000
2000
4000
8000
ENDCHAR
STARTCHAR 2198
ENCODING 8600
SWIDTH 1008 0
DWIDTH 14 0
BBX 12 12 1 -1
BITMAP
8000
4000
2000
1000
0800
0400
0240
0140
00C0
03E0
0060
0010
ENDCHAR
STARTCHAR 2199
ENCODING 8601
SWIDTH 1008 0
DWIDTH 14 0
BBX 12 12 1 -1
BITMAP
0010
0020
0040
0080
0100
0200
2400
2800
3000
7C00
6000
8000
ENDCHAR
STARTCHAR 21C4
ENCODING 8644
SWIDTH 1008 0
DWIDTH 14 0
BBX 12 12 1 -1
BITMAP
0200
0100
00C0
FFF0
00C0
0900
0900
3000
FFF0
3000
0800
0400
ENDCHAR
STARTCHAR 21D2
ENCODING 8658
SWIDTH 1008 0
DWIDTH 14 0
BBX 12 7 1 1
BITMAP
0080
0040
FFE0
0010
FFE0
0040
0080
ENDCHAR
STARTCHAR 21D4
ENCODING 8660
SWIDTH 1008 0
DWIDTH 14 0
BBX 12 7 1 1
BITMAP
1080
2040
7FE0
8010
7FE0
2040
1080
ENDCHAR
STARTCHAR 21E6
ENCODING 8678
SWIDTH 1008 0
DWIDTH 14 0
BBX 12 9 1 0
BITMAP
0800
1800
3800
6FF0
8010
6FF0
3800
1800
0800
ENDCHAR
STARTCHAR 21E7
ENCODING 8679
SWIDTH 1008 0
DWIDTH 14 0
BBX 9 13 2 -2
BITMAP
0800
1400
3600
6300
F780
1400
1400
1400
1400
1400
1400
1400
1C00
ENDCHAR
STARTCHAR 21E8
ENCODING 8680
SWIDTH 1008 0
DWIDTH 14 0
BBX 12 9 1 0
BITMAP
0100
0180
01C0
FF60
8010
FF60
01C0
0180
0100
ENDCHAR
STARTCHAR 21E9
ENCODING 8681
SWIDTH 1008 0
DWIDTH 14 0
BBX 9 13 2 -1
BITMAP
1C00
1400
1400
1400
1400
1400
1400
F780
6300
3600
1400
1C00
0800
ENDCHAR
STARTCHAR 2200
ENCODING 8704
SWIDTH 1008 0
DWIDTH 14 0
BBX 11 12 2 -1
BITMAP
8020
8020
4040
7FC0
2080
2080
1100
1100
0A00
0A00
0400
0400
ENDCHAR
STARTCHAR 2202
ENCODING 8706
SWIDTH 1008 0
DWIDTH 14 0
BBX 7 12 4 -1
BITMAP
1C
26
02
02
3A
66
46
C6
C4
CC
58
30
ENDCHAR
STARTCHAR 2203
ENCODING 8707
SWIDTH 1008 0
DWIDTH 14 0
BBX 8 11 3 -1
BITMAP
FF
01
01
01
01
FF
01
01
01
01
FF
ENDCHAR
STARTCHAR 2205
ENCODING 8709
SWIDTH 1008 0
DWIDTH 14 0
BBX 11 11 2 0
BITMAP
0E20
31C0
40C0
4140
8220
8420
8820
5040
6040
7180
8E00
ENDCHAR
STARTCHAR 2207
ENCODING 8711
SWIDTH 1008 0
DWIDTH 14 0
BBX 11 11 2 0
BITMAP
FFE0
7FC0
6040
2080
3080
1100
1900
0A00
0E00
0400
0400
ENDCHAR
STARTCHAR 2208
ENCODING 8712
SWIDTH 1008 0
DWIDTH 14 0
BBX 10 9 2 0
BITMAP
0FC0
3000
4000
8000
FFC0
8000
4000
3000
0FC0
ENDCHAR
STARTCHAR 2209
ENCODING 8713
SWIDTH 1008 0
DWIDTH 14 0
BBX 10 12 2 -1
BITMAP
0400
0FC0
3400
4400
8400
FFC0
8400
4400
3400
0FC0
0400
0400
ENDCHAR
STARTCHAR 220B
ENCODING 8715
SWIDTH 1008 0
DWIDTH 14 0
BBX 10 9 2 0
BITMAP
FC00
0300
0080
0040
FFC0
0040
0080
0300
FC00
ENDCHAR
STARTCHAR 2212
ENCODING 8722
SWIDTH 1008 0
DWIDTH 14 0
BBX 11 1 2 4
BITMAP
FFE0
ENDCHAR
STARTCHAR 2213
ENCODING 8723
SWIDTH 1008 0
DWIDTH 14 0
BBX 11 11 2 -1
BITMAP
FFE0
0000
0000
0400
0400
0400
FFE0
0400
0400
0400
0400
ENDCHAR
STARTCHAR 221A
ENCODING 8730
SWIDTH 1008 0
DWIDTH 14 0
BBX 12 12 1 -1
BITMAP
03F0
0200
0200
0200
0400
0400
0400
4400
E800
3800
1800
0800
ENDCHAR
STARTCHAR 221D
ENCODING 8733
SWIDTH 1008 0
DWIDTH 14 0
BBX 9 6 3 2
BITMAP
3180
4A00
8400
8400
4A00
3180
ENDCHAR
STARTCHAR 221E
ENCODING 8734
SWIDTH 1008 0
DWIDTH 14 0
BBX 11 6 2 2
BITMAP
71C0
DB60
8E20
8E20
DB60
71C0
ENDCHAR
STARTCHAR 221F
ENCODING 8735
SWIDTH 1008 0
DWIDTH 14 0
BBX 11 11 2 -1
BITMAP
8000
8000
8000
8000
8000
8000
8000
8000
8000
8000
FFE0
ENDCHAR
STARTCHAR 2220
ENCODING 8736
SWIDTH 1008 0
DWIDTH 14 0
BBX 10 10 2 0
BITMAP
0040
0080
0100
0200
0400
0800
1000
2000
4000
FFC0
ENDCHAR
STARTCHAR 2225
ENCODING 8741
SWIDTH 1008 0
DWIDTH 14 0
BBX 10 12 2 -1
BITMAP
0400
0840
0840
1080
1080
2100
2100
4200
4200
8400
8400
0800
ENDCHAR
STARTCHAR 2226
ENCODING 8742
SWIDTH 1008 0
DWIDTH 14 0
BBX 10 12 2 -1
BITMAP
0400
8840
4840
3080
1080
2900
2500
4200
4300
8480
8440
0800
ENDCHAR
STARTCHAR 2227
ENCODING 8743
SWIDTH 1008 0
DWIDTH 14 0
BBX 9 10 3 0
BITMAP
0800
0800
1400
1400
2200
2200
4100
4100
8080
8080
ENDCHAR
STARTCHAR 2228
ENCODING 8744
SWIDTH 1008 0
DWIDTH 14 0
BBX 9 10 3 0
BITMAP
8080
8080
4100
4100
2200
2200
1400
1400
0800
0800
ENDCHAR
STARTCHAR 2229
ENCODING 8745
SWIDTH 1008 0
DWIDTH 14 0
BBX 10 10 2 0
BITMAP
1E00
2100
4080
4080
8040
8040
8040
8040
8040
8040
ENDCHAR
STARTCHAR 222A
ENCODING 8746
SWIDTH 1008 0
DWIDTH 14 0
BBX 10 10 2 0
BITMAP
8040
8040
8040
8040
8040
8040
4080
4080
2100
1E00
ENDCHAR
STARTCHAR 222B
ENCODING 8747
SWIDTH 1008 0
DWIDTH 14 0
BBX 4 14 6 -2
BITMAP
30
70
80
80
C0
C0
60
60
30
30
10
10
E0
C0
ENDCHAR
STARTCHAR 222C
ENCODING 8748
SWIDTH 1008 0
DWIDTH 14 0
BBX 8 14 3 -2
BITMAP
33
77
88
88
CC
CC
66
66
33
33
11
11
EE
CC
ENDCHAR
STARTCHAR 222E
ENCODING 8750
SWIDTH 1008 0
DWIDTH 14 0
BBX 6 14 5 -2
BITMAP
18
38
40
40
70
68
B4
B4
58
38
08
08
70
60
ENDCHAR
STARTCHAR 2234
ENCODING 8756
SWIDTH 1008 0
DWIDTH 14 0
BBX 11 10 2 0
BITMAP
0400
0E00
0400
0000
0000
0000
0000
4040
E0E0
4040
ENDCHAR
STARTCHAR 2235
ENCODING 8757
SWIDTH 1008 0
DWIDTH 14 0
BBX 11 10 2 0
BITMAP
4040
E0E0
4040
0000
0000
0000
0000
0400
0E00
0400
ENDCHAR
STARTCHAR 223D
ENCODING 8765
SWIDTH 1008 0
DWIDTH 14 0
BBX 11 6 2 2
BITMAP
3180
4240
8420
8420
4840
3180
ENDCHAR
STARTCHAR 2243
ENCODING 8771
SWIDTH 1008 0
DWIDTH 14 0
BBX 10 8 2 1
BITMAP
3000
4840
8480
0300
0000
0000
0000
FFC0
ENDCHAR
STARTCHAR 2245
ENCODING 8773
SWIDTH 1008 0
DWIDTH 14 0
BBX 10 9 2 1
BITMAP
3000
4840
8480
0300
0000
FFC0
0000
0000
FFC0
ENDCHAR
STARTCHAR 2248
ENCODING 8776
SWIDTH 1008 0
DWIDTH 14 0
BBX 10 8 2 1
BITMAP
3000
4840
8480
0300
3000
4840
8480
0300
ENDCHAR
STARTCHAR 2252
ENCODING 8786
SWIDTH 1008 0
DWIDTH 14 0
BBX 10 10 2 0
BITMAP
2000
7000
2000
FFC0
0000
0000
FFC0
0100
0380
0100
ENDCHAR
STARTCHAR 2260
ENCODING 8800
SWIDTH 1008 0
DWIDTH 14 0
BBX 11 11 2 -1
BITMAP
0200
0200
0200
FFE0
0400
0400
0400
FFE0
0800
0800
0800
ENDCHAR
STARTCHAR 2261
ENCODING 8801
SWIDTH 1008 0
DWIDTH 14 0
BBX 10 7 2 1
BITMAP
FFC0
0000
0000
FFC0
0000
0000
FFC0
ENDCHAR
STARTCHAR 2262
ENCODING 8802
SWIDTH 1008 0
DWIDTH 14 0
BBX 10 13 2 -2
BITMAP
0100
0100
0200
FFC0
0400
0400
FFC0
0800
0800
FFC0
1000
2000
2000
ENDCHAR
STARTCHAR 2266
ENCODING 8806
SWIDTH 1008 0
DWIDTH 14 0
BBX 11 13 2 -2
BITMAP
00C0
0300
0C00
3000
C000
3000
0C00
0300
00C0
0000
FFE0
0000
FFE0
ENDCHAR
STARTCHAR 2267
ENCODING 8807
SWIDTH 1008 0
DWIDTH 14 0
BBX 11 13 2 -2
BITMAP
C000
3000
0C00
0300
00C0
0300
0C00
3000
C000
0000
FFE0
0000
FFE0
ENDCHAR
STARTCHAR 226A
ENCODING 8810
SWIDTH 1008 0
DWIDTH 14 0
BBX 10 11 2 -1
BITMAP
0440
0880
1100
2200
4400
8800
4400
2200
1100
0880
0440
ENDCHAR
STARTCHAR 226B
ENCODING 8811
SWIDTH 1008 0
DWIDTH 14 0
BBX 10 11 2 -1
BITMAP
8800
4400
2200
1100
0880
0440
0880
1100
2200
4400
8800
ENDCHAR
STARTCHAR 2276
ENCODING 8822
SWIDTH 1008 0
DWIDTH 14 0
BBX 10 13 2 -2
BITMAP
00C0
0700
1800
E000
1800
0700
C0C0
3800
0600
01C0
0600
3800
C000
ENDCHAR
STARTCHAR 2277
ENCODING 8823
SWIDTH 1008 0
DWIDTH 14 0
BBX 10 13 2 -2
BITMAP
C000
3800
0600
01C0
0600
3800
C0C0
0700
1800
E000
1800
0700
00C0
ENDCHAR
STARTCHAR 2282
ENCODING 8834
SWIDTH 1008 0
DWIDTH 14 0
BBX 10 10 2 0
BITMAP
0FC0
3000
4000
8000
8000
8000
8000
4000
3000
0FC0
ENDCHAR
STARTCHAR 2283
ENCODING 8835
SWIDTH 1008 0
DWIDTH 14 0
BBX 10 10 2 0
BITMAP
FC00
0300
0080
0040
0040
0040
0040
0080
0300
FC00
ENDCHAR
STARTCHAR 2284
ENCODING 8836
SWIDTH 1008 0
DWIDTH 14 0
BBX 10 12 2 -1
BITMAP
0080
0FC0
3100
4100
8200
8400
8400
8800
5000
3000
2FC0
2000
ENDCHAR
STARTCHAR 2285
ENCODING 8837
SWIDTH 1008 0
DWIDTH 14 0
BBX 10 12 2 -1
BITMAP
0100
FD00
0300
0280
0440
0840
0840
1040
2080
2300
FC00
4000
ENDCHAR
STARTCHAR 2286
ENCODING 8838
SWIDTH 1008 0
DWIDTH 14 0
BBX 10 10 2 0
BITMAP
3FC0
4000
8000
8000
8000
4000
3FC0
0000
0000
FFC0
ENDCHAR
STARTCHAR 2287
ENCODING 8839
SWIDTH 1008 0
DWIDTH 14 0
BBX 10 10 2 0
BITMAP
FF00
0080
0040
0040
0040
0080
FF00
0000
0000
FFC0
ENDCHAR
STARTCHAR 228A
ENCODING 8842
SWIDTH 1008 0
DWIDTH 14 0
BBX 10 12 2 0
BITMAP
3FC0
4000
8000
8000
8000
4000
3FC0
0200
0200
FFC0
0800
0800
ENDCHAR
STARTCHAR 228B
ENCODING 8843
SWIDTH 1008 0
DWIDTH 14 0
BBX 10 12 2 0
BITMAP
FF00
0080
0040
0040
0040
0080
FF00
0200
0200
FFC0
0800
0800
ENDCHAR
STARTCHAR 2295
ENCODING 8853
SWIDTH 1008 0
DWIDTH 14 0
BBX 12 12 1 -1
BITMAP
0F00
30C0
4420
4420
8410
BFD0
8410
8410
4420
4420
30C0
0F00
ENDCHAR
STARTCHAR 2296
ENCODING 8854
SWIDTH 1008 0
DWIDTH 14 0
BBX 12 12 1 -1
BITMAP
0F00
30C0
4020
4020
8010
BFD0
8010
8010
4020
4020
30C0
0F00
ENDCHAR
STARTCHAR 2297
ENCODING 8855
SWIDTH 1008 0
DWIDTH 14 0
BBX 12 12 1 -1
BITMAP
0F00
30C0
6060
50A0
8910
8610
8610
8910
50A0
6060
30C0
0F00
ENDCHAR
STARTCHAR 22A5
ENCODING 8869
SWIDTH 1008 0
DWIDTH 14 0
BBX 11 10 2 0
BITMAP
0400
0400
0400
0400
0400
0400
0400
0400
0400
FFE0
ENDCHAR
STARTCHAR 22BF
ENCODING 8895
SWIDTH 1008 0
DWIDTH 14 0
BBX 11 11 2 -1
BITMAP
0020
0060
00A0
0120
0220
0420
0820
1020
2020
4020
FFE0
ENDCHAR
STARTCHAR 22DA
ENCODING 8922
SWIDTH 1008 0
DWIDTH 14 0
BBX 10 11 2 -1
BITMAP
0380
1C00
E000
1C00
0380
FFC0
7000
0E00
01C0
0E00
7000
ENDCHAR
STARTCHAR 22DB
ENCODING 8923
SWIDTH 1008 0
DWIDTH 14 0
BBX 10 11 2 -1
BITMAP
7000
0E00
01C0
0E00
7000
FFC0
0380
1C00
E000
1C00
0380
ENDCHAR
STARTCHAR 2305
ENCODING 8965
SWIDTH 1008 0
DWIDTH 14 0
BBX 12 7 1 2
BITMAP
FFF0
0600
0900
1080
2040
4020
8010
ENDCHAR
STARTCHAR 2306
ENCODING 8966
SWIDTH 1008 0
DWIDTH 14 0
BBX 12 10 1 0
BITMAP
FFF0
0000
0000
FFF0
0600
0900
1080
2040
4020
8010
ENDCHAR
STARTCHAR 2312
ENCODING 8978
SWIDTH 1008 0
DWIDTH 14 0
BBX 13 3 1 -1
BITMAP
1FC0
6030
8008
ENDCHAR
STARTCHAR 2318
ENCODING 8984
SWIDTH 1008 0
DWIDTH 14 0
BBX 10 10 2 0
BITMAP
6180
9240
9240
7F80
1200
1200
7F80
9240
9240
6180
ENDCHAR
STARTCHAR 23BE
ENCODING 9150
SWIDTH 1008 0
DWIDTH 14 0
BBX 7 14 7 -2
BITMAP
FE
80
80
80
80
80
80
80
80
80
80
80
80
80
ENDCHAR
STARTCHAR 23BF
ENCODING 9151
SWIDTH 1008 0
DWIDTH 14 0
BBX 7 14 7 -2
BITMAP
80
80
80
80
80
80
80
80
80
80
80
80
80
FE
ENDCHAR
STARTCHAR 23C0
ENCODING 9152
SWIDTH 1008 0
DWIDTH 14 0
BBX 11 14 2 -2
BITMAP
0400
0400
1F00
64C0
4440
8420
8420
8420
8420
4440
64C0
1F00
0400
0400
ENDCHAR
STARTCHAR 23C1
ENCODING 9153
SWIDTH 1008 0
DWIDTH 14 0
BBX 14 14 0 -2
BITMAP
FFFC
0100
07C0
1930
1110
2108
2108
2108
2108
1110
1930
07C0
0100
0100
ENDCHAR
STARTCHAR 23C2
ENCODING 9154
SWIDTH 1008 0
DWIDTH 14 0
BBX 14 14 0 -2
BITMAP
0100
0100
07C0
1930
1110
2108
2108
2108
2108
1110
1930
07C0
0100
FFFC
ENDCHAR
STARTCHAR 23C3
ENCODING 9155
SWIDTH 1008 0
DWIDTH 14 0
BBX 11 14 2 -2
BITMAP
0400
0400
0400
0E00
0E00
1500
1500
2480
2480
4440
4440
FFE0
0400
0400
ENDCHAR
STARTCHAR 23C4
ENCODING 9156
SWIDTH 1008 0
DWIDTH 14 0
BBX 14 14 0 -2
BITMAP
FFFC
0100
0100
0380
0380
0540
0540
0920
0920
1110
1110
3FF8
0100
0100
ENDCHAR
STARTCHAR 23C5
ENCODING 9157
SWIDTH 1008 0
DWIDTH 14 0
BBX 14 14 0 -2
BITMAP
0100
0100
0100
0380
0380
0540
0540
0920
0920
1110
1110
3FF8
0100
FFFC
ENDCHAR
STARTCHAR 23C6
ENCODING 9158
SWIDTH 1008 0
DWIDTH 14 0
BBX 11 14 2 -2
BITMAP
0400
0400
0400
0400
0400
7400
8C20
8620
05C0
0400
0400
0400
0400
0400
ENDCHAR
STARTCHAR 23C7
ENCODING 9159
SWIDTH 1008 0
DWIDTH 14 0
BBX 14 14 0 -2
BITMAP
FFFC
0100
0100
0100
0100
1D00
2308
2188
0170
0100
0100
0100
0100
0100
ENDCHAR
STARTCHAR 23C8
ENCODING 9160
SWIDTH 1008 0
DWIDTH 14 0
BBX 14 14 0 -2
BITMAP
0100
0100
0100
0100
0100
1D00
2308
2188
0170
0100
0100
0100
0100
FFFC
ENDCHAR
STARTCHAR 23C9
ENCODING 9161
SWIDTH 1008 0
DWIDTH 14 0
BBX 14 14 0 -2
BITMAP
FFFC
0100
0100
0100
0100
0100
0100
0100
0100
0100
0100
0100
0100
0100
ENDCHAR
STARTCHAR 23CA
ENCODING 9162
SWIDTH 1008 0
DWIDTH 14 0
BBX 14 14 0 -2
BITMAP
0100
0100
0100
0100
0100
0100
0100
0100
0100
0100
0100
0100
0100
FFFC
ENDCHAR
STARTCHAR 23CB
ENCODING 9163
SWIDTH 1008 0
DWIDTH 14 0
BBX 8 14 0 -2
BITMAP
FF
01
01
01
01
01
01
01
01
01
01
01
01
01
ENDCHAR
STARTCHAR 23CC
ENCODING 9164
SWIDTH 1008 0
DWIDTH 14 0
BBX 8 14 0 -2
BITMAP
01
01
01
01
01
01
01
01
01
01
01
01
01
FF
ENDCHAR
STARTCHAR 23CE
ENCODING 9166
SWIDTH 1008 0
DWIDTH 14 0
BBX 13 11 0 0
BITMAP
0078
0048
0448
0C48
1448
7788
C018
77F0
1400
0C00
0400
ENDCHAR
STARTCHAR 2423
ENCODING 9251
SWIDTH 1008 0
DWIDTH 14 0
BBX 8 3 3 8
BITMAP
81
81
FF
ENDCHAR
STARTCHAR 2460
ENCODING 9312
SWIDTH 1008 0
DWIDTH 14 0
BBX 14 14 0 -2
BITMAP
0780
1860
2110
4308
4F08
8304
8304
8304
8304
4308
4FC8
2010
1860
0780
ENDCHAR
STARTCHAR 2461
ENCODING 9313
SWIDTH 1008 0
DWIDTH 14 0
BBX 14 14 0 -2
BITMAP
0780
1860
2390
4CC8
4CC8
8084
8104
8204
8424
47C8
4FC8
2010
1860
0780
ENDCHAR
STARTCHAR 2462
ENCODING 9314
SWIDTH 1008 0
DWIDTH 14 0
BBX 14 14 0 -2
BITMAP
0780
1860
2390
4CC8
4CC8
80C4
8384
80C4
8CC4
4CC8
4308
2010
1860
0780
ENDCHAR
STARTCHAR 2463
ENCODING 9315
SWIDTH 1008 0
DWIDTH 14 0
BBX 14 14 0 -2
BITMAP
0780
1860
2190
4388
4588
8584
8984
9984
9FC4
4188
43C8
2010
1860
0780
ENDCHAR
STARTCHAR 2464
ENCODING 9316
SWIDTH 1008 0
DWIDTH 14 0
BBX 14 14 0 -2
BITMAP
0780
1860
2F90
4F08
4808
8F84
80C4
80C4
8CC4
4CC8
4708
2010
1860
0780
ENDCHAR
STARTCHAR 2465
ENCODING 9317
SWIDTH 1008 0
DWIDTH 14 0
BBX 14 14 0 -2
BITMAP
0780
1860
2390
44C8
4CC8
8C04
8F84
8CC4
8CC4
4CC8
4308
2010
1860
0780
ENDCHAR
STARTCHAR 2466
ENCODING 9318
SWIDTH 1008 0
DWIDTH 14 0
BBX 14 14 0 -2
BITMAP
0780
1860
27D0
4788
4888
8884
8104
8104
8304
4308
4308
2010
1860
0780
ENDCHAR
STARTCHAR 2467
ENCODING 9319
SWIDTH 1008 0
DWIDTH 14 0
BBX 14 14 0 -2
BITMAP
0780
1860
2310
4CC8
4CC8
8CC4
8784
8CC4
8CC4
4CC8
4308
2010
1860
0780
ENDCHAR
STARTCHAR 2468
ENCODING 9320
SWIDTH 1008 0
DWIDTH 14 0
BBX 14 14 0 -2
BITMAP
0780
1860
2310
4CC8
4CC8
8CC4
83C4
80C4
8CC4
4C88
4308
2010
1860
0780
ENDCHAR
STARTCHAR 2469
ENCODING 9321
SWIDTH 1008 0
DWIDTH 14 0
BBX 14 14 0 -2
BITMAP
0780
1860
2990
5B68
7A68
8A64
8A64
8A64
8A64
4B68
7D88
2010
1860
0780
ENDCHAR
STARTCHAR 246A
ENCODING 9322
SWIDTH 1008 0
DWIDTH 14 0
BBX 14 14 0 -2
BITMAP
0780
1860
2850
58C8
79C8
8844
8844
8844
8844
4848
7DE8
2010
1860
0780
ENDCHAR
STARTCHAR 246B
ENCODING 9323
SWIDTH 1008 0
DWIDTH 14 0
BBX 14 14 0 -2
BITMAP
0780
1860
28D0
5B68
7B68
8864
8844
8884
8914
4BE8
7FE8
2010
1860
0780
ENDCHAR
STARTCHAR 246C
ENCODING 9324
SWIDTH 1008 0
DWIDTH 14 0
BBX 14 14 0 -2
BITMAP
0780
1860
28D0
5B68
7B68
8864
88C4
8864
8B64
4B68
7DC8
2010
1860
0780
ENDCHAR
STARTCHAR 246D
ENCODING 9325
SWIDTH 1008 0
DWIDTH 14 0
BBX 14 14 0 -2
BITMAP
0780
1860
28D0
5968
7968
8A64
8A64
8BF4
8864
4868
7CE8
2010
1860
0780
ENDCHAR
STARTCHAR 246E
ENCODING 9326
SWIDTH 1008 0
DWIDTH 14 0
BBX 14 14 0 -2
BITMAP
0780
1860
2BF0
5BC8
7A08
8BC4
8864
8864
8B64
4B68
7DC8
2010
1860
0780
ENDCHAR
STARTCHAR 246F
ENCODING 9327
SWIDTH 1008 0
DWIDTH 14 0
BBX 14 14 0 -2
BITMAP
0780
1860
28D0
5B68
7B68
8B04
8BC4
8B64
8B64
4B68
7CC8
2010
1860
0780
ENDCHAR
STARTCHAR 2470
ENCODING 9328
SWIDTH 1008 0
DWIDTH 14 0
BBX 14 14 0 -2
BITMAP
0780
1860
2BF0
5BC8
7C48
8884
8884
8984
8984
4988
7D88
2010
1860
0780
ENDCHAR
STARTCHAR 2471
ENCODING 9329
SWIDTH 1008 0
DWIDTH 14 0
BBX 14 14 0 -2
BITMAP
0780
1860
2890
5B68
7B68
8B64
89C4
8B64
8B64
4B68
7C88
2010
1860
0780
ENDCHAR
STARTCHAR 2472
ENCODING 9330
SWIDTH 1008 0
DWIDTH 14 0
BBX 14 14 0 -2
BITMAP
0780
1860
2990
5B68
7B68
8B64
89E4
8864
8B64
4B68
7D88
2010
1860
0780
ENDCHAR
STARTCHAR 2473
ENCODING 9331
SWIDTH 1008 0
DWIDTH 14 0
BBX 14 14 0 -2
BITMAP
0780
1860
2CD0
7768
7768
9564
8564
8964
9164
5F68
7CC8
2010
1860
0780
ENDCHAR
STARTCHAR 24D0
ENCODING 9424
SWIDTH 1008 0
DWIDTH 14 0
BBX 14 14 0 -2
BITMAP
0780
1860
2010
4008
4F88
98C4
80C4
8FC4
98C4
58C8
4F28
2010
1860
0780
ENDCHAR
STARTCHAR 24D1
ENCODING 9425
SWIDTH 1008 0
DWIDTH 14 0
BBX 14 14 0 -2
BITMAP
0780
1860
3C10
4C08
4D88
8E44
8C64
8C64
8C64
4E48
5D88
2010
1860
0780
ENDCHAR
STARTCHAR 24D2
ENCODING 9426
SWIDTH 1008 0
DWIDTH 14 0
BBX 14 14 0 -2
BITMAP
0780
1860
2010
4008
4388
8C64
9824
9804
9824
4C68
4388
2010
1860
0780
ENDCHAR
STARTCHAR 24D3
ENCODING 9427
SWIDTH 1008 0
DWIDTH 14 0
BBX 14 14 0 -2
BITMAP
0780
1860
21D0
40C8
46C8
89C4
98C4
98C4
98C4
49C8
46E8
2010
1860
0780
ENDCHAR
STARTCHAR 24D4
ENCODING 9428
SWIDTH 1008 0
DWIDTH 14 0
BBX 14 14 0 -2
BITMAP
0780
1860
2010
4008
4788
8844
9864
9FE4
9804
4C28
43C8
2010
1860
0780
ENDCHAR
STARTCHAR 24D5
ENCODING 9429
SWIDTH 1008 0
DWIDTH 14 0
BBX 14 14 0 -2
BITMAP
0780
1860
2390
46C8
4608
8F84
8604
8604
8604
4608
4F88
2010
1860
0780
ENDCHAR
STARTCHAR 24D6
ENCODING 9430
SWIDTH 1008 0
DWIDTH 14 0
BBX 14 14 0 -2
BITMAP
0780
1860
2010
4048
4788
8984
8904
8604
8F84
4BC8
48C8
2790
1860
0780
ENDCHAR
STARTCHAR 24D7
ENCODING 9431
SWIDTH 1008 0
DWIDTH 14 0
BBX 14 14 0 -2
BITMAP
0780
1860
3C10
4C08
4D88
8EC4
8CC4
8CC4
8CC4
4CC8
5DE8
2010
1860
0780
ENDCHAR
STARTCHAR 24D8
ENCODING 9432
SWIDTH 1008 0
DWIDTH 14 0
BBX 14 14 0 -2
BITMAP
0780
1860
2310
4308
4008
8F04
8304
8304
8304
4308
4FC8
2010
1860
0780
ENDCHAR
STARTCHAR 24D9
ENCODING 9433
SWIDTH 1008 0
DWIDTH 14 0
BBX 14 14 0 -2
BITMAP
0780
1860
2190
4188
4008
8784
8184
8184
8184
5988
5908
2E10
1860
0780
ENDCHAR
STARTCHAR 24DA
ENCODING 9434
SWIDTH 1008 0
DWIDTH 14 0
BBX 14 14 0 -2
BITMAP
0780
1860
3C10
4C08
4CC8
8C84
8D04
8F04
8D84
4CC8
5EE8
2010
1860
0780
ENDCHAR
STARTCHAR 24DB
ENCODING 9435
SWIDTH 1008 0
DWIDTH 14 0
BBX 14 14 0 -2
BITMAP
0780
1860
2F10
4308
4308
8304
8304
8304
8304
4308
4FC8
2010
1860
0780
ENDCHAR
STARTCHAR 24DC
ENCODING 9436
SWIDTH 1008 0
DWIDTH 14 0
BBX 14 14 0 -2
BITMAP
0780
1860
2010
4008
5B48
9FE4
9B64
9B64
9B64
5B68
5B68
2010
1860
0780
ENDCHAR
STARTCHAR 24DD
ENCODING 9437
SWIDTH 1008 0
DWIDTH 14 0
BBX 14 14 0 -2
BITMAP
0780
1860
2010
4008
5D08
8E84
8CC4
8CC4
8CC4
4CC8
5CE8
2010
1860
0780
ENDCHAR
STARTCHAR 24DE
ENCODING 9438
SWIDTH 1008 0
DWIDTH 14 0
BBX 14 14 0 -2
BITMAP
0780
1860
2010
4008
4788
8844
9864
9864
9864
4848
4788
2010
1860
0780
ENDCHAR
STARTCHAR 24DF
ENCODING 9439
SWIDTH 1008 0
DWIDTH 14 0
BBX 14 14 0 -2
BITMAP
0780
1860
2010
4008
5D88
8E44
8C64
8C64
8E44
4D88
4C08
3E10
1860
0780
ENDCHAR
STARTCHAR 24E0
ENCODING 9440
SWIDTH 1008 0
DWIDTH 14 0
BBX 14 14 0 -2
BITMAP
0780
1860
2010
4008
46E8
89C4
98C4
98C4
89C4
46C8
40C8
21F0
1860
0780
ENDCHAR
STARTCHAR 24E1
ENCODING 9441
SWIDTH 1008 0
DWIDTH 14 0
BBX 14 14 0 -2
BITMAP
0780
1860
2010
4008
5DC8
8E64
8C64
8C04
8C04
4C08
5E08
2010
1860
0780
ENDCHAR
STARTCHAR 24E2
ENCODING 9442
SWIDTH 1008 0
DWIDTH 14 0
BBX 14 14 0 -2
BITMAP
0780
1860
2010
4008
4FC8
9844
9E04
8F84
91E4
5868
57C8
2010
1860
0780
ENDCHAR
STARTCHAR 24E3
ENCODING 9443
SWIDTH 1008 0
DWIDTH 14 0
BBX 14 14 0 -2
BITMAP
0780
1860
2210
4608
5FC8
8604
8604
8604
8604
4648
4388
2010
1860
0780
ENDCHAR
STARTCHAR 24E4
ENCODING 9444
SWIDTH 1008 0
DWIDTH 14 0
BBX 14 14 0 -2
BITMAP
0780
1860
2010
4008
5CE8
8C64
8C64
8C64
8C64
4CE8
4728
2010
1860
0780
ENDCHAR
STARTCHAR 24E5
ENCODING 9445
SWIDTH 1008 0
DWIDTH 14 0
BBX 14 14 0 -2
BITMAP
0780
1860
2010
4008
7CE8
9844
8C44
8C84
8684
4708
4308
2010
1860
0780
ENDCHAR
STARTCHAR 24E6
ENCODING 9446
SWIDTH 1008 0
DWIDTH 14 0
BBX 14 14 0 -2
BITMAP
0780
1860
2010
4008
7B78
B324
B3A4
9BA4
9DC4
4CC8
4CC8
2010
1860
0780
ENDCHAR
STARTCHAR 24E7
ENCODING 9447
SWIDTH 1008 0
DWIDTH 14 0
BBX 14 14 0 -2
BITMAP
0780
1860
2010
4008
5CE8
8E44
8684
8304
8584
49C8
5CE8
2010
1860
0780
ENDCHAR
STARTCHAR 24E8
ENCODING 9448
SWIDTH 1008 0
DWIDTH 14 0
BBX 14 14 0 -2
BITMAP
0780
1860
2010
4008
5EE8
8C44
8644
8684
8384
4108
4D08
2E10
1860
0780
ENDCHAR
STARTCHAR 24E9
ENCODING 9449
SWIDTH 1008 0
DWIDTH 14 0
BBX 14 14 0 -2
BITMAP
0780
1860
2010
4008
5FE8
90C4
8384
8704
8E04
5828
5FE8
2010
1860
0780
ENDCHAR
STARTCHAR 24EB
ENCODING 9451
SWIDTH 1008 0
DWIDTH 14 0
BBX 14 14 0 -2
BITMAP
0780
1FE0
37B0
6738
4638
E73C
E73C
E73C
E73C
6738
6738
2210
1FE0
0780
ENDCHAR
STARTCHAR 24EC
ENCODING 9452
SWIDTH 1008 0
DWIDTH 14 0
BBX 14 14 0 -2
BITMAP
0780
1FE0
3610
64C8
44C8
E7CC
E79C
E73C
E77C
6678
6608
2010
1FE0
0780
ENDCHAR
STARTCHAR 24ED
ENCODING 9453
SWIDTH 1008 0
DWIDTH 14 0
BBX 14 14 0 -2
BITMAP
0780
1FE0
3610
64C8
44C8
E7CC
E71C
E7CC
E4CC
64C8
65C8
2210
1FE0
0780
ENDCHAR
STARTCHAR 24EE
ENCODING 9454
SWIDTH 1008 0
DWIDTH 14 0
BBX 14 14 0 -2
BITMAP
0780
1FE0
3790
6718
4618
E69C
E49C
E59C
E40C
6798
6798
2310
1FE0
0780
ENDCHAR
STARTCHAR 24EF
ENCODING 9455
SWIDTH 1008 0
DWIDTH 14 0
BBX 14 14 0 -2
BITMAP
0780
1FE0
3610
6618
46F8
E6FC
E61C
E7CC
E7CC
64C8
64C8
2210
1FE0
0780
ENDCHAR
STARTCHAR 24F0
ENCODING 9456
SWIDTH 1008 0
DWIDTH 14 0
BBX 14 14 0 -2
BITMAP
0780
1FE0
3610
64C8
44C8
E4FC
E41C
E4CC
E4CC
64C8
64C8
2210
1FE0
0780
ENDCHAR
STARTCHAR 24F1
ENCODING 9457
SWIDTH 1008 0
DWIDTH 14 0
BBX 14 14 0 -2
BITMAP
0780
1FE0
3610
6608
44D8
E7DC
E7BC
E7BC
E73C
6738
6738
2330
1FE0
0780
ENDCHAR
STARTCHAR 24F2
ENCODING 9458
SWIDTH 1008 0
DWIDTH 14 0
BBX 14 14 0 -2
BITMAP
0780
1FE0
3610
64C8
44E8
E46C
E61C
E58C
E5CC
65C8
64C8
2210
1FE0
0780
ENDCHAR
STARTCHAR 24F3
ENCODING 9459
SWIDTH 1008 0
DWIDTH 14 0
BBX 14 14 0 -2
BITMAP
0780
1FE0
3610
64C8
44C8
E4CC
E4CC
E60C
E7CC
64C8
64C8
2210
1FE0
0780
ENDCHAR
STARTCHAR 24F4
ENCODING 9460
SWIDTH 1008 0
DWIDTH 14 0
BBX 14 14 0 -2
BITMAP
0780
1FE0
2310
4A48
4848
F84C
F24C
F64C
E64C
4E48
4048
2110
1FE0
0780
ENDCHAR
STARTCHAR 24F5
ENCODING 9461
SWIDTH 1008 0
DWIDTH 14 0
BBX 14 14 0 -2
BITMAP
0780
1860
2790
5868
5128
A714
A114
A114
A114
5128
5868
2790
1860
0780
ENDCHAR
STARTCHAR 24F6
ENCODING 9462
SWIDTH 1008 0
DWIDTH 14 0
BBX 14 14 0 -2
BITMAP
0780
1860
2790
5868
5328
A494
A094
A314
A414
57A8
5868
2790
1860
0780
ENDCHAR
STARTCHAR 24F7
ENCODING 9463
SWIDTH 1008 0
DWIDTH 14 0
BBX 14 14 0 -2
BITMAP
0780
1860
2790
5868
5328
A494
A314
A094
A494
5328
5868
2790
1860
0780
ENDCHAR
STARTCHAR 24F8
ENCODING 9464
SWIDTH 1008 0
DWIDTH 14 0
BBX 14 14 0 -2
BITMAP
0780
1860
2790
5868
5128
A314
A514
A514
A794
5128
5868
2790
1860
0780
ENDCHAR
STARTCHAR 24F9
ENCODING 9465
SWIDTH 1008 0
DWIDTH 14 0
BBX 14 14 0 -2
BITMAP
0780
1860
2790
5868
57A8
A414
A714
A094
A494
5328
5868
2790
1860
0780
ENDCHAR
STARTCHAR 24FA
ENCODING 9466
SWIDTH 1008 0
DWIDTH 14 0
BBX 14 14 0 -2
BITMAP
0780
1860
2790
5868
5328
A494
A714
A494
A494
5328
5868
2790
1860
0780
ENDCHAR
STARTCHAR 24FB
ENCODING 9467
SWIDTH 1008 0
DWIDTH 14 0
BBX 14 14 0 -2
BITMAP
0780
1860
2790
5868
57A8
A094
A114
A214
A214
5228
5868
2790
1860
0780
ENDCHAR
STARTCHAR 24FC
ENCODING 9468
SWIDTH 1008 0
DWIDTH 14 0
BBX 14 14 0 -2
BITMAP
0780
1860
2790
5868
5328
A494
A314
A494
A494
5328
5868
2790
1860
0780
ENDCHAR
STARTCHAR 24FD
ENCODING 9469
SWIDTH 1008 0
DWIDTH 14 0
BBX 14 14 0 -2
BITMAP
0780
1860
2790
5868
5328
A494
A494
A394
A494
5328
5868
2790
1860
0780
ENDCHAR
STARTCHAR 24FE
ENCODING 9470
SWIDTH 1008 0
DWIDTH 14 0
BBX 14 14 0 -2
BITMAP
0780
1860
2790
5868
54A8
AD54
A554
A554
A554
54A8
5868
2790
1860
0780
ENDCHAR
STARTCHAR 2500
ENCODING 9472
SWIDTH 1008 0
DWIDTH 14 0
BBX 14 1 0 5
BITMAP
FFFC
ENDCHAR
STARTCHAR 2501
ENCODING 9473
SWIDTH 1008 0
DWIDTH 14 0
BBX 14 2 0 4
BITMAP
FFFC
FFFC
ENDCHAR
STARTCHAR 2502
ENCODING 9474
SWIDTH 1008 0
DWIDTH 14 0
BBX 1 14 7 -2
BITMAP
80
80
80
80
80
80
80
80
80
80
80
80
80
80
ENDCHAR
STARTCHAR 2503
ENCODING 9475
SWIDTH 1008 0
DWIDTH 14 0
BBX 2 14 6 -2
BITMAP
C0
C0
C0
C0
C0
C0
C0
C0
C0
C0
C0
C0
C0
C0
ENDCHAR
STARTCHAR 250C
ENCODING 9484
SWIDTH 1008 0
DWIDTH 14 0
BBX 7 7 7 5
BITMAP
FE
80
80
80
80
80
80
ENDCHAR
STARTCHAR 250F
ENCODING 9487
SWIDTH 1008 0
DWIDTH 14 0
BBX 8 8 6 4
BITMAP
FF
FF
C0
C0
C0
C0
C0
C0
ENDCHAR
STARTCHAR 2510
ENCODING 9488
SWIDTH 1008 0
DWIDTH 14 0
BBX 8 7 0 5
BITMAP
FF
01
01
01
01
01
01
ENDCHAR
STARTCHAR 2513
ENCODING 9491
SWIDTH 1008 0
DWIDTH 14 0
BBX 8 8 0 4
BITMAP
FF
FF
03
03
03
03
03
03
ENDCHAR
STARTCHAR 2514
ENCODING 9492
SWIDTH 1008 0
DWIDTH 14 0
BBX 7 8 7 -2
BITMAP
80
80
80
80
80
80
80
FE
ENDCHAR
STARTCHAR 2517
ENCODING 9495
SWIDTH 1008 0
DWIDTH 14 0
BBX 8 8 6 -2
BITMAP
C0
C0
C0
C0
C0
C0
FF
FF
ENDCHAR
STARTCHAR 2518
ENCODING 9496
SWIDTH 1008 0
DWIDTH 14 0
BBX 8 8 0 -2
BITMAP
01
01
01
01
01
01
01
FF
ENDCHAR
STARTCHAR 251B
ENCODING 9499
SWIDTH 1008 0
DWIDTH 14 0
BBX 8 8 0 -2
BITMAP
03
03
03
03
03
03
FF
FF
ENDCHAR
STARTCHAR 251C
ENCODING 9500
SWIDTH 1008 0
DWIDTH 14 0
BBX 7 14 7 -2
BITMAP
80
80
80
80
80
80
80
FE
80
80
80
80
80
80
ENDCHAR
STARTCHAR 251D
ENCODING 9501
SWIDTH 1008 0
DWIDTH 14 0
BBX 7 14 7 -2
BITMAP
80
80
80
80
80
80
FE
FE
80
80
80
80
80
80
ENDCHAR
STARTCHAR 2520
ENCODING 9504
SWIDTH 1008 0
DWIDTH 14 0
BBX 8 14 6 -2
BITMAP
C0
C0
C0
C0
C0
C0
C0
FF
C0
C0
C0
C0
C0
C0
ENDCHAR
STARTCHAR 2523
ENCODING 9507
SWIDTH 1008 0
DWIDTH 14 0
BBX 8 14 6 -2
BITMAP
C0
C0
C0
C0
C0
C0
FF
FF
C0
C0
C0
C0
C0
C0
ENDCHAR
STARTCHAR 2524
ENCODING 9508
SWIDTH 1008 0
DWIDTH 14 0
BBX 8 14 0 -2
BITMAP
01
01
01
01
01
01
01
FF
01
01
01
01
01
01
ENDCHAR
STARTCHAR 2525
ENCODING 9509
SWIDTH 1008 0
DWIDTH 14 0
BBX 8 14 0 -2
BITMAP
01
01
01
01
01
01
FF
FF
01
01
01
01
01
01
ENDCHAR
STARTCHAR 2528
ENCODING 9512
SWIDTH 1008 0
DWIDTH 14 0
BBX 8 14 0 -2
BITMAP
03
03
03
03
03
03
03
FF
03
03
03
03
03
03
ENDCHAR
STARTCHAR 252B
ENCODING 9515
SWIDTH 1008 0
DWIDTH 14 0
BBX 8 14 0 -2
BITMAP
03
03
03
03
03
03
FF
FF
03
03
03
03
03
03
ENDCHAR
STARTCHAR 252C
ENCODING 9516
SWIDTH 1008 0
DWIDTH 14 0
BBX 14 7 0 5
BITMAP
FFFC
0100
0100
0100
0100
0100
0100
ENDCHAR
STARTCHAR 252F
ENCODING 9519
SWIDTH 1008 0
DWIDTH 14 0
BBX 14 8 0 4
BITMAP
FFFC
FFFC
0100
0100
0100
0100
0100
0100
ENDCHAR
STARTCHAR 2530
ENCODING 9520
SWIDTH 1008 0
DWIDTH 14 0
BBX 14 7 0 5
BITMAP
FFFC
0300
0300
0300
0300
0300
0300
ENDCHAR
STARTCHAR 2533
ENCODING 9523
SWIDTH 1008 0
DWIDTH 14 0
BBX 14 8 0 4
BITMAP
FFFC
FFFC
0300
0300
0300
0300
0300
0300
ENDCHAR
STARTCHAR 2534
ENCODING 9524
SWIDTH 1008 0
DWIDTH 14 0
BBX 14 8 0 -2
BITMAP
0100
0100
0100
0100
0100
0100
0100
FFFC
ENDCHAR
STARTCHAR 2537
ENCODING 9527
SWIDTH 1008 0
DWIDTH 14 0
BBX 14 8 0 -2
BITMAP
0100
0100
0100
0100
0100
0100
FFFC
FFFC
ENDCHAR
STARTCHAR 2538
ENCODING 9528
SWIDTH 1008 0
DWIDTH 14 0
BBX 14 8 0 -2
BITMAP
0300
0300
0300
0300
0300
0300
0300
FFFC
ENDCHAR
STARTCHAR 253B
ENCODING 9531
SWIDTH 1008 0
DWIDTH 14 0
BBX 14 8 0 -2
BITMAP
0300
0300
0300
0300
0300
0300
FFFC
FFFC
ENDCHAR
STARTCHAR 253C
ENCODING 9532
SWIDTH 1008 0
DWIDTH 14 0
BBX 14 14 0 -2
BITMAP
0100
0100
0100
0100
0100
0100
0100
FFFC
0100
0100
0100
0100
0100
0100
ENDCHAR
STARTCHAR 253F
ENCODING 9535
SWIDTH 1008 0
DWIDTH 14 0
BBX 14 14 0 -2
BITMAP
0100
0100
0100
0100
0100
0100
FFFC
FFFC
0100
0100
0100
0100
0100
0100
ENDCHAR
STARTCHAR 2542
ENCODING 9538
SWIDTH 1008 0
DWIDTH 14 0
BBX 14 14 0 -2
BITMAP
0300
0300
0300
0300
0300
0300
0300
FFFC
0300
0300
0300
0300
0300
0300
ENDCHAR
STARTCHAR 254B
ENCODING 9547
SWIDTH 1008 0
DWIDTH 14 0
BBX 14 14 0 -2
BITMAP
0300
0300
0300
0300
0300
0300
FFFC
FFFC
0300
0300
0300
0300
0300
0300
ENDCHAR
STARTCHAR 25A0
ENCODING 9632
SWIDTH 1008 0
DWIDTH 14 0
BBX 12 12 1 -1
BITMAP
FFF0
FFF0
FFF0
FFF0
FFF0
FFF0
FFF0
FFF0
FFF0
FFF0
FFF0
FFF0
ENDCHAR
STARTCHAR 25A1
ENCODING 9633
SWIDTH 1008 0
DWIDTH 14 0
BBX 12 12 1 -1
BITMAP
FFF0
8010
8010
8010
8010
8010
8010
8010
8010
8010
8010
FFF0
ENDCHAR
STARTCHAR 25B1
ENCODING 9649
SWIDTH 1008 0
DWIDTH 14 0
BBX 14 8 0 1
BITMAP
0FFC
1008
1008
2010
2010
4020
4020
FFC0
ENDCHAR
STARTCHAR 25B2
ENCODING 9650
SWIDTH 1008 0
DWIDTH 14 0
BBX 11 11 2 -1
BITMAP
0400
0400
0E00
0E00
1F00
1F00
3F80
3F80
7FC0
7FC0
FFE0
ENDCHAR
STARTCHAR 25B3
ENCODING 9651
SWIDTH 1008 0
DWIDTH 14 0
BBX 11 11 2 -1
BITMAP
0400
0400
0A00
0A00
1100
1100
2080
2080
4040
4040
FFE0
ENDCHAR
STARTCHAR 25B6
ENCODING 9654
SWIDTH 1008 0
DWIDTH 14 0
BBX 11 11 2 -1
BITMAP
8000
E000
F800
FE00
FF80
FFE0
FF80
FE00
F800
E000
8000
ENDCHAR
STARTCHAR 25B7
ENCODING 9655
SWIDTH 1008 0
DWIDTH 14 0
BBX 11 11 2 -1
BITMAP
8000
E000
9800
8600
8180
8060
8180
8600
9800
E000
8000
ENDCHAR
STARTCHAR 25BC
ENCODING 9660
SWIDTH 1008 0
DWIDTH 14 0
BBX 11 11 2 -1
BITMAP
FFE0
7FC0
7FC0
3F80
3F80
1F00
1F00
0E00
0E00
0400
0400
ENDCHAR
STARTCHAR 25BD
ENCODING 9661
SWIDTH 1008 0
DWIDTH 14 0
BBX 11 11 2 -1
BITMAP
FFE0
4040
4040
2080
2080
1100
1100
0A00
0A00
0400
0400
ENDCHAR
STARTCHAR 25C0
ENCODING 9664
SWIDTH 1008 0
DWIDTH 14 0
BBX 11 11 2 -1
BITMAP
0020
00E0
03E0
0FE0
3FE0
FFE0
3FE0
0FE0
03E0
00E0
0020
ENDCHAR
STARTCHAR 25C1
ENCODING 9665
SWIDTH 1008 0
DWIDTH 14 0
BBX 11 11 2 -1
BITMAP
0020
00E0
0320
0C20
3020
C020
3020
0C20
0320
00E0
0020
ENDCHAR
STARTCHAR 25C6
ENCODING 9670
SWIDTH 1008 0
DWIDTH 14 0
BBX 13 13 1 -1
BITMAP
0200
0700
0F80
1FC0
3FE0
7FF0
FFF8
7FF0
3FE0
1FC0
0F80
0700
0200
ENDCHAR
STARTCHAR 25C7
ENCODING 9671
SWIDTH 1008 0
DWIDTH 14 0
BBX 13 13 1 -1
BITMAP
0200
0500
0880
1040
2020
4010
8008
4010
2020
1040
0880
0500
0200
ENDCHAR
STARTCHAR 25C9
ENCODING 9673
SWIDTH 1008 0
DWIDTH 14 0
BBX 13 13 1 -1
BITMAP
0F80
3060
4710
5FD0
9FC8
BFE8
BFE8
BFE8
9FC8
5FD0
4710
3060
0F80
ENDCHAR
STARTCHAR 25CB
ENCODING 9675
SWIDTH 1008 0
DWIDTH 14 0
BBX 11 11 2 0
BITMAP
0E00
3180
4040
4040
8020
8020
8020
4040
4040
3180
0E00
ENDCHAR
STARTCHAR 25CE
ENCODING 9678
SWIDTH 1008 0
DWIDTH 14 0
BBX 11 11 2 0
BITMAP
0E00
3180
4E40
5140
A0A0
A0A0
A0A0
5140
4E40
3180
0E00
ENDCHAR
STARTCHAR 25CF
ENCODING 9679
SWIDTH 1008 0
DWIDTH 14 0
BBX 11 11 2 0
BITMAP
0E00
3F80
7FC0
7FC0
FFE0
FFE0
FFE0
7FC0
7FC0
3F80
0E00
ENDCHAR
STARTCHAR 25D0
ENCODING 9680
SWIDTH 1008 0
DWIDTH 14 0
BBX 12 12 1 -1
BITMAP
0F00
3CC0
7C20
7C20
FC10
FC10
FC10
FC10
7C20
7C20
3CC0
0F00
ENDCHAR
STARTCHAR 25D1
ENCODING 9681
SWIDTH 1008 0
DWIDTH 14 0
BBX 12 12 1 -1
BITMAP
0F00
33C0
43E0
43E0
83F0
83F0
83F0
83F0
43E0
43E0
3BC0
0F00
ENDCHAR
STARTCHAR 25D2
ENCODING 9682
SWIDTH 1008 0
DWIDTH 14 0
BBX 12 12 1 -1
BITMAP
0F00
30C0
4020
4020
8010
8010
FFF0
FFF0
7FE0
7FE0
3FC0
0F00
ENDCHAR
STARTCHAR 25D3
ENCODING 9683
SWIDTH 1008 0
DWIDTH 14 0
BBX 12 12 1 -1
BITMAP
0F00
3FC0
7FE0
7FE0
FFF0
FFF0
8010
8010
4020
4020
30C0
0F00
ENDCHAR
STARTCHAR 25E6
ENCODING 9702
SWIDTH 1008 0
DWIDTH 14 0
BBX 5 5 5 3
BITMAP
70
88
88
88
70
ENDCHAR
STARTCHAR 25EF
ENCODING 9711
SWIDTH 1008 0
DWIDTH 14 0
BBX 13 13 1 -1
BITMAP
0F80
3060
4010
4010
8008
8008
8008
8008
8008
4010
4010
3060
0F80
ENDCHAR
STARTCHAR 2600
ENCODING 9728
SWIDTH 1008 0
DWIDTH 14 0
BBX 13 13 0 -2
BITMAP
0200
4210
2020
0000
0700
0F80
CF98
0F80
0700
0000
2020
4210
0200
ENDCHAR
STARTCHAR 2601
ENCODING 9729
SWIDTH 1008 0
DWIDTH 14 0
BBX 13 9 0 0
BITMAP
0600
0F60
0FF0
37E0
7FD0
FFF8
7FF8
3BF0
01E0
ENDCHAR
STARTCHAR 2602
ENCODING 9730
SWIDTH 1008 0
DWIDTH 14 0
BBX 13 14 0 -2
BITMAP
0200
0200
0F80
3FE0
7FF0
7FF0
DAD8
9288
0200
0200
0200
1200
0A00
0600
ENDCHAR
STARTCHAR 2603
ENCODING 9731
SWIDTH 1008 0
DWIDTH 14 0
BBX 14 14 0 -2
BITMAP
0260
20F4
8FF0
1020
26D0
A6D4
5008
2290
4108
4004
4104
2008
9110
0FE0
ENDCHAR
STARTCHAR 2605
ENCODING 9733
SWIDTH 1008 0
DWIDTH 14 0
BBX 13 12 1 -1
BITMAP
0200
0200
0700
0700
FFF8
7FF0
1FC0
0F80
1FC0
1DC0
38E0
2020
ENDCHAR
STARTCHAR 2606
ENCODING 9734
SWIDTH 1008 0
DWIDTH 14 0
BBX 13 12 1 -1
BITMAP
0200
0200
0500
0500
F8F8
6030
18C0
0880
1240
1540
38E0
2020
ENDCHAR
STARTCHAR 260E
ENCODING 9742
SWIDTH 1008 0
DWIDTH 14 0
BBX 12 10 1 0
BITMAP
7FE0
C930
C930
1F80
79E0
70E0
70E0
F9F0
FFF0
FFF0
ENDCHAR
STARTCHAR 2616
ENCODING 9750
SWIDTH 1008 0
DWIDTH 14 0
BBX 13 12 1 -1
BITMAP
0200
0D80
3060
2020
2020
4010
4010
4010
4010
8008
8008
FFF8
ENDCHAR
STARTCHAR 2617
ENCODING 9751
SWIDTH 1008 0
DWIDTH 14 0
BBX 13 12 1 -1
BITMAP
0200
0F80
3FE0
3FE0
3FE0
7FF0
7FF0
7FF0
7FF0
FFF8
FFF8
FFF8
ENDCHAR
STARTCHAR 261E
ENCODING 9758
SWIDTH 1008 0
DWIDTH 14 0
BBX 13 10 1 0
BITMAP
0FF0
9208
E3F0
8480
8B00
F080
8300
E080
9300
0E00
ENDCHAR
STARTCHAR 2640
ENCODING 9792
SWIDTH 1008 0
DWIDTH 14 0
BBX 9 13 3 -1
BITMAP
1C00
2200
4100
4100
4100
2200
1C00
0800
0800
FF80
0800
0800
0800
ENDCHAR
STARTCHAR 2642
ENCODING 9794
SWIDTH 1008 0
DWIDTH 14 0
BBX 12 12 1 -1
BITMAP
07F0
0030
0050
0090
0110
3A10
4410
8200
8200
8200
4400
3800
ENDCHAR
STARTCHAR 2660
ENCODING 9824
SWIDTH 1008 0
DWIDTH 14 0
BBX 11 11 1 -1
BITMAP
0400
0E00
1F00
3F80
7FC0
FFE0
FFE0
FFE0
75C0
0400
0E00
ENDCHAR
STARTCHAR 2661
ENCODING 9825
SWIDTH 1008 0
DWIDTH 14 0
BBX 11 11 1 -1
BITMAP
71C0
CA60
8420
8420
8020
C060
4040
3180
1100
0E00
0400
ENDCHAR
STARTCHAR 2662
ENCODING 9826
SWIDTH 1008 0
DWIDTH 14 0
BBX 11 11 1 -1
BITMAP
0400
0A00
1B00
2080
60C0
C060
60C0
2080
1B00
0A00
0400
ENDCHAR
STARTCHAR 2663
ENCODING 9827
SWIDTH 1008 0
DWIDTH 14 0
BBX 11 11 1 -1
BITMAP
0E00
1F00
1F00
2E80
7FC0
FFE0
FFE0
FFE0
75C0
0400
0E00
ENDCHAR
STARTCHAR 2664
ENCODING 9828
SWIDTH 1008 0
DWIDTH 14 0
BBX 11 11 1 -1
BITMAP
0400
0E00
1B00
3180
60C0
C060
8020
CE60
75C0
0400
0E00
ENDCHAR
STARTCHAR 2665
ENCODING 9829
SWIDTH 1008 0
DWIDTH 14 0
BBX 11 11 1 -1
BITMAP
71C0
FBE0
FBE0
FFE0
FFE0
FFE0
7FC0
3F80
1F00
0E00
0400
ENDCHAR
STARTCHAR 2666
ENCODING 9830
SWIDTH 1008 0
DWIDTH 14 0
BBX 11 11 1 -1
BITMAP
0400
0E00
1F00
3F80
7FC0
FFE0
7FC0
3F80
1F00
0E00
0400
ENDCHAR
STARTCHAR 2667
ENCODING 9831
SWIDTH 1008 0
DWIDTH 14 0
BBX 11 11 1 -1
BITMAP
0E00
1100
1100
2A80
71C0
8020
8020
CE60
75C0
0400
0E00
ENDCHAR
STARTCHAR 2668
ENCODING 9832
SWIDTH 1008 0
DWIDTH 14 0
BBX 12 12 1 -1
BITMAP
0200
1240
1440
2480
2480
1240
5260
9250
A490
8410
6060
1F80
ENDCHAR
STARTCHAR 2669
ENCODING 9833
SWIDTH 1008 0
DWIDTH 14 0
BBX 4 13 4 -2
BITMAP
10
10
10
10
10
10
10
10
10
70
F0
F0
60
ENDCHAR
STARTCHAR 266A
ENCODING 9834
SWIDTH 1008 0
DWIDTH 14 0
BBX 8 13 4 -2
BITMAP
10
18
1C
16
12
13
11
11
11
72
F0
F0
60
ENDCHAR
STARTCHAR 266B
ENCODING 9835
SWIDTH 1008 0
DWIDTH 14 0
BBX 11 14 1 -2
BITMAP
1E00
1FE0
11E0
1020
1020
1020
1020
1020
1020
7020
F0E0
E1E0
C1C0
0180
ENDCHAR
STARTCHAR 266C
ENCODING 9836
SWIDTH 1008 0
DWIDTH 14 0
BBX 11 14 1 -2
BITMAP
1E00
1FE0
11E0
1E20
1FE0
11E0
1020
1020
1020
7020
F0E0
E1E0
C1C0
0180
ENDCHAR
STARTCHAR 266D
ENCODING 9837
SWIDTH 1008 0
DWIDTH 14 0
BBX 6 12 5 -1
BITMAP
80
80
80
80
80
B8
CC
8C
88
90
A0
C0
ENDCHAR
STARTCHAR 266E
ENCODING 9838
SWIDTH 1008 0
DWIDTH 14 0
BBX 6 12 4 -1
BITMAP
80
84
9C
FC
E4
84
84
9C
FC
E4
84
04
ENDCHAR
STARTCHAR 266F
ENCODING 9839
SWIDTH 1008 0
DWIDTH 14 0
BBX 8 13 3 -2
BITMAP
04
24
27
3F
FC
E4
24
27
3F
FC
E4
24
20
ENDCHAR
STARTCHAR 2713
ENCODING 10003
SWIDTH 1008 0
DWIDTH 14 0
BBX 10 10 2 0
BITMAP
0040
0080
0100
0200
0600
0400
C800
6800
3000
2000
ENDCHAR
STARTCHAR 2756
ENCODING 10070
SWIDTH 1008 0
DWIDTH 14 0
BBX 13 14 1 -2
BITMAP
0200
0700
0F80
0F80
2720
7270
F8F8
F8F8
7270
2720
0F80
0F80
0700
0200
ENDCHAR
STARTCHAR 2776
ENCODING 10102
SWIDTH 1008 0
DWIDTH 14 0
BBX 14 14 0 -2
BITMAP
0780
1FE0
3EF0
7CF8
70F8
FCFC
FCFC
FCFC
FCFC
7CF8
7CF8
3030
1FE0
0780
ENDCHAR
STARTCHAR 2777
ENCODING 10103
SWIDTH 1008 0
DWIDTH 14 0
BBX 14 14 0 -2
BITMAP
0780
1FE0
3070
6738
6738
FF3C
FE7C
FCFC
F9FC
77D8
7038
2030
1FE0
0780
ENDCHAR
STARTCHAR 2778
ENCODING 10104
SWIDTH 1008 0
DWIDTH 14 0
BBX 14 14 0 -2
BITMAP
0780
1FE0
3070
6738
6738
FF3C
FC7C
F73C
E33C
6738
7738
3870
1FE0
0780
ENDCHAR
STARTCHAR 2779
ENCODING 10105
SWIDTH 1008 0
DWIDTH 14 0
BBX 14 14 0 -2
BITMAP
0780
1FE0
3CF0
78F8
70F8
F4FC
E4FC
ECFC
E03C
7CF8
7CF8
3870
1FE0
0780
ENDCHAR
STARTCHAR 277A
ENCODING 10106
SWIDTH 1008 0
DWIDTH 14 0
BBX 14 14 0 -2
BITMAP
0780
1FE0
3030
7078
77F8
F7FC
F07C
FF3C
FF3C
6738
6738
3070
1FE0
0780
ENDCHAR
STARTCHAR 277B
ENCODING 10107
SWIDTH 1008 0
DWIDTH 14 0
BBX 14 14 0 -2
BITMAP
0780
1FE0
3870
7738
6738
E7FC
E07C
E73C
E73C
6738
6738
3070
1FE0
0780
ENDCHAR
STARTCHAR 277C
ENCODING 10108
SWIDTH 1008 0
DWIDTH 14 0
BBX 14 14 0 -2
BITMAP
0780
1FE0
3030
7078
6778
FF7C
FEFC
FEFC
FCFC
7CFC
7CF8
3CF0
1FE0
0780
ENDCHAR
STARTCHAR 277D
ENCODING 10109
SWIDTH 1008 0
DWIDTH 14 0
BBX 14 14 0 -2
BITMAP
0780
1FE0
3070
6738
6738
E33C
F07C
E63C
E73C
6738
6738
3070
1FE0
0780
ENDCHAR
STARTCHAR 277E
ENCODING 10110
SWIDTH 1008 0
DWIDTH 14 0
BBX 14 14 0 -2
BITMAP
0780
1FE0
3070
6738
6738
E73C
E73C
F03C
FF3C
6738
6778
30F0
1FE0
0780
ENDCHAR
STARTCHAR 277F
ENCODING 10111
SWIDTH 1008 0
DWIDTH 14 0
BBX 14 14 0 -2
BITMAP
0780
1FE0
3630
6498
4498
E49C
E49C
E49C
E49C
6498
6498
2230
1FE0
0780
ENDCHAR
STARTCHAR 2934
ENCODING 10548
SWIDTH 1008 0
DWIDTH 14 0
BBX 13 11 1 -1
BITMAP
0040
0040
00E0
00E0
0150
0248
0040
0080
0080
0300
FC00
ENDCHAR
STARTCHAR 2935
ENCODING 10549
SWIDTH 1008 0
DWIDTH 14 0
BBX 13 11 1 -1
BITMAP
FC00
0300
0080
0080
0040
0248
0150
00E0
00E0
0040
0040
ENDCHAR
STARTCHAR 29BF
ENCODING 10687
SWIDTH 1008 0
DWIDTH 14 0
BBX 13 13 1 -1
BITMAP
0F80
3060
4010
4010
8008
8708
8708
8708
8008
4010
4010
3060
0F80
ENDCHAR
STARTCHAR 29FA
ENCODING 10746
SWIDTH 1008 0
DWIDTH 14 0
BBX 12 11 1 -1
BITMAP
1080
1080
1080
1080
1080
FFF0
1080
1080
1080
1080
1080
ENDCHAR
STARTCHAR 29FB
ENCODING 10747
SWIDTH 1008 0
DWIDTH 14 0
BBX 12 11 1 -1
BITMAP
2480
2480
2480
2480
2480
FFF0
2480
2480
2480
2480
2480
ENDCHAR
STARTCHAR 3000
ENCODING 12288
SWIDTH 1008 0
DWIDTH 14 0
BBX 0 0 0 -2
BITMAP
ENDCHAR
STARTCHAR 3001
ENCODING 12289
SWIDTH 1008 0
DWIDTH 14 0
BBX 4 4 1 8
BITMAP
80
60
30
10
ENDCHAR
STARTCHAR 3002
ENCODING 12290
SWIDTH 1008 0
DWIDTH 14 0
BBX 4 4 1 8
BITMAP
60
90
90
60
ENDCHAR
STARTCHAR 3003
ENCODING 12291
SWIDTH 1008 0
DWIDTH 14 0
BBX 7 6 3 2
BITMAP
22
22
22
44
44
88
ENDCHAR
STARTCHAR 3005
ENCODING 12293
SWIDTH 1008 0
DWIDTH 14 0
BBX 9 10 3 2
BITMAP
1000
1000
1F80
2100
2100
4200
9400
0C00
0200
0100
ENDCHAR
STARTCHAR 3006
ENCODING 12294
SWIDTH 1008 0
DWIDTH 14 0
BBX 10 11 2 0
BITMAP
0040
0040
0080
1900
2600
2400
4A00
5000
6000
4000
8000
ENDCHAR
STARTCHAR 3007
ENCODING 12295
SWIDTH 1008 0
DWIDTH 14 0
BBX 13 13 1 -1
BITMAP
0F80
3060
4010
4010
8008
8008
8008
8008
8008
4010
4010
3060
0F80
ENDCHAR
STARTCHAR 3008
ENCODING 12296
SWIDTH 1008 0
DWIDTH 14 0
BBX 7 14 6 -2
BITMAP
02
04
08
10
20
40
80
80
40
20
10
08
04
02
ENDCHAR
STARTCHAR 3009
ENCODING 12297
SWIDTH 1008 0
DWIDTH 14 0
BBX 7 14 1 -2
BITMAP
80
40
20
10
08
04
02
02
04
08
10
20
40
80
ENDCHAR
STARTCHAR 300A
ENCODING 12298
SWIDTH 1008 0
DWIDTH 14 0
BBX 7 14 6 -2
BITMAP
12
12
24
24
48
48
90
90
48
48
24
24
12
12
ENDCHAR
STARTCHAR 300B
ENCODING 12299
SWIDTH 1008 0
DWIDTH 14 0
BBX 7 14 1 -2
BITMAP
90
90
48
48
24
24
12
12
24
24
48
48
90
90
ENDCHAR
STARTCHAR 300C
ENCODING 12300
SWIDTH 1008 0
DWIDTH 14 0
BBX 6 14 7 -2
BITMAP
FC
80
80
80
80
80
80
80
80
80
80
80
80
80
ENDCHAR
STARTCHAR 300D
ENCODING 12301
SWIDTH 1008 0
DWIDTH 14 0
BBX 6 14 1 -2
BITMAP
04
04
04
04
04
04
04
04
04
04
04
04
04
FC
ENDCHAR
STARTCHAR 300E
ENCODING 12302
SWIDTH 1008 0
DWIDTH 14 0
BBX 7 14 6 -2
BITMAP
FE
82
BE
A0
A0
A0
A0
A0
A0
A0
A0
A0
A0
E0
ENDCHAR
STARTCHAR 300F
ENCODING 12303
SWIDTH 1008 0
DWIDTH 14 0
BBX 7 14 1 -2
BITMAP
0E
0A
0A
0A
0A
0A
0A
0A
0A
0A
0A
FA
82
FE
ENDCHAR
STARTCHAR 3010
ENCODING 12304
SWIDTH 1008 0
DWIDTH 14 0
BBX 5 14 8 -2
BITMAP
F8
F0
E0
E0
C0
C0
C0
C0
C0
C0
E0
E0
F0
F8
ENDCHAR
STARTCHAR 3011
ENCODING 12305
SWIDTH 1008 0
DWIDTH 14 0
BBX 5 14 1 -2
BITMAP
F8
78
38
38
18
18
18
18
18
18
38
38
78
F8
ENDCHAR
STARTCHAR 3012
ENCODING 12306
SWIDTH 1008 0
DWIDTH 14 0
BBX 12 12 1 -1
BITMAP
7FE0
7FE0
0000
0000
FFF0
FFF0
0600
0600
0600
0600
0600
0600
ENDCHAR
STARTCHAR 3013
ENCODING 12307
SWIDTH 1008 0
DWIDTH 14 0
BBX 10 6 2 2
BITMAP
FFC0
FFC0
0000
0000
FFC0
FFC0
ENDCHAR
STARTCHAR 3014
ENCODING 12308
SWIDTH 1008 0
DWIDTH 14 0
BBX 4 14 9 -2
BITMAP
10
20
40
80
80
80
80
80
80
80
80
40
20
10
ENDCHAR
STARTCHAR 3015
ENCODING 12309
SWIDTH 1008 0
DWIDTH 14 0
BBX 4 14 1 -2
BITMAP
80
40
20
10
10
10
10
10
10
10
10
20
40
80
ENDCHAR
STARTCHAR 3016
ENCODING 12310
SWIDTH 1008 0
DWIDTH 14 0
BBX 7 14 6 -2
BITMAP
FE
84
88
88
90
90
90
90
90
90
88
88
84
FE
ENDCHAR
STARTCHAR 3017
ENCODING 12311
SWIDTH 1008 0
DWIDTH 14 0
BBX 7 14 1 -2
BITMAP
FE
42
22
22
12
12
12
12
12
12
22
22
42
FE
ENDCHAR
STARTCHAR 3018
ENCODING 12312
SWIDTH 1008 0
DWIDTH 14 0
BBX 7 14 6 -2
BITMAP
0E
30
C6
98
A0
A0
A0
A0
A0
A0
98
C6
30
0E
ENDCHAR
STARTCHAR 3019
ENCODING 12313
SWIDTH 1008 0
DWIDTH 14 0
BBX 7 14 1 -2
BITMAP
E0
18
C6
32
0A
0A
0A
0A
0A
0A
32
C6
18
E0
ENDCHAR
STARTCHAR 301C
ENCODING 12316
SWIDTH 1008 0
DWIDTH 14 0
BBX 12 4 1 3
BITMAP
3800
4410
8220
01C0
ENDCHAR
STARTCHAR 301D
ENCODING 12317
SWIDTH 1008 0
DWIDTH 14 0
BBX 6 4 6 -1
BITMAP
D8
6C
6C
24
ENDCHAR
STARTCHAR 301F
ENCODING 12319
SWIDTH 1008 0
DWIDTH 14 0
BBX 6 4 1 6
BITMAP
D8
6C
6C
24
ENDCHAR
STARTCHAR 3020
ENCODING 12320
SWIDTH 1008 0
DWIDTH 14 0
BBX 14 14 0 -2
BITMAP
3FF0
3FF0
0000
3FF0
3FF0
4308
BB74
AB54
BB74
4008
4848
4788
3030
0FC0
ENDCHAR
STARTCHAR 3033
ENCODING 12339
SWIDTH 1008 0
DWIDTH 14 0
BBX 11 6 3 2
BITMAP
7000
8C00
0200
0180
0040
0020
ENDCHAR
STARTCHAR 3034
ENCODING 12340
SWIDTH 1008 0
DWIDTH 14 0
BBX 11 10 3 -2
BITMAP
2000
4000
1000
2000
7000
8C00
0200
0180
0040
0020
ENDCHAR
STARTCHAR 3035
ENCODING 12341
SWIDTH 1008 0
DWIDTH 14 0
BBX 11 6 0 2
BITMAP
00E0
0300
0C00
1000
6000
8000
ENDCHAR
STARTCHAR 303B
ENCODING 12347
SWIDTH 1008 0
DWIDTH 14 0
BBX 6 11 4 0
BITMAP
40
30
18
38
40
80
80
60
30
18
0C
ENDCHAR
STARTCHAR 303C
ENCODING 12348
SWIDTH 1008 0
DWIDTH 14 0
BBX 14 14 0 -2
BITMAP
FFFC
800C
8014
8024
8044
8084
8104
8204
8404
8804
9004
A004
C004
FFFC
ENDCHAR
STARTCHAR 303D
ENCODING 12349
SWIDTH 1008 0
DWIDTH 14 0
BBX 10 11 3 0
BITMAP
6C00
9200
9300
0100
0100
0180
00C0
00C0
00C0
00C0
0040
ENDCHAR
STARTCHAR 3041
ENCODING 12353
SWIDTH 1008 0
DWIDTH 14 0
BBX 10 11 2 1
BITMAP
1000
0800
4E00
3800
1200
1F80
3440
5840
9840
A880
4300
ENDCHAR
STARTCHAR 3042
ENCODING 12354
SWIDTH 1008 0
DWIDTH 14 0
BBX 11 13 2 -2
BITMAP
1000
0800
0B00
7C00
1200
1200
1F80
3440
5420
8820
9820
A840
4180
ENDCHAR
STARTCHAR 3043
ENCODING 12355
SWIDTH 1008 0
DWIDTH 14 0
BBX 9 7 3 4
BITMAP
8200
8100
8080
8180
5000
6000
2000
ENDCHAR
STARTCHAR 3044
ENCODING 12356
SWIDTH 1008 0
DWIDTH 14 0
BBX 12 9 1 1
BITMAP
8000
40C0
4020
4010
4410
4830
2810
3000
1000
ENDCHAR
STARTCHAR 3045
ENCODING 12357
SWIDTH 1008 0
DWIDTH 14 0
BBX 7 10 3 2
BITMAP
10
0C
00
9C
62
02
02
02
04
18
ENDCHAR
STARTCHAR 3046
ENCODING 12358
SWIDTH 1008 0
DWIDTH 14 0
BBX 8 14 3 -2
BITMAP
10
0E
00
00
1E
E1
01
01
01
01
02
02
04
08
ENDCHAR
STARTCHAR 3047
ENCODING 12359
SWIDTH 1008 0
DWIDTH 14 0
BBX 9 10 3 2
BITMAP
1000
0C00
0000
0E00
7400
0800
1000
3800
4800
8780
ENDCHAR
STARTCHAR 3048
ENCODING 12360
SWIDTH 1008 0
DWIDTH 14 0
BBX 11 13 2 -2
BITMAP
1000
0E00
0000
0000
4700
3A00
0400
0800
1000
3800
4400
8400
83E0
ENDCHAR
STARTCHAR 3049
ENCODING 12361
SWIDTH 1008 0
DWIDTH 14 0
BBX 10 10 2 2
BITMAP
4100
20C0
3080
E000
2F00
3080
6080
A080
6300
2000
ENDCHAR
STARTCHAR 304A
ENCODING 12362
SWIDTH 1008 0
DWIDTH 14 0
BBX 12 12 2 -1
BITMAP
2000
10C0
1420
1830
7000
1180
1640
1820
3020
D220
31C0
1000
ENDCHAR
STARTCHAR 304B
ENCODING 12363
SWIDTH 1008 0
DWIDTH 14 0
BBX 12 12 1 -1
BITMAP
1000
0800
08C0
8E20
7910
1130
1100
1100
2100
2200
4A00
4400
ENDCHAR
STARTCHAR 304C
ENCODING 12364
SWIDTH 1008 0
DWIDTH 14 0
BBX 13 13 1 -2
BITMAP
0010
1048
0820
0880
8E40
7920
1110
1130
1100
2100
2200
4A00
4400
ENDCHAR
STARTCHAR 304D
ENCODING 12365
SWIDTH 1008 0
DWIDTH 14 0
BBX 9 14 3 -2
BITMAP
1000
0800
0B00
7C00
0400
0780
FA00
0100
0100
3F80
4080
4000
3000
0E00
ENDCHAR
STARTCHAR 304E
ENCODING 12366
SWIDTH 1008 0
DWIDTH 14 0
BBX 12 14 2 -2
BITMAP
1020
0890
0B40
7C00
0400
0780
FA00
0100
0100
3F80
4080
4000
3000
0E00
ENDCHAR
STARTCHAR 304F
ENCODING 12367
SWIDTH 1008 0
DWIDTH 14 0
BBX 6 14 4 -2
BITMAP
08
04
04
08
10
60
80
80
40
20
10
08
04
04
ENDCHAR
STARTCHAR 3050
ENCODING 12368
SWIDTH 1008 0
DWIDTH 14 0
BBX 10 14 4 -2
BITMAP
0800
0400
0400
0880
1240
6100
8000
8000
4000
2000
1000
0800
0400
0400
ENDCHAR
STARTCHAR 3051
ENCODING 12369
SWIDTH 1008 0
DWIDTH 14 0
BBX 12 14 2 -2
BITMAP
0200
8100
4080
4080
40F0
8F80
8080
8080
8080
8080
6080
4100
4100
0200
ENDCHAR
STARTCHAR 3052
ENCODING 12370
SWIDTH 1008 0
DWIDTH 14 0
BBX 13 14 1 -2
BITMAP
0210
8148
40A0
4080
40F0
8F80
8080
8080
8080
8080
6080
4100
4100
0200
ENDCHAR
STARTCHAR 3053
ENCODING 12371
SWIDTH 1008 0
DWIDTH 14 0
BBX 10 12 2 -1
BITMAP
2000
1F80
0200
0400
0000
0000
0000
0000
8000
8000
4040
3F80
ENDCHAR
STARTCHAR 3054
ENCODING 12372
SWIDTH 1008 0
DWIDTH 14 0
BBX 12 13 2 -2
BITMAP
0020
2010
1FC0
0220
0400
0000
0000
0000
0000
8000
8000
4040
3F80
ENDCHAR
STARTCHAR 3055
ENCODING 12373
SWIDTH 1008 0
DWIDTH 14 0
BBX 10 13 2 -2
BITMAP
1000
0800
04C0
8700
7A00
0100
0100
1F80
2080
4000
4000
3000
0F00
ENDCHAR
STARTCHAR 3056
ENCODING 12374
SWIDTH 1008 0
DWIDTH 14 0
BBX 12 13 2 -2
BITMAP
1020
0810
04C0
8720
7A00
0100
0100
1F80
2080
4000
4000
3000
0F00
ENDCHAR
STARTCHAR 3057
ENCODING 12375
SWIDTH 1008 0
DWIDTH 14 0
BBX 10 12 3 -1
BITMAP
8000
4000
4000
4000
4000
4000
4000
4000
4040
4080
2300
1C00
ENDCHAR
STARTCHAR 3058
ENCODING 12376
SWIDTH 1008 0
DWIDTH 14 0
BBX 10 12 3 -1
BITMAP
8100
4480
4200
4000
4000
4000
4000
4000
4040
4080
2300
1C00
ENDCHAR
STARTCHAR 3059
ENCODING 12377
SWIDTH 1008 0
DWIDTH 14 0
BBX 12 14 1 -2
BITMAP
0200
0100
81F0
7F00
0100
0700
0980
0880
0780
0080
0100
0100
0200
0400
ENDCHAR
STARTCHAR 305A
ENCODING 12378
SWIDTH 1008 0
DWIDTH 14 0
BBX 13 14 1 -2
BITMAP
0250
0128
81F0
7F00
0100
0700
0980
0880
0780
0080
0100
0100
0200
0400
ENDCHAR
STARTCHAR 305B
ENCODING 12379
SWIDTH 1008 0
DWIDTH 14 0
BBX 12 12 1 -1
BITMAP
0100
2080
1080
10F0
9780
7880
1080
1080
1180
1080
0800
07C0
ENDCHAR
STARTCHAR 305C
ENCODING 12380
SWIDTH 1008 0
DWIDTH 14 0
BBX 13 13 1 -2
BITMAP
0010
0108
20A0
1090
10F0
9780
7880
1080
1080
1180
1080
0800
07C0
ENDCHAR
STARTCHAR 305D
ENCODING 12381
SWIDTH 1008 0
DWIDTH 14 0
BBX 11 13 2 -1
BITMAP
2700
1900
0200
0400
08E0
1F00
E200
0400
0800
0800
0800
0400
0380
ENDCHAR
STARTCHAR 305E
ENCODING 12382
SWIDTH 1008 0
DWIDTH 14 0
BBX 12 13 2 -1
BITMAP
2720
1990
0240
0400
08E0
1F00
E200
0400
0800
0800
0800
0400
0380
ENDCHAR
STARTCHAR 305F
ENCODING 12383
SWIDTH 1008 0
DWIDTH 14 0
BBX 11 12 2 -1
BITMAP
2000
1200
1C00
F000
23C0
2060
2080
4000
4000
4400
8400
83E0
ENDCHAR
STARTCHAR 3060
ENCODING 12384
SWIDTH 1008 0
DWIDTH 14 0
BBX 12 13 2 -2
BITMAP
0020
2090
1240
1C00
F000
23C0
2060
2080
4000
4000
4400
8400
83E0
ENDCHAR
STARTCHAR 3061
ENCODING 12385
SWIDTH 1008 0
DWIDTH 14 0
BBX 11 14 1 -2
BITMAP
1000
0800
0980
8E00
7800
1000
1180
1640
3820
2020
0020
0040
0180
0E00
ENDCHAR
STARTCHAR 3062
ENCODING 12386
SWIDTH 1008 0
DWIDTH 14 0
BBX 13 14 1 -2
BITMAP
1000
0810
0988
8E20
7810
1000
1180
1640
3820
2020
0020
0040
0180
0E00
ENDCHAR
STARTCHAR 3063
ENCODING 12387
SWIDTH 1008 0
DWIDTH 14 0
BBX 10 8 2 4
BITMAP
0700
1880
E040
0040
0040
0080
0300
1C00
ENDCHAR
STARTCHAR 3064
ENCODING 12388
SWIDTH 1008 0
DWIDTH 14 0
BBX 12 9 1 1
BITMAP
07C0
9820
6010
0010
0010
0010
0020
00C0
0700
ENDCHAR
STARTCHAR 3065
ENCODING 12389
SWIDTH 1008 0
DWIDTH 14 0
BBX 13 12 1 -2
BITMAP
0010
0048
0020
07C0
9820
6010
0010
0010
0010
0020
00C0
0700
ENDCHAR
STARTCHAR 3066
ENCODING 12390
SWIDTH 1008 0
DWIDTH 14 0
BBX 12 12 1 -1
BITMAP
0070
8780
7900
0200
0200
0400
0400
0400
0400
0400
0200
01C0
ENDCHAR
STARTCHAR 3067
ENCODING 12391
SWIDTH 1008 0
DWIDTH 14 0
BBX 13 12 1 -1
BITMAP
0070
8780
7910
0248
0220
0400
0400
0400
0400
0400
0200
01C0
ENDCHAR
STARTCHAR 3068
ENCODING 12392
SWIDTH 1008 0
DWIDTH 14 0
BBX 9 12 3 -1
BITMAP
2000
1000
1000
1000
1380
1C00
3000
4000
8000
8000
4000
3F80
ENDCHAR
STARTCHAR 3069
ENCODING 12393
SWIDTH 1008 0
DWIDTH 14 0
BBX 11 12 3 -1
BITMAP
2040
1120
1080
1000
1380
1C00
3000
4000
8000
8000
4000
3F80
ENDCHAR
STARTCHAR 306A
ENCODING 12394
SWIDTH 1008 0
DWIDTH 14 0
BBX 11 14 2 -2
BITMAP
1000
0800
0A00
FC00
11C0
2060
2080
4100
4100
8100
0F00
1180
1140
0E00
ENDCHAR
STARTCHAR 306B
ENCODING 12395
SWIDTH 1008 0
DWIDTH 14 0
BBX 11 13 2 -1
BITMAP
8000
4000
43C0
4C60
8080
8000
8000
8000
8800
A800
47E0
4000
4000
ENDCHAR
STARTCHAR 306C
ENCODING 12396
SWIDTH 1008 0
DWIDTH 14 0
BBX 12 12 1 -1
BITMAP
0200
0100
0100
27C0
2A20
3210
2410
5410
9810
98D0
A920
40D0
ENDCHAR
STARTCHAR 306D
ENCODING 12397
SWIDTH 1008 0
DWIDTH 14 0
BBX 12 13 1 -2
BITMAP
2000
1000
1000
1000
99C0
7E20
1820
1020
3020
3020
51E0
B230
11C0
ENDCHAR
STARTCHAR 306E
ENCODING 12398
SWIDTH 1008 0
DWIDTH 14 0
BBX 11 11 2 0
BITMAP
0F00
3480
4440
4420
8820
8820
9020
9040
A040
4180
0600
ENDCHAR
STARTCHAR 306F
ENCODING 12399
SWIDTH 1008 0
DWIDTH 14 0
BBX 11 13 2 -2
BITMAP
0100
8080
4080
50E0
4F80
8080
8080
8080
8080
A780
48C0
48A0
4700
ENDCHAR
STARTCHAR 3070
ENCODING 12400
SWIDTH 1008 0
DWIDTH 14 0
BBX 13 13 1 -2
BITMAP
0110
8088
40A0
50F0
4F80
8080
8080
8080
8080
A780
48C0
48A0
4700
ENDCHAR
STARTCHAR 3071
ENCODING 12401
SWIDTH 1008 0
DWIDTH 14 0
BBX 13 13 1 -2
BITMAP
0130
80C8
40C8
50F0
4F80
8080
8080
8080
8080
A780
48C0
48A0
4700
ENDCHAR
STARTCHAR 3072
ENCODING 12402
SWIDTH 1008 0
DWIDTH 14 0
BBX 11 12 2 -1
BITMAP
0100
1100
F080
2080
20C0
40A0
4080
4080
4100
4100
2200
1C00
ENDCHAR
STARTCHAR 3073
ENCODING 12403
SWIDTH 1008 0
DWIDTH 14 0
BBX 12 13 2 -2
BITMAP
0020
0110
1140
F0A0
2080
20C0
40A0
4080
4080
4100
4100
2200
1C00
ENDCHAR
STARTCHAR 3074
ENCODING 12404
SWIDTH 1008 0
DWIDTH 14 0
BBX 11 13 2 -2
BITMAP
00C0
0120
1120
F0C0
2080
20C0
40A0
4080
4080
4100
4100
2200
1C00
ENDCHAR
STARTCHAR 3075
ENCODING 12405
SWIDTH 1008 0
DWIDTH 14 0
BBX 13 12 1 -1
BITMAP
0800
0700
0100
0200
0400
0400
0200
0560
9910
7138
4900
0600
ENDCHAR
STARTCHAR 3076
ENCODING 12406
SWIDTH 1008 0
DWIDTH 14 0
BBX 13 12 1 -1
BITMAP
0800
0710
0148
0220
0400
0400
0200
0560
9910
7138
4900
0600
ENDCHAR
STARTCHAR 3077
ENCODING 12407
SWIDTH 1008 0
DWIDTH 14 0
BBX 13 12 1 -1
BITMAP
0800
0730
0148
0248
0430
0400
0200
0560
9910
7138
4900
0600
ENDCHAR
STARTCHAR 3078
ENCODING 12408
SWIDTH 1008 0
DWIDTH 14 0
BBX 13 6 1 2
BITMAP
0C00
1200
A100
4080
0060
0018
ENDCHAR
STARTCHAR 3079
ENCODING 12409
SWIDTH 1008 0
DWIDTH 14 0
BBX 13 8 1 0
BITMAP
0020
0090
0C40
1200
A100
4080
0060
0018
ENDCHAR
STARTCHAR 307A
ENCODING 12410
SWIDTH 1008 0
DWIDTH 14 0
BBX 13 9 1 -1
BITMAP
0060
0090
0090
0C60
1200
A100
4080
0060
0018
ENDCHAR
STARTCHAR 307B
ENCODING 12411
SWIDTH 1008 0
DWIDTH 14 0
BBX 11 12 2 -1
BITMAP
88C0
4700
4100
40E0
8F80
8080
8080
8080
A780
48C0
48A0
4700
ENDCHAR
STARTCHAR 307C
ENCODING 12412
SWIDTH 1008 0
DWIDTH 14 0
BBX 13 12 1 -1
BITMAP
88D0
4708
4120
40F0
8F80
8080
8080
8080
A780
48C0
48A0
4700
ENDCHAR
STARTCHAR 307D
ENCODING 12413
SWIDTH 1008 0
DWIDTH 14 0
BBX 13 13 1 -2
BITMAP
0030
88C8
4748
4130
40E0
8F80
8080
8080
8080
A780
48C0
48A0
4700
ENDCHAR
STARTCHAR 307E
ENCODING 12414
SWIDTH 1008 0
DWIDTH 14 0
BBX 9 13 3 -2
BITMAP
0800
0400
8780
7C00
0400
8700
7C00
0400
0400
7C00
8700
8480
7800
ENDCHAR
STARTCHAR 307F
ENCODING 12415
SWIDTH 1008 0
DWIDTH 14 0
BBX 13 12 1 -1
BITMAP
1100
0F00
0200
0200
0440
0420
1FE0
6830
8848
9040
6080
0100
ENDCHAR
STARTCHAR 3080
ENCODING 12416
SWIDTH 1008 0
DWIDTH 14 0
BBX 12 13 2 -2
BITMAP
2000
1000
9C00
70C0
1020
7030
9000
9000
B080
6040
2040
2040
1F80
ENDCHAR
STARTCHAR 3081
ENCODING 12417
SWIDTH 1008 0
DWIDTH 14 0
BBX 12 12 1 -1
BITMAP
0200
0100
2100
2780
3940
2220
5210
5410
8C10
8810
9420
60C0
ENDCHAR
STARTCHAR 3082
ENCODING 12418
SWIDTH 1008 0
DWIDTH 14 0
BBX 10 14 2 -2
BITMAP
0800
0400
4400
3800
0E00
4800
9080
7080
1C40
1040
1040
1040
0880
0700
ENDCHAR
STARTCHAR 3083
ENCODING 12419
SWIDTH 1008 0
DWIDTH 14 0
BBX 10 10 2 2
BITMAP
0400
2200
2780
3840
F040
1180
0800
0800
0400
0400
ENDCHAR
STARTCHAR 3084
ENCODING 12420
SWIDTH 1008 0
DWIDTH 14 0
BBX 12 14 1 -2
BITMAP
0200
0100
0380
3000
21E0
1610
9810
6810
04E0
0400
0200
0200
0100
0100
ENDCHAR
STARTCHAR 3085
ENCODING 12421
SWIDTH 1008 0
DWIDTH 14 0
BBX 10 10 2 2
BITMAP
0800
0400
8780
9C40
A440
C440
8C80
8700
0400
0800
ENDCHAR
STARTCHAR 3086
ENCODING 12422
SWIDTH 1008 0
DWIDTH 14 0
BBX 12 13 1 -1
BITMAP
0600
8100
43C0
4520
4910
5110
6110
6910
4520
43C0
0100
0200
0400
ENDCHAR
STARTCHAR 3087
ENCODING 12423
SWIDTH 1008 0
DWIDTH 14 0
BBX 8 11 3 1
BITMAP
10
08
09
0E
08
08
08
78
8E
89
70
ENDCHAR
STARTCHAR 3088
ENCODING 12424
SWIDTH 1008 0
DWIDTH 14 0
BBX 10 13 2 -2
BITMAP
0800
0400
0400
04C0
0700
0400
0400
0400
0400
7E00
8580
8440
7800
ENDCHAR
STARTCHAR 3089
ENCODING 12425
SWIDTH 1008 0
DWIDTH 14 0
BBX 8 14 4 -2
BITMAP
20
10
1C
60
80
80
80
9E
E1
81
81
02
0C
30
ENDCHAR
STARTCHAR 308A
ENCODING 12426
SWIDTH 1008 0
DWIDTH 14 0
BBX 8 14 3 -2
BITMAP
80
4C
52
61
61
41
41
41
41
02
02
04
08
10
ENDCHAR
STARTCHAR 308B
ENCODING 12427
SWIDTH 1008 0
DWIDTH 14 0
BBX 10 13 2 -1
BITMAP
2300
1D00
0200
0400
0800
1F00
3080
4040
8040
0E40
1180
1100
0E00
ENDCHAR
STARTCHAR 308C
ENCODING 12428
SWIDTH 1008 0
DWIDTH 14 0
BBX 13 13 1 -1
BITMAP
2000
1000
1380
1440
3840
D840
1040
3040
3040
5040
9048
3030
1000
ENDCHAR
STARTCHAR 308D
ENCODING 12429
SWIDTH 1008 0
DWIDTH 14 0
BBX 10 13 2 -1
BITMAP
4600
3A00
0400
0800
1000
3F00
2080
4040
8040
0040
0080
0300
1C00
ENDCHAR
STARTCHAR 308E
ENCODING 12430
SWIDTH 1008 0
DWIDTH 14 0
BBX 9 10 3 2
BITMAP
4000
2000
2000
3700
E880
3080
6080
6080
A100
2200
ENDCHAR
STARTCHAR 308F
ENCODING 12431
SWIDTH 1008 0
DWIDTH 14 0
BBX 12 14 1 -2
BITMAP
2000
1000
1000
1000
99C0
7E20
1810
1010
3010
3010
5020
9040
3180
1000
ENDCHAR
STARTCHAR 3090
ENCODING 12432
SWIDTH 1008 0
DWIDTH 14 0
BBX 11 12 2 -1
BITMAP
2600
1A00
0400
0400
0F80
3840
4820
9020
9020
A320
64C0
4380
ENDCHAR
STARTCHAR 3091
ENCODING 12433
SWIDTH 1008 0
DWIDTH 14 0
BBX 12 13 1 -1
BITMAP
1300
0E00
0400
0F80
1040
2040
0C40
1380
0E00
1000
39C0
4620
8070
ENDCHAR
STARTCHAR 3092
ENCODING 12434
SWIDTH 1008 0
DWIDTH 14 0
BBX 11 14 2 -2
BITMAP
1000
0800
4B00
3C00
1000
1080
3CE0
6300
8600
0A00
1200
2000
2000
1F80
ENDCHAR
STARTCHAR 3093
ENCODING 12435
SWIDTH 1008 0
DWIDTH 14 0
BBX 11 13 2 -2
BITMAP
0800
0400
0400
0800
0800
1000
1000
3C00
2200
4200
4220
8240
8180
ENDCHAR
STARTCHAR 3094
ENCODING 12436
SWIDTH 1008 0
DWIDTH 14 0
BBX 12 14 2 -2
BITMAP
1020
0E90
0040
0000
1E00
E100
0100
0100
0100
0100
0200
0200
0400
0800
ENDCHAR
STARTCHAR 3095
ENCODING 12437
SWIDTH 1008 0
DWIDTH 14 0
BBX 10 11 2 1
BITMAP
2000
1300
9C80
7240
22C0
2200
2200
4200
4400
9400
0800
ENDCHAR
STARTCHAR 3096
ENCODING 12438
SWIDTH 1008 0
DWIDTH 14 0
BBX 10 11 2 1
BITMAP
0400
8200
4100
41C0
8F00
8100
8100
8100
8100
6200
4400
ENDCHAR
STARTCHAR 309B
ENCODING 12443
SWIDTH 1008 0
DWIDTH 14 0
BBX 4 3 1 -2
BITMAP
20
90
40
ENDCHAR
STARTCHAR 309C
ENCODING 12444
SWIDTH 1008 0
DWIDTH 14 0
BBX 4 4 1 -2
BITMAP
60
90
90
60
ENDCHAR
STARTCHAR 309D
ENCODING 12445
SWIDTH 1008 0
DWIDTH 14 0
BBX 6 5 4 2
BITMAP
C0
30
08
0C
10
ENDCHAR
STARTCHAR 309E
ENCODING 12446
SWIDTH 1008 0
DWIDTH 14 0
BBX 8 7 4 0
BITMAP
02
09
C4
30
08
0C
10
ENDCHAR
STARTCHAR 309F
ENCODING 12447
SWIDTH 1008 0
DWIDTH 14 0
BBX 9 13 2 -2
BITMAP
1000
1000
1F80
1000
3000
2600
2900
3080
6080
4080
C100
8900
8600
ENDCHAR
STARTCHAR 30A0
ENCODING 12448
SWIDTH 1008 0
DWIDTH 14 0
BBX 6 5 4 2
BITMAP
FC
00
00
00
FC
ENDCHAR
STARTCHAR 30A1
ENCODING 12449
SWIDTH 1008 0
DWIDTH 14 0
BBX 9 8 2 4
BITMAP
8780
7880
0900
0600
0400
0400
0800
1000
ENDCHAR
STARTCHAR 30A2
ENCODING 12450
SWIDTH 1008 0
DWIDTH 14 0
BBX 10 12 2 0
BITMAP
87C0
7840
0080
0900
0600
0400
0400
0400
0800
0800
1000
2000
ENDCHAR
STARTCHAR 30A3
ENCODING 12451
SWIDTH 1008 0
DWIDTH 14 0
BBX 8 10 3 2
BITMAP
01
02
04
1C
E4
04
04
04
04
04
ENDCHAR
STARTCHAR 30A4
ENCODING 12452
SWIDTH 1008 0
DWIDTH 14 0
BBX 9 13 2 -1
BITMAP
0080
0080
0100
0200
0C00
3400
C200
0200
0200
0200
0200
0200
0200
ENDCHAR
STARTCHAR 30A5
ENCODING 12453
SWIDTH 1008 0
DWIDTH 14 0
BBX 8 10 3 2
BITMAP
10
08
0F
F1
41
42
02
04
08
10
ENDCHAR
STARTCHAR 30A6
ENCODING 12454
SWIDTH 1008 0
DWIDTH 14 0
BBX 10 13 2 -1
BITMAP
0800
0400
0400
07C0
F840
4040
4080
2080
2100
0100
0200
0400
0800
ENDCHAR
STARTCHAR 30A7
ENCODING 12455
SWIDTH 1008 0
DWIDTH 14 0
BBX 9 7 3 4
BITMAP
0700
7800
0800
0800
0800
0F00
F080
ENDCHAR
STARTCHAR 30A8
ENCODING 12456
SWIDTH 1008 0
DWIDTH 14 0
BBX 11 9 2 1
BITMAP
01C0
7E00
0800
0400
0400
0400
0400
0FC0
F020
ENDCHAR
STARTCHAR 30A9
ENCODING 12457
SWIDTH 1008 0
DWIDTH 14 0
BBX 8 10 3 2
BITMAP
08
04
87
7C
0C
14
24
44
8C
04
ENDCHAR
STARTCHAR 30AA
ENCODING 12458
SWIDTH 1008 0
DWIDTH 14 0
BBX 11 13 2 -1
BITMAP
0200
0100
0100
81E0
7F00
0300
0500
0900
1100
2100
4100
0300
0100
ENDCHAR
STARTCHAR 30AB
ENCODING 12459
SWIDTH 1008 0
DWIDTH 14 0
BBX 10 13 2 -1
BITMAP
0800
0400
0400
87C0
7C40
0840
0840
1080
1080
2080
4500
8300
0200
ENDCHAR
STARTCHAR 30AC
ENCODING 12460
SWIDTH 1008 0
DWIDTH 14 0
BBX 12 14 2 -2
BITMAP
0020
0890
0450
0440
87C0
7C40
0840
0840
1080
1080
2080
4500
8300
0200
ENDCHAR
STARTCHAR 30AD
ENCODING 12461
SWIDTH 1008 0
DWIDTH 14 0
BBX 11 13 2 -1
BITMAP
1000
0800
09C0
0E00
7400
0400
05E0
0E00
F200
0200
0100
0100
0100
ENDCHAR
STARTCHAR 30AE
ENCODING 12462
SWIDTH 1008 0
DWIDTH 14 0
BBX 12 14 2 -2
BITMAP
0020
1090
0850
09C0
0E00
7400
0400
05E0
0E00
F200
0200
0100
0100
0100
ENDCHAR
STARTCHAR 30AF
ENCODING 12463
SWIDTH 1008 0
DWIDTH 14 0
BBX 9 13 3 -1
BITMAP
2000
1380
1C80
1100
2100
2200
4200
8400
0400
0800
1000
2000
4000
ENDCHAR
STARTCHAR 30B0
ENCODING 12464
SWIDTH 1008 0
DWIDTH 14 0
BBX 12 14 2 -2
BITMAP
0020
2090
1350
1D40
1100
2100
2200
4200
8400
0400
0800
1000
2000
4000
ENDCHAR
STARTCHAR 30B1
ENCODING 12465
SWIDTH 1008 0
DWIDTH 14 0
BBX 11 13 2 -1
BITMAP
2000
1000
1000
10E0
3F00
2400
4200
8200
0200
0400
0400
0800
1000
ENDCHAR
STARTCHAR 30B2
ENCODING 12466
SWIDTH 1008 0
DWIDTH 14 0
BBX 12 14 2 -2
BITMAP
0020
2090
1050
1040
10E0
3F00
2400
4200
8200
0200
0400
0400
0800
1000
ENDCHAR
STARTCHAR 30B3
ENCODING 12467
SWIDTH 1008 0
DWIDTH 14 0
BBX 10 9 2 1
BITMAP
87C0
7840
0040
0040
0040
0080
0080
0F80
7080
ENDCHAR
STARTCHAR 30B4
ENCODING 12468
SWIDTH 1008 0
DWIDTH 14 0
BBX 13 12 1 -2
BITMAP
0010
0048
0028
87A0
7880
0080
0080
0080
0100
0100
0F00
7100
ENDCHAR
STARTCHAR 30B5
ENCODING 12469
SWIDTH 1008 0
DWIDTH 14 0
BBX 11 13 2 -1
BITMAP
0200
2100
1100
1100
93E0
7D00
1100
1100
1100
0200
0200
0400
0800
ENDCHAR
STARTCHAR 30B6
ENCODING 12470
SWIDTH 1008 0
DWIDTH 14 0
BBX 12 14 2 -2
BITMAP
0020
0290
2150
1140
1100
93E0
7D00
1100
1100
1100
0200
0200
0400
0800
ENDCHAR
STARTCHAR 30B7
ENCODING 12471
SWIDTH 1008 0
DWIDTH 14 0
BBX 10 11 3 0
BITMAP
6000
1000
0000
C000
2040
0080
0100
0200
0400
9800
6000
ENDCHAR
STARTCHAR 30B8
ENCODING 12472
SWIDTH 1008 0
DWIDTH 14 0
BBX 11 12 3 -1
BITMAP
0040
6120
10A0
0080
C000
2040
0080
0100
0200
0400
9800
6000
ENDCHAR
STARTCHAR 30B9
ENCODING 12473
SWIDTH 1008 0
DWIDTH 14 0
BBX 10 10 2 0
BITMAP
4380
3C80
0100
0100
0200
0200
0500
0880
3040
C040
ENDCHAR
STARTCHAR 30BA
ENCODING 12474
SWIDTH 1008 0
DWIDTH 14 0
BBX 13 12 1 -2
BITMAP
0010
0048
43A8
3CA0
0100
0100
0200
0200
0500
0880
3040
C040
ENDCHAR
STARTCHAR 30BB
ENCODING 12475
SWIDTH 1008 0
DWIDTH 14 0
BBX 11 12 2 -1
BITMAP
2000
1000
1000
11E0
1620
9840
7080
1100
1000
1000
0800
07C0
ENDCHAR
STARTCHAR 30BC
ENCODING 12476
SWIDTH 1008 0
DWIDTH 14 0
BBX 12 13 2 -2
BITMAP
0020
2090
1050
1040
11E0
1620
9840
7080
1100
1000
1000
0800
07E0
ENDCHAR
STARTCHAR 30BD
ENCODING 12477
SWIDTH 1008 0
DWIDTH 14 0
BBX 9 13 3 -1
BITMAP
0100
8080
4080
2080
2100
2100
0200
0200
0400
0400
0800
1000
2000
ENDCHAR
STARTCHAR 30BE
ENCODING 12478
SWIDTH 1008 0
DWIDTH 14 0
BBX 12 14 2 -2
BITMAP
0020
0290
8150
4140
2100
2100
2100
0200
0200
0400
0400
0800
1000
2000
ENDCHAR
STARTCHAR 30BF
ENCODING 12479
SWIDTH 1008 0
DWIDTH 14 0
BBX 10 13 2 -1
BITMAP
0800
0400
07C0
0840
0880
1480
2300
4100
0200
0400
0800
3000
C000
ENDCHAR
STARTCHAR 30C0
ENCODING 12480
SWIDTH 1008 0
DWIDTH 14 0
BBX 13 14 1 -2
BITMAP
0010
0848
0428
07E0
0840
0840
1480
2280
4100
0200
0400
0800
3000
C000
ENDCHAR
STARTCHAR 30C1
ENCODING 12481
SWIDTH 1008 0
DWIDTH 14 0
BBX 11 13 2 -1
BITMAP
0100
0600
7800
0400
03E0
8E00
7200
0200
0200
0400
0400
0800
1000
ENDCHAR
STARTCHAR 30C2
ENCODING 12482
SWIDTH 1008 0
DWIDTH 14 0
BBX 12 14 2 -2
BITMAP
0020
0190
0650
7840
0400
03E0
8E00
7200
0200
0200
0400
0400
0800
1000
ENDCHAR
STARTCHAR 30C3
ENCODING 12483
SWIDTH 1008 0
DWIDTH 14 0
BBX 8 8 3 4
BITMAP
22
91
51
42
02
04
08
10
ENDCHAR
STARTCHAR 30C4
ENCODING 12484
SWIDTH 1008 0
DWIDTH 14 0
BBX 11 11 2 0
BITMAP
1040
8820
4420
2440
2040
0080
0080
0100
0200
0400
0800
ENDCHAR
STARTCHAR 30C5
ENCODING 12485
SWIDTH 1008 0
DWIDTH 14 0
BBX 13 13 1 -2
BITMAP
0010
0048
2128
10A0
8880
4880
2080
2100
0100
0200
0400
0800
1000
ENDCHAR
STARTCHAR 30C6
ENCODING 12486
SWIDTH 1008 0
DWIDTH 14 0
BBX 11 12 2 0
BITMAP
4780
3800
0000
01E0
8E00
7200
0200
0400
0400
0800
1000
2000
ENDCHAR
STARTCHAR 30C7
ENCODING 12487
SWIDTH 1008 0
DWIDTH 14 0
BBX 12 14 2 -2
BITMAP
0020
0090
4750
3840
0000
83C0
7C00
0200
0200
0400
0400
0800
1000
2000
ENDCHAR
STARTCHAR 30C8
ENCODING 12488
SWIDTH 1008 0
DWIDTH 14 0
BBX 7 13 4 -1
BITMAP
80
40
40
40
40
70
4C
42
40
40
40
40
40
ENDCHAR
STARTCHAR 30C9
ENCODING 12489
SWIDTH 1008 0
DWIDTH 14 0
BBX 9 14 3 -2
BITMAP
0100
8480
4280
4200
4000
4000
7000
4C00
4200
4000
4000
4000
4000
4000
ENDCHAR
STARTCHAR 30CA
ENCODING 12490
SWIDTH 1008 0
DWIDTH 14 0
BBX 11 13 2 -1
BITMAP
0400
0200
0200
83E0
7E00
0200
0200
0200
0400
0400
0800
1000
2000
ENDCHAR
STARTCHAR 30CB
ENCODING 12491
SWIDTH 1008 0
DWIDTH 14 0
BBX 11 8 2 1
BITMAP
0380
7C00
0000
0000
0000
0000
07C0
F820
ENDCHAR
STARTCHAR 30CC
ENCODING 12492
SWIDTH 1008 0
DWIDTH 14 0
BBX 10 11 2 0
BITMAP
43C0
3C40
0080
0080
3900
0700
0300
0480
0840
3040
C000
ENDCHAR
STARTCHAR 30CD
ENCODING 12493
SWIDTH 1008 0
DWIDTH 14 0
BBX 11 13 2 -1
BITMAP
0800
0400
0780
7880
0100
0200
0400
0D00
34C0
C420
0400
0400
0400
ENDCHAR
STARTCHAR 30CE
ENCODING 12494
SWIDTH 1008 0
DWIDTH 14 0
BBX 8 13 3 -1
BITMAP
02
01
01
01
02
02
04
04
08
10
20
40
80
ENDCHAR
STARTCHAR 30CF
ENCODING 12495
SWIDTH 1008 0
DWIDTH 14 0
BBX 12 8 1 2
BITMAP
1100
0880
0840
1020
1020
2010
4010
8010
ENDCHAR
STARTCHAR 30D0
ENCODING 12496
SWIDTH 1008 0
DWIDTH 14 0
BBX 13 11 1 -1
BITMAP
0010
0048
0028
1120
0880
0840
1020
1020
2010
4010
8010
ENDCHAR
STARTCHAR 30D1
ENCODING 12497
SWIDTH 1008 0
DWIDTH 14 0
BBX 13 12 1 -2
BITMAP
0030
0048
0048
0030
1100
0880
0840
1020
1020
2010
4010
8010
ENDCHAR
STARTCHAR 30D2
ENCODING 12498
SWIDTH 1008 0
DWIDTH 14 0
BBX 9 11 3 0
BITMAP
8000
4000
4000
4700
7800
4000
4000
4000
4000
2000
1F80
ENDCHAR
STARTCHAR 30D3
ENCODING 12499
SWIDTH 1008 0
DWIDTH 14 0
BBX 10 12 3 -1
BITMAP
0080
8240
4140
4100
4000
4700
7800
4000
4000
4000
2000
1F80
ENDCHAR
STARTCHAR 30D4
ENCODING 12500
SWIDTH 1008 0
DWIDTH 14 0
BBX 10 12 3 -1
BITMAP
0180
8240
4240
4180
4000
4700
7800
4000
4000
4000
2000
1F80
ENDCHAR
STARTCHAR 30D5
ENCODING 12501
SWIDTH 1008 0
DWIDTH 14 0
BBX 9 11 3 0
BITMAP
8780
7880
0080
0100
0100
0200
0200
0400
0800
1000
2000
ENDCHAR
STARTCHAR 30D6
ENCODING 12502
SWIDTH 1008 0
DWIDTH 14 0
BBX 12 13 2 -2
BITMAP
0020
0090
8F50
7140
0100
0200
0200
0400
0400
0800
1000
2000
4000
ENDCHAR
STARTCHAR 30D7
ENCODING 12503
SWIDTH 1008 0
DWIDTH 14 0
BBX 12 13 2 -2
BITMAP
0060
0090
8F90
7160
0100
0200
0200
0400
0400
0800
1000
2000
4000
ENDCHAR
STARTCHAR 30D8
ENCODING 12504
SWIDTH 1008 0
DWIDTH 14 0
BBX 13 6 1 2
BITMAP
0400
0A00
9100
6080
0060
0018
ENDCHAR
STARTCHAR 30D9
ENCODING 12505
SWIDTH 1008 0
DWIDTH 14 0
BBX 13 9 1 -1
BITMAP
0040
0120
00A0
0480
0A00
9100
6080
0060
0018
ENDCHAR
STARTCHAR 30DA
ENCODING 12506
SWIDTH 1008 0
DWIDTH 14 0
BBX 13 9 1 -1
BITMAP
00C0
0120
0120
04C0
0A00
9100
6080
0060
0018
ENDCHAR
STARTCHAR 30DB
ENCODING 12507
SWIDTH 1008 0
DWIDTH 14 0
BBX 10 13 2 -1
BITMAP
0800
0400
0400
87C0
7C00
0400
0500
2480
2440
4440
8400
0C00
0400
ENDCHAR
STARTCHAR 30DC
ENCODING 12508
SWIDTH 1008 0
DWIDTH 14 0
BBX 12 14 2 -2
BITMAP
0020
0890
0450
0440
87C0
7C00
0400
0500
2480
2440
4440
8400
0C00
0400
ENDCHAR
STARTCHAR 30DD
ENCODING 12509
SWIDTH 1008 0
DWIDTH 14 0
BBX 12 14 2 -2
BITMAP
0060
0890
0490
0460
87C0
7C00
0400
0500
2480
2440
4440
8400
0C00
0400
ENDCHAR
STARTCHAR 30DE
ENCODING 12510
SWIDTH 1008 0
DWIDTH 14 0
BBX 11 9 2 1
BITMAP
83C0
7C20
0040
0080
0100
3200
0C00
0200
0100
ENDCHAR
STARTCHAR 30DF
ENCODING 12511
SWIDTH 1008 0
DWIDTH 14 0
BBX 8 13 3 -1
BITMAP
20
18
06
01
40
30
0C
02
80
60
18
06
01
ENDCHAR
STARTCHAR 30E0
ENCODING 12512
SWIDTH 1008 0
DWIDTH 14 0
BBX 11 11 2 -1
BITMAP
0800
0400
0400
0400
0800
0800
0900
1080
10C0
A720
7820
ENDCHAR
STARTCHAR 30E1
ENCODING 12513
SWIDTH 1008 0
DWIDTH 14 0
BBX 10 13 2 -1
BITMAP
0100
0080
0080
0080
1880
0700
0100
0280
0240
0400
0800
3000
C000
ENDCHAR
STARTCHAR 30E2
ENCODING 12514
SWIDTH 1008 0
DWIDTH 14 0
BBX 11 10 2 0
BITMAP
4380
3C00
0800
0800
8FE0
7800
0800
0800
0800
07C0
ENDCHAR
STARTCHAR 30E3
ENCODING 12515
SWIDTH 1008 0
DWIDTH 14 0
BBX 9 9 3 3
BITMAP
2000
1380
1C80
F100
0A00
0800
0400
0400
0400
ENDCHAR
STARTCHAR 30E4
ENCODING 12516
SWIDTH 1008 0
DWIDTH 14 0
BBX 11 12 2 -1
BITMAP
2000
1000
11E0
0E20
9840
6880
0500
0400
0400
0200
0200
0200
ENDCHAR
STARTCHAR 30E5
ENCODING 12517
SWIDTH 1008 0
DWIDTH 14 0
BBX 9 6 3 4
BITMAP
0E00
7200
0200
0400
0F00
F080
ENDCHAR
STARTCHAR 30E6
ENCODING 12518
SWIDTH 1008 0
DWIDTH 14 0
BBX 11 7 2 2
BITMAP
4700
3900
0100
0200
0200
07C0
F820
ENDCHAR
STARTCHAR 30E7
ENCODING 12519
SWIDTH 1008 0
DWIDTH 14 0
BBX 7 8 4 3
BITMAP
1E
E2
02
1E
E4
04
1C
E2
ENDCHAR
STARTCHAR 30E8
ENCODING 12520
SWIDTH 1008 0
DWIDTH 14 0
BBX 9 11 3 0
BITMAP
0F80
F080
0080
0080
0F00
7100
0100
0100
0100
0F00
7080
ENDCHAR
STARTCHAR 30E9
ENCODING 12521
SWIDTH 1008 0
DWIDTH 14 0
BBX 10 12 2 0
BITMAP
4700
3800
01C0
8E40
7040
0040
0080
0080
0100
0200
0C00
3000
ENDCHAR
STARTCHAR 30EA
ENCODING 12522
SWIDTH 1008 0
DWIDTH 14 0
BBX 7 13 4 -1
BITMAP
04
82
42
42
42
42
42
42
04
04
08
10
20
ENDCHAR
STARTCHAR 30EB
ENCODING 12523
SWIDTH 1008 0
DWIDTH 14 0
BBX 11 11 2 0
BITMAP
0400
2200
1200
1200
1220
1220
1240
2240
2280
4300
8200
ENDCHAR
STARTCHAR 30EC
ENCODING 12524
SWIDTH 1008 0
DWIDTH 14 0
BBX 9 12 3 -1
BITMAP
8000
4000
4000
4000
4000
4000
4080
4100
4200
4400
5800
6000
ENDCHAR
STARTCHAR 30ED
ENCODING 12525
SWIDTH 1008 0
DWIDTH 14 0
BBX 10 9 2 1
BITMAP
87C0
7840
4040
4040
2080
2080
2780
3840
2000
ENDCHAR
STARTCHAR 30EE
ENCODING 12526
SWIDTH 1008 0
DWIDTH 14 0
BBX 9 8 3 4
BITMAP
8780
7880
4100
2100
2200
0200
0400
0800
ENDCHAR
STARTCHAR 30EF
ENCODING 12527
SWIDTH 1008 0
DWIDTH 14 0
BBX 10 12 2 0
BITMAP
87C0
7840
4040
2040
2080
2080
0100
0100
0200
0400
0800
1000
ENDCHAR
STARTCHAR 30F0
ENCODING 12528
SWIDTH 1008 0
DWIDTH 14 0
BBX 11 13 2 -1
BITMAP
0400
0200
0200
07C0
7A00
2200
1200
17C0
FA20
0200
0200
0200
0200
ENDCHAR
STARTCHAR 30F1
ENCODING 12529
SWIDTH 1008 0
DWIDTH 14 0
BBX 11 8 2 1
BITMAP
0780
7880
0900
0600
0400
0400
07C0
F820
ENDCHAR
STARTCHAR 30F2
ENCODING 12530
SWIDTH 1008 0
DWIDTH 14 0
BBX 9 12 3 0
BITMAP
0F80
F080
0080
0100
0F00
7100
0200
0200
0400
0800
3000
C000
ENDCHAR
STARTCHAR 30F3
ENCODING 12531
SWIDTH 1008 0
DWIDTH 14 0
BBX 10 10 3 1
BITMAP
C000
2040
1040
0080
0080
0100
0200
0400
9800
6000
ENDCHAR
STARTCHAR 30F4
ENCODING 12532
SWIDTH 1008 0
DWIDTH 14 0
BBX 13 14 1 -2
BITMAP
0010
0848
0428
0420
87C0
7840
4040
2080
2080
0100
0100
0200
0400
0800
ENDCHAR
STARTCHAR 30F5
ENCODING 12533
SWIDTH 1008 0
DWIDTH 14 0
BBX 8 9 3 3
BITMAP
10
08
8F
71
11
11
21
46
82
ENDCHAR
STARTCHAR 30F6
ENCODING 12534
SWIDTH 1008 0
DWIDTH 14 0
BBX 8 9 3 3
BITMAP
40
20
23
3C
44
84
08
10
20
ENDCHAR
STARTCHAR 30F7
ENCODING 12535
SWIDTH 1008 0
DWIDTH 14 0
BBX 13 14 1 -2
BITMAP
0010
0048
87A8
78A0
4080
2080
2100
2100
0100
0200
0200
0400
0800
1000
ENDCHAR
STARTCHAR 30F8
ENCODING 12536
SWIDTH 1008 0
DWIDTH 14 0
BBX 13 14 1 -2
BITMAP
0010
0448
0228
0220
07C0
7A00
2200
1200
17C0
FA20
0200
0200
0200
0200
ENDCHAR
STARTCHAR 30F9
ENCODING 12537
SWIDTH 1008 0
DWIDTH 14 0
BBX 13 11 1 -2
BITMAP
0010
0048
0028
07A0
7880
0900
0600
0400
0400
07C0
F820
ENDCHAR
STARTCHAR 30FA
ENCODING 12538
SWIDTH 1008 0
DWIDTH 14 0
BBX 12 14 2 -2
BITMAP
0020
0090
0F50
F140
0100
0100
0F00
7200
0200
0400
0400
0800
3000
C000
ENDCHAR
STARTCHAR 30FB
ENCODING 12539
SWIDTH 1008 0
DWIDTH 14 0
BBX 4 4 5 3
BITMAP
60
F0
F0
60
ENDCHAR
STARTCHAR 30FC
ENCODING 12540
SWIDTH 1008 0
DWIDTH 14 0
BBX 12 2 1 4
BITMAP
81F0
7E00
ENDCHAR
STARTCHAR 30FD
ENCODING 12541
SWIDTH 1008 0
DWIDTH 14 0
BBX 7 5 4 2
BITMAP
C0
30
08
04
02
ENDCHAR
STARTCHAR 30FE
ENCODING 12542
SWIDTH 1008 0
DWIDTH 14 0
BBX 8 7 4 0
BITMAP
02
09
C4
30
08
04
02
ENDCHAR
STARTCHAR 30FF
ENCODING 12543
SWIDTH 1008 0
DWIDTH 14 0
BBX 8 11 5 -1
BITMAP
FF
01
01
01
01
01
01
01
01
01
01
ENDCHAR
STARTCHAR 31F0
ENCODING 12784
SWIDTH 1008 0
DWIDTH 14 0
BBX 8 10 3 2
BITMAP
20
10
1F
21
42
82
04
08
10
60
ENDCHAR
STARTCHAR 31F1
ENCODING 12785
SWIDTH 1008 0
DWIDTH 14 0
BBX 8 9 3 3
BITMAP
60
10
C0
20
01
02
04
98
60
ENDCHAR
STARTCHAR 31F2
ENCODING 12786
SWIDTH 1008 0
DWIDTH 14 0
BBX 8 9 3 3
BITMAP
8E
72
04
04
08
0C
12
21
C1
ENDCHAR
STARTCHAR 31F3
ENCODING 12787
SWIDTH 1008 0
DWIDTH 14 0
BBX 6 10 4 2
BITMAP
80
40
40
40
60
58
44
40
40
40
ENDCHAR
STARTCHAR 31F4
ENCODING 12788
SWIDTH 1008 0
DWIDTH 14 0
BBX 8 9 3 3
BITMAP
4F
31
02
04
74
0C
12
21
C0
ENDCHAR
STARTCHAR 31F5
ENCODING 12789
SWIDTH 1008 0
DWIDTH 14 0
BBX 10 7 2 4
BITMAP
2200
1100
1100
2080
2080
4040
8040
ENDCHAR
STARTCHAR 31F6
ENCODING 12790
SWIDTH 1008 0
DWIDTH 14 0
BBX 8 9 3 3
BITMAP
80
40
46
78
40
40
40
20
1F
ENDCHAR
STARTCHAR 31F7
ENCODING 12791
SWIDTH 1008 0
DWIDTH 14 0
BBX 8 8 3 4
BITMAP
8F
71
02
02
04
08
10
20
ENDCHAR
STARTCHAR 31F8
ENCODING 12792
SWIDTH 1008 0
DWIDTH 14 0
BBX 8 6 3 4
BITMAP
20
30
50
48
86
83
ENDCHAR
STARTCHAR 31F9
ENCODING 12793
SWIDTH 1008 0
DWIDTH 14 0
BBX 8 10 3 2
BITMAP
10
08
8F
78
08
0A
49
49
99
08
ENDCHAR
STARTCHAR 31FA
ENCODING 12794
SWIDTH 1008 0
DWIDTH 14 0
BBX 8 9 3 2
BITMAP
20
10
10
20
24
22
42
4D
B1
ENDCHAR
STARTCHAR 31FB
ENCODING 12795
SWIDTH 1008 0
DWIDTH 14 0
BBX 8 9 3 3
BITMAP
4E
30
07
99
61
02
04
08
30
ENDCHAR
STARTCHAR 31FC
ENCODING 12796
SWIDTH 1008 0
DWIDTH 14 0
BBX 7 10 3 2
BITMAP
04
82
42
42
42
42
04
04
08
10
ENDCHAR
STARTCHAR 31FD
ENCODING 12797
SWIDTH 1008 0
DWIDTH 14 0
BBX 10 9 2 3
BITMAP
0800
4400
2400
2440
2440
2440
4480
4500
8600
ENDCHAR
STARTCHAR 31FE
ENCODING 12798
SWIDTH 1008 0
DWIDTH 14 0
BBX 8 9 3 3
BITMAP
80
40
40
40
41
42
44
58
60
ENDCHAR
STARTCHAR 31FF
ENCODING 12799
SWIDTH 1008 0
DWIDTH 14 0
BBX 9 8 2 4
BITMAP
8780
7880
4080
4100
4100
2700
3880
2000
ENDCHAR
STARTCHAR 3231
ENCODING 12849
SWIDTH 1008 0
DWIDTH 14 0
BBX 14 12 0 -1
BITMAP
2850
4948
4948
BDF4
8944
9A44
9FFC
AA44
88E4
4958
4A48
2850
ENDCHAR
STARTCHAR 3232
ENCODING 12850
SWIDTH 1008 0
DWIDTH 14 0
BBX 14 12 0 -1
BITMAP
2410
4408
7FF8
8804
8FE4
9824
AFE4
C824
8FE4
4828
4828
2870
ENDCHAR
STARTCHAR 3239
ENCODING 12857
SWIDTH 1008 0
DWIDTH 14 0
BBX 14 12 0 -1
BITMAP
2950
4928
4928
91F4
9F04
B104
D084
9084
90A4
50A8
5068
3030
ENDCHAR
STARTCHAR 3251
ENCODING 12881
SWIDTH 1008 0
DWIDTH 14 0
BBX 14 14 0 -2
BITMAP
0780
1860
2C70
76E8
77E8
9464
8464
8864
9064
5E68
7DF8
2010
1860
0780
ENDCHAR
STARTCHAR 3252
ENCODING 12882
SWIDTH 1008 0
DWIDTH 14 0
BBX 14 14 0 -2
BITMAP
0780
1860
2CD0
7728
77B8
95B4
8424
8844
9084
5EF8
7DE8
2010
1860
0780
ENDCHAR
STARTCHAR 3253
ENCODING 12883
SWIDTH 1008 0
DWIDTH 14 0
BBX 14 14 0 -2
BITMAP
0780
1860
2CD0
77A8
77B8
9434
84E4
8834
91B4
5FB8
7CE8
2010
1860
0780
ENDCHAR
STARTCHAR 3254
ENCODING 12884
SWIDTH 1008 0
DWIDTH 14 0
BBX 14 14 0 -2
BITMAP
0780
1860
2C30
7668
76E8
9564
8664
8BF4
9064
5E68
7CE8
2010
1860
0780
ENDCHAR
STARTCHAR 3255
ENCODING 12885
SWIDTH 1008 0
DWIDTH 14 0
BBX 14 14 0 -2
BITMAP
0780
1860
2DF0
77E8
7708
95E4
8434
89B4
91B4
5F38
7CE8
2010
1860
0780
ENDCHAR
STARTCHAR 3256
ENCODING 12886
SWIDTH 1008 0
DWIDTH 14 0
BBX 14 14 0 -2
BITMAP
0780
1860
2CD0
77B8
77B8
9584
85E4
89B4
91B4
5FB8
7CE8
2010
1860
0780
ENDCHAR
STARTCHAR 3257
ENCODING 12887
SWIDTH 1008 0
DWIDTH 14 0
BBX 14 14 0 -2
BITMAP
0780
1860
2DF0
77E8
7628
9444
8444
88C4
90C4
5EC8
7CC8
2010
1860
0780
ENDCHAR
STARTCHAR 3258
ENCODING 12888
SWIDTH 1008 0
DWIDTH 14 0
BBX 14 14 0 -2
BITMAP
0780
1860
2CD0
77B8
77B8
95B4
84E4
89B4
91B4
5FB8
7CC8
2010
1860
0780
ENDCHAR
STARTCHAR 3259
ENCODING 12889
SWIDTH 1008 0
DWIDTH 14 0
BBX 14 14 0 -2
BITMAP
0780
1860
2CD0
77A8
77B8
95B4
84F4
8834
91B4
5FB8
7CE8
2010
1860
0780
ENDCHAR
STARTCHAR 325A
ENCODING 12890
SWIDTH 1008 0
DWIDTH 14 0
BBX 14 14 0 -2
BITMAP
0780
1860
2CD0
7768
7768
8564
9964
8564
B764
7768
5CC8
2010
1860
0780
ENDCHAR
STARTCHAR 325B
ENCODING 12891
SWIDTH 1008 0
DWIDTH 14 0
BBX 14 14 0 -2
BITMAP
0780
1860
2C70
76E8
77E8
8464
9864
8464
B664
7668
5DF8
2010
1860
0780
ENDCHAR
STARTCHAR 325C
ENCODING 12892
SWIDTH 1008 0
DWIDTH 14 0
BBX 14 14 0 -2
BITMAP
0780
1860
2CD0
7728
77B8
85B4
9824
8444
B684
76F8
5DE8
2010
1860
0780
ENDCHAR
STARTCHAR 325D
ENCODING 12893
SWIDTH 1008 0
DWIDTH 14 0
BBX 14 14 0 -2
BITMAP
0780
1860
2CD0
77A8
77B8
8434
98E4
8434
B7B4
77B8
5CE8
2010
1860
0780
ENDCHAR
STARTCHAR 325E
ENCODING 12894
SWIDTH 1008 0
DWIDTH 14 0
BBX 14 14 0 -2
BITMAP
0780
1860
2C30
7668
76E8
8564
9964
85F4
B664
7668
5CE8
2010
1860
0780
ENDCHAR
STARTCHAR 325F
ENCODING 12895
SWIDTH 1008 0
DWIDTH 14 0
BBX 14 14 0 -2
BITMAP
0780
1860
2DF0
77E8
7708
85E4
9834
85B4
B7B4
7738
5CE8
2010
1860
0780
ENDCHAR
STARTCHAR 32A4
ENCODING 12964
SWIDTH 1008 0
DWIDTH 14 0
BBX 14 14 0 -2
BITMAP
0780
1860
2210
4208
4208
83C4
8204
8204
8204
4208
5FE8
2010
1860
0780
ENDCHAR
STARTCHAR 32A5
ENCODING 12965
SWIDTH 1008 0
DWIDTH 14 0
BBX 14 14 0 -2
BITMAP
0780
1860
2210
4208
5FE8
9224
9224
9FE4
9224
4208
4208
2010
1860
0780
ENDCHAR
STARTCHAR 32A6
ENCODING 12966
SWIDTH 1008 0
DWIDTH 14 0
BBX 14 14 0 -2
BITMAP
0780
1860
2010
5FE8
4208
8304
8384
82C4
8244
4208
4208
2010
1860
0780
ENDCHAR
STARTCHAR 32A7
ENCODING 12967
SWIDTH 1008 0
DWIDTH 14 0
BBX 14 14 0 -2
BITMAP
0780
1860
2410
4408
5FE8
8404
87C4
8904
8904
5108
57E8
2010
1860
0780
ENDCHAR
STARTCHAR 32A8
ENCODING 12968
SWIDTH 1008 0
DWIDTH 14 0
BBX 14 14 0 -2
BITMAP
0780
1860
2210
4208
5FE8
8404
87C4
8C44
8C44
57C8
6448
2010
1860
0780
ENDCHAR
STARTCHAR 32B1
ENCODING 12977
SWIDTH 1008 0
DWIDTH 14 0
BBX 14 14 0 -2
BITMAP
0780
1860
2CD0
77B8
77B8
8584
99E4
85B4
B7B4
77B8
5CE8
2010
1860
0780
ENDCHAR
STARTCHAR 32B2
ENCODING 12978
SWIDTH 1008 0
DWIDTH 14 0
BBX 14 14 0 -2
BITMAP
0780
1860
2DF0
77E8
7628
8444
9844
84C4
B6C4
76C8
5CC8
2010
1860
0780
ENDCHAR
STARTCHAR 32B3
ENCODING 12979
SWIDTH 1008 0
DWIDTH 14 0
BBX 14 14 0 -2
BITMAP
0780
1860
2CD0
77B8
77B8
85B4
98E4
85B4
B7B4
77B8
5CC8
2010
1860
0780
ENDCHAR
STARTCHAR 32B4
ENCODING 12980
SWIDTH 1008 0
DWIDTH 14 0
BBX 14 14 0 -2
BITMAP
0780
1860
2CD0
77A8
77B8
85B4
98F4
8434
B7B4
77B8
5CE8
2010
1860
0780
ENDCHAR
STARTCHAR 32B5
ENCODING 12981
SWIDTH 1008 0
DWIDTH 14 0
BBX 14 14 0 -2
BITMAP
0780
1860
24D0
4D68
5D68
9D64
AD64
CD64
FF64
4D68
5CC8
2010
1860
0780
ENDCHAR
STARTCHAR 32B6
ENCODING 12982
SWIDTH 1008 0
DWIDTH 14 0
BBX 14 14 0 -2
BITMAP
0780
1860
2470
4CE8
5DE8
9C64
AC64
CC64
FE64
4C68
5DF8
2010
1860
0780
ENDCHAR
STARTCHAR 32B7
ENCODING 12983
SWIDTH 1008 0
DWIDTH 14 0
BBX 14 14 0 -2
BITMAP
0780
1860
24D0
4D28
5DB8
9DB4
AC24
CC44
FE84
4CF8
5FE8
2010
1860
0780
ENDCHAR
STARTCHAR 32B8
ENCODING 12984
SWIDTH 1008 0
DWIDTH 14 0
BBX 14 14 0 -2
BITMAP
0780
1860
24D0
4DA8
5DB8
9C34
ACE4
CC34
FFB4
4DB8
5CE8
2010
1860
0780
ENDCHAR
STARTCHAR 32B9
ENCODING 12985
SWIDTH 1008 0
DWIDTH 14 0
BBX 14 14 0 -2
BITMAP
0780
1860
2430
4C68
5CE8
9D64
AE64
CFF4
FE64
4C68
5CE8
2010
1860
0780
ENDCHAR
STARTCHAR 32BA
ENCODING 12986
SWIDTH 1008 0
DWIDTH 14 0
BBX 14 14 0 -2
BITMAP
0780
1860
25F0
4DE8
5D08
9DE4
AC34
CDB4
FFB4
4D38
5CE8
2010
1860
0780
ENDCHAR
STARTCHAR 32BB
ENCODING 12987
SWIDTH 1008 0
DWIDTH 14 0
BBX 14 14 0 -2
BITMAP
0780
1860
24D0
4DF8
5DB8
9D84
ADE4
CDB4
FFB4
4DB8
5CE8
2010
1860
0780
ENDCHAR
STARTCHAR 32BC
ENCODING 12988
SWIDTH 1008 0
DWIDTH 14 0
BBX 14 14 0 -2
BITMAP
0780
1860
25F0
4DE8
5E28
9C44
AC44
CCC4
FEC4
4CC8
5CC8
2010
1860
0780
ENDCHAR
STARTCHAR 32BD
ENCODING 12989
SWIDTH 1008 0
DWIDTH 14 0
BBX 14 14 0 -2
BITMAP
0780
1860
24D0
4DB8
5DB8
9DB4
ACE4
CDB4
FFB4
4DB8
5CC8
2010
1860
0780
ENDCHAR
STARTCHAR 32BE
ENCODING 12990
SWIDTH 1008 0
DWIDTH 14 0
BBX 14 14 0 -2
BITMAP
0780
1860
24D0
4DA8
5DB8
9DB4
ACF4
CC34
FFB4
4DB8
5CC8
2010
1860
0780
ENDCHAR
STARTCHAR 32BF
ENCODING 12991
SWIDTH 1008 0
DWIDTH 14 0
BBX 14 14 0 -2
BITMAP
0780
1860
3ED0
5D68
5168
9D64
8764
B764
B764
6768
5CC8
2010
1860
0780
ENDCHAR
STARTCHAR 32D0
ENCODING 13008
SWIDTH 1008 0
DWIDTH 14 0
BBX 14 14 0 -2
BITMAP
0780
1860
2010
4008
61E8
9E24
8244
8184
8104
4108
4208
2410
1860
0780
ENDCHAR
STARTCHAR 32D1
ENCODING 13009
SWIDTH 1008 0
DWIDTH 14 0
BBX 14 14 0 -2
BITMAP
0780
1860
2030
4088
4108
8704
B904
8104
8104
4108
4108
2110
1960
0780
ENDCHAR
STARTCHAR 32D2
ENCODING 13010
SWIDTH 1008 0
DWIDTH 14 0
BBX 14 14 0 -2
BITMAP
0780
1860
2210
4108
41E8
9E24
8824
8844
8044
4088
4108
2210
1860
0780
ENDCHAR
STARTCHAR 32D3
ENCODING 13011
SWIDTH 1008 0
DWIDTH 14 0
BBX 14 14 0 -2
BITMAP
0780
1860
2010
4008
41C8
9E04
8204
8204
8204
43C8
5C28
2010
1860
0780
ENDCHAR
STARTCHAR 32D4
ENCODING 13012
SWIDTH 1008 0
DWIDTH 14 0
BBX 14 14 0 -2
BITMAP
0780
1860
2110
4088
50E8
8F84
8184
8284
8484
4888
5188
2090
1860
0780
ENDCHAR
STARTCHAR 32D5
ENCODING 13013
SWIDTH 1008 0
DWIDTH 14 0
BBX 14 14 0 -2
BITMAP
0780
1860
2210
4108
51E8
8F24
8224
8424
8424
4848
5148
2090
1860
0780
ENDCHAR
STARTCHAR 32D6
ENCODING 13014
SWIDTH 1008 0
DWIDTH 14 0
BBX 14 14 0 -2
BITMAP
0780
1860
2010
4408
42C8
8704
9A04
8164
8784
5908
4108
2090
18E0
0780
ENDCHAR
STARTCHAR 32D7
ENCODING 13015
SWIDTH 1008 0
DWIDTH 14 0
BBX 14 14 0 -2
BITMAP
0780
1860
2410
4208
43E8
8224
8424
8844
8044
4088
4108
2610
1C60
0780
ENDCHAR
STARTCHAR 32D8
ENCODING 13016
SWIDTH 1008 0
DWIDTH 14 0
BBX 14 14 0 -2
BITMAP
0780
1860
2810
4408
4468
8F84
8904
9084
8084
4088
4108
2110
1A60
0780
ENDCHAR
STARTCHAR 32D9
ENCODING 13017
SWIDTH 1008 0
DWIDTH 14 0
BBX 14 14 0 -2
BITMAP
0780
1860
2010
4008
51E8
8E24
8024
8024
8044
4048
43C8
2C50
1860
0780
ENDCHAR
STARTCHAR 32DA
ENCODING 13018
SWIDTH 1008 0
DWIDTH 14 0
BBX 14 14 0 -2
BITMAP
0780
1860
2110
4888
4488
94E4
8F84
8484
8484
4088
4108
2110
1A60
0780
ENDCHAR
STARTCHAR 32DB
ENCODING 13019
SWIDTH 1008 0
DWIDTH 14 0
BBX 14 14 0 -2
BITMAP
0780
1860
2010
4608
4108
8C04
8204
8024
8024
4048
4988
2610
1860
0780
ENDCHAR
STARTCHAR 32DC
ENCODING 13020
SWIDTH 1008 0
DWIDTH 14 0
BBX 14 14 0 -2
BITMAP
0780
1860
2010
51C8
4E48
8084
8084
8104
8184
4248
4428
3830
1860
0780
ENDCHAR
STARTCHAR 32DD
ENCODING 13021
SWIDTH 1008 0
DWIDTH 14 0
BBX 14 14 0 -2
BITMAP
0780
1860
2010
5008
48E8
8B24
8C44
9884
8804
4808
4468
2390
1860
0780
ENDCHAR
STARTCHAR 32DE
ENCODING 13022
SWIDTH 1008 0
DWIDTH 14 0
BBX 14 14 0 -2
BITMAP
0780
1860
2010
4048
5028
8824
8824
8044
8044
4088
4108
2210
1C60
0780
ENDCHAR
STARTCHAR 32DF
ENCODING 13023
SWIDTH 1008 0
DWIDTH 14 0
BBX 14 14 0 -2
BITMAP
0780
1860
2210
4108
41E8
8224
8624
8944
80C4
4088
4108
2610
1C60
0780
ENDCHAR
STARTCHAR 32E0
ENCODING 13024
SWIDTH 1008 0
DWIDTH 14 0
BBX 14 14 0 -2
BITMAP
0780
1860
2010
4188
4E08
8104
A3F4
9C84
8084
4088
4108
2110
1A60
0780
ENDCHAR
STARTCHAR 32E1
ENCODING 13025
SWIDTH 1008 0
DWIDTH 14 0
BBX 14 14 0 -2
BITMAP
0780
1860
2010
4008
4448
9224
8A24
8844
8044
4048
4088
2110
1A60
0780
ENDCHAR
STARTCHAR 32E2
ENCODING 13026
SWIDTH 1008 0
DWIDTH 14 0
BBX 14 14 0 -2
BITMAP
0780
1860
2010
49C8
4608
8064
9384
8C84
8084
4108
4108
2210
1C60
0780
ENDCHAR
STARTCHAR 32E3
ENCODING 13027
SWIDTH 1008 0
DWIDTH 14 0
BBX 14 14 0 -2
BITMAP
0780
1860
2010
4808
4408
8404
8604
8584
8444
4408
4408
2410
1C60
0780
ENDCHAR
STARTCHAR 32E5
ENCODING 13029
SWIDTH 1008 0
DWIDTH 14 0
BBX 14 14 0 -2
BITMAP
0780
1860
2010
4008
4388
8C04
8004
8004
8004
43C8
7C28
2010
1860
0780
ENDCHAR
STARTCHAR 32E9
ENCODING 13033
SWIDTH 1008 0
DWIDTH 14 0
BBX 14 14 0 -2
BITMAP
0780
1860
2010
4008
4888
8444
8444
8424
8824
4828
5028
2010
1860
0780
ENDCHAR
STARTCHAR 32EC
ENCODING 13036
SWIDTH 1008 0
DWIDTH 14 0
BBX 14 14 0 -2
BITMAP
0780
1860
2010
4008
4408
8404
8A04
8904
9084
4068
4008
2010
1860
0780
ENDCHAR
STARTCHAR 32ED
ENCODING 13037
SWIDTH 1008 0
DWIDTH 14 0
BBX 14 14 0 -2
BITMAP
0780
1860
2210
4108
51E8
8F04
8104
8144
8924
4928
5128
2310
1960
0780
ENDCHAR
STARTCHAR 32FA
ENCODING 13050
SWIDTH 1008 0
DWIDTH 14 0
BBX 14 14 0 -2
BITMAP
0780
1860
2010
4008
61E8
9E24
9024
9044
9044
49C8
4E28
2810
1860
0780
ENDCHAR
STARTCHAR 3303
ENCODING 13059
SWIDTH 1008 0
DWIDTH 14 0
BBX 13 13 1 -1
BITMAP
9C00
6500
18F8
1000
2000
4000
2000
9000
5000
5400
5400
5800
9000
ENDCHAR
STARTCHAR 330D
ENCODING 13069
SWIDTH 1008 0
DWIDTH 14 0
BBX 13 14 1 -2
BITMAP
2000
9D38
64C8
2488
4498
88E8
1800
1000
4800
4900
48F8
0800
1000
2000
ENDCHAR
STARTCHAR 3314
ENCODING 13076
SWIDTH 1008 0
DWIDTH 14 0
BBX 12 12 1 -1
BITMAP
4800
3000
E000
1400
3800
D070
0990
0910
0110
0110
0170
0190
ENDCHAR
STARTCHAR 3318
ENCODING 13080
SWIDTH 1008 0
DWIDTH 14 0
BBX 13 14 1 -2
BITMAP
4A90
7A60
5118
90E8
1008
2010
4060
4000
2000
2000
4800
4400
9C00
6400
ENDCHAR
STARTCHAR 3322
ENCODING 13090
SWIDTH 1008 0
DWIDTH 14 0
BBX 13 14 1 -2
BITMAP
8000
5D88
6448
C810
4010
40A0
3C40
0C00
7000
1E00
F000
1000
2000
4000
ENDCHAR
STARTCHAR 3323
ENCODING 13091
SWIDTH 1008 0
DWIDTH 14 0
BBX 13 14 1 -2
BITMAP
8000
5D88
6448
C810
4010
40A0
3C40
4000
2000
2000
3000
2C00
2000
2000
ENDCHAR
STARTCHAR 3326
ENCODING 13094
SWIDTH 1008 0
DWIDTH 14 0
BBX 13 14 1 -2
BITMAP
1400
8A00
4A00
4000
6000
5800
4080
4240
4140
0148
0148
0250
0260
0440
ENDCHAR
STARTCHAR 3327
ENCODING 13095
SWIDTH 1008 0
DWIDTH 14 0
BBX 12 13 1 -1
BITMAP
8000
4000
4000
6000
5800
4000
4300
4090
0010
0020
0020
0140
0080
ENDCHAR
STARTCHAR 332B
ENCODING 13099
SWIDTH 1008 0
DWIDTH 14 0
BBX 14 14 0 -2
BITMAP
0200
2500
9580
527C
4800
8800
0000
8020
5C50
6B50
C858
5054
4490
3B10
ENDCHAR
STARTCHAR 3336
ENCODING 13110
SWIDTH 1008 0
DWIDTH 14 0
BBX 14 14 0 -2
BITMAP
0020
1038
1048
2888
4410
0220
0040
2020
3890
4C50
ABD4
1054
2058
4090
ENDCHAR
STARTCHAR 333B
ENCODING 13115
SWIDTH 1008 0
DWIDTH 14 0
BBX 13 14 1 -2
BITMAP
0400
2A00
2B00
54F8
8800
0400
0000
6500
1500
C000
2400
0800
5000
2000
ENDCHAR
STARTCHAR 3349
ENCODING 13129
SWIDTH 1008 0
DWIDTH 14 0
BBX 12 13 1 -1
BITMAP
7000
0800
7000
0800
E020
1910
0110
0110
0110
0090
0010
0020
0040
ENDCHAR
STARTCHAR 334A
ENCODING 13130
SWIDTH 1008 0
DWIDTH 14 0
BBX 14 14 0 -2
BITMAP
3810
0448
3848
0448
7008
0C10
0020
1420
1490
2450
93D4
5054
4858
8890
ENDCHAR
STARTCHAR 334D
ENCODING 13133
SWIDTH 1008 0
DWIDTH 14 0
BBX 13 14 1 -2
BITMAP
1000
0800
6900
10F8
1800
6400
8000
4040
2120
20A0
30A8
2CA8
20B0
2120
ENDCHAR
STARTCHAR 3351
ENCODING 13137
SWIDTH 1008 0
DWIDTH 14 0
BBX 12 14 2 -2
BITMAP
2000
9000
9120
9090
1210
2120
4040
8080
4240
4140
6150
5950
4160
4240
ENDCHAR
STARTCHAR 3357
ENCODING 13143
SWIDTH 1008 0
DWIDTH 14 0
BBX 13 14 1 -2
BITMAP
9C00
6400
4490
4848
0908
1090
2020
4000
2000
2000
3000
2C00
2000
2000
ENDCHAR
STARTCHAR 337B
ENCODING 13179
SWIDTH 1008 0
DWIDTH 14 0
BBX 13 12 1 -1
BITMAP
00A0
FC90
1090
97F8
5A40
5248
FFA8
12B0
12A0
12E8
14B8
1510
ENDCHAR
STARTCHAR 337C
ENCODING 13180
SWIDTH 1008 0
DWIDTH 14 0
BBX 13 11 1 0
BITMAP
1EF8
EBA8
AAA8
B3E8
E4A8
A9A8
BEE8
E4A8
A4A8
3CB8
24A8
ENDCHAR
STARTCHAR 337D
ENCODING 13181
SWIDTH 1008 0
DWIDTH 14 0
BBX 13 11 1 0
BITMAP
13F8
1040
1040
FC40
1040
1170
2940
2940
4540
4540
83F8
ENDCHAR
STARTCHAR 337E
ENCODING 13182
SWIDTH 1008 0
DWIDTH 14 0
BBX 13 11 1 0
BITMAP
1D10
F4A0
B4A8
BC48
F558
B4E8
BC00
F4F8
9548
2578
4D48
ENDCHAR
STARTCHAR 338E
ENCODING 13198
SWIDTH 1008 0
DWIDTH 14 0
BBX 13 10 1 2
BITMAP
E8D8
55A8
5520
55A0
54C0
5580
5570
D718
0118
00F0
ENDCHAR
STARTCHAR 338F
ENCODING 13199
SWIDTH 1008 0
DWIDTH 14 0
BBX 13 13 1 -1
BITMAP
C000
4000
4000
5CD8
49A8
5120
71A0
78C0
5D80
4D70
EF18
0118
00F0
ENDCHAR
STARTCHAR 339C
ENCODING 13212
SWIDTH 1008 0
DWIDTH 14 0
BBX 13 8 1 2
BITMAP
EBA0
5550
5550
5550
5550
5550
5550
D558
ENDCHAR
STARTCHAR 339D
ENCODING 13213
SWIDTH 1008 0
DWIDTH 14 0
BBX 13 8 1 2
BITMAP
3BA0
4D50
C550
C150
C150
C550
4950
3358
ENDCHAR
STARTCHAR 339E
ENCODING 13214
SWIDTH 1008 0
DWIDTH 14 0
BBX 13 11 1 -1
BITMAP
C000
4000
4000
5FA0
4950
5150
7150
7950
5D50
4D50
EF58
ENDCHAR
STARTCHAR 33A1
ENCODING 13217
SWIDTH 1008 0
DWIDTH 14 0
BBX 12 12 2 -2
BITMAP
0060
0090
0020
0040
DB70
6D80
6D80
6D80
6D80
6D80
6D80
FFC0
ENDCHAR
STARTCHAR 33C4
ENCODING 13252
SWIDTH 1008 0
DWIDTH 14 0
BBX 11 8 2 2
BITMAP
31C0
5A60
CE20
C600
C600
C620
4A40
3180
ENDCHAR
STARTCHAR 33CB
ENCODING 13259
SWIDTH 1008 0
DWIDTH 14 0
BBX 14 11 0 -1
BITMAP
F7E0
6318
630C
630C
6318
7FE0
6300
6300
6300
6300
F7C0
ENDCHAR
STARTCHAR 33CD
ENCODING 13261
SWIDTH 1008 0
DWIDTH 14 0
BBX 14 12 0 -1
BITMAP
E6CC
64C8
68D0
68D0
70E0
70E0
78F0
68D0
6CD8
66CC
EEDC
0204
ENDCHAR
STARTCHAR 3402
ENCODING 13314
SWIDTH 1008 0
DWIDTH 14 0
BBX 13 14 1 -2
BITMAP
0800
0800
0878
0F80
7810
0810
07F0
0000
4510
5960
E380
4108
4508
3CF8
ENDCHAR
STARTCHAR 34B5
ENCODING 13493
SWIDTH 1008 0
DWIDTH 14 0
BBX 11 14 2 -2
BITMAP
0400
0800
7FC0
4040
4040
7FC0
4040
4040
7FC0
4040
2080
2040
4020
8020
ENDCHAR
STARTCHAR 34DB
ENCODING 13531
SWIDTH 1008 0
DWIDTH 14 0
BBX 12 13 1 -1
BITMAP
07F0
0110
F910
2110
2110
2110
2110
2110
3A10
C210
0220
0420
08C0
ENDCHAR
STARTCHAR 378D
ENCODING 14221
SWIDTH 1008 0
DWIDTH 14 0
BBX 13 13 1 -1
BITMAP
3FF0
2010
3FF0
2000
2200
3FC0
2240
2A40
2640
4640
4548
8948
3038
ENDCHAR
STARTCHAR 37E2
ENCODING 14306
SWIDTH 1008 0
DWIDTH 14 0
BBX 13 14 1 -2
BITMAP
2220
2220
3FE0
0200
7FF0
0880
3040
FFF8
0020
3E20
2220
3E20
2220
0060
ENDCHAR
STARTCHAR 3B22
ENCODING 15138
SWIDTH 1008 0
DWIDTH 14 0
BBX 13 14 1 -2
BITMAP
0220
0140
FFF8
9080
97F0
9080
FFF8
9750
9248
9FF8
F350
9E20
82D8
0608
ENDCHAR
STARTCHAR 3BB6
ENCODING 15286
SWIDTH 1008 0
DWIDTH 14 0
BBX 13 14 1 -2
BITMAP
2900
2578
2648
FFC8
2278
2AC8
6AC8
7AC8
BFF8
AAC8
2A48
2248
2488
2918
ENDCHAR
STARTCHAR 3BC3
ENCODING 15299
SWIDTH 1008 0
DWIDTH 14 0
BBX 13 14 1 -2
BITMAP
2080
2080
27F8
F9C0
22A0
3498
6940
6E30
6498
A2A0
A1C0
26B0
2888
2180
ENDCHAR
STARTCHAR 3C0F
ENCODING 15375
SWIDTH 1008 0
DWIDTH 14 0
BBX 13 14 1 -2
BITMAP
2220
23B8
2660
F910
2040
37F8
69E0
6920
61E0
A100
A7F8
25E8
2528
25F8
ENDCHAR
STARTCHAR 3E3F
ENCODING 15935
SWIDTH 1008 0
DWIDTH 14 0
BBX 13 14 1 -2
BITMAP
1080
1080
57F8
5080
7BF0
5000
53F8
9210
1D40
F140
1140
1148
1248
1438
ENDCHAR
STARTCHAR 3F72
ENCODING 16242
SWIDTH 1008 0
DWIDTH 14 0
BBX 13 14 1 -2
BITMAP
0100
0100
1FF8
9000
5FF8
5100
1100
33F0
5210
9210
2410
2010
4010
8060
ENDCHAR
STARTCHAR 4264
ENCODING 16996
SWIDTH 1008 0
DWIDTH 14 0
BBX 13 14 1 -2
BITMAP
2080
3EF8
5140
8A20
9280
5480
FEF8
3910
5690
90A0
FE40
2460
3890
C508
ENDCHAR
STARTCHAR 4453
ENCODING 17491
SWIDTH 1008 0
DWIDTH 14 0
BBX 13 14 1 -2
BITMAP
0880
FFF8
0880
0F80
0F80
0880
7FF8
4010
BFE0
0840
7FB0
3FE0
0200
FFF8
ENDCHAR
STARTCHAR 445B
ENCODING 17499
SWIDTH 1008 0
DWIDTH 14 0
BBX 13 14 1 -2
BITMAP
0410
0820
71C0
1140
1140
FFF8
1140
1140
7D40
45A0
4628
4418
7FF8
4408
ENDCHAR
STARTCHAR 459D
ENCODING 17821
SWIDTH 1008 0
DWIDTH 14 0
BBX 13 14 1 -2
BITMAP
0060
0380
3E00
0200
3FE0
2220
2220
2220
3FE0
2240
0220
03F0
FC08
0008
ENDCHAR
STARTCHAR 45EA
ENCODING 17898
SWIDTH 1008 0
DWIDTH 14 0
BBX 13 14 1 -2
BITMAP
0100
3FF8
2240
3FF8
2240
43C0
5490
A248
3FE0
2220
3FE0
2220
03F0
FC08
ENDCHAR
STARTCHAR 4844
ENCODING 18500
SWIDTH 1008 0
DWIDTH 14 0
BBX 13 14 1 -2
BITMAP
1000
11E0
FF20
1120
7D20
5520
7D20
5520
7D20
1120
FD20
1228
1228
1418
ENDCHAR
STARTCHAR 49B0
ENCODING 18864
SWIDTH 1008 0
DWIDTH 14 0
BBX 11 13 2 -1
BITMAP
FBE0
8A20
FBE0
FFE0
9220
BF20
9520
9F20
BFA0
A4A0
BFA0
A4A0
83E0
ENDCHAR
STARTCHAR 4C17
ENCODING 19479
SWIDTH 1008 0
DWIDTH 14 0
BBX 11 13 2 -1
BITMAP
BBA0
9120
BBA0
BBA0
8E20
BF20
9520
BFA0
A4A0
BFA0
BFA0
8460
87E0
ENDCHAR
STARTCHAR 4E00
ENCODING 19968
SWIDTH 1008 0
DWIDTH 14 0
BBX 13 1 1 4
BITMAP
FFF8
ENDCHAR
STARTCHAR 4E01
ENCODING 19969
SWIDTH 1008 0
DWIDTH 14 0
BBX 13 13 1 -1
BITMAP
FFF8
0200
0200
0200
0200
0200
0200
0200
0200
0200
0200
0200
0600
ENDCHAR
STARTCHAR 4E03
ENCODING 19971
SWIDTH 1008 0
DWIDTH 14 0
BBX 13 14 1 -2
BITMAP
0800
0800
0800
0800
0878
0F80
F800
0800
0800
0800
0800
0810
0810
07F0
ENDCHAR
STARTCHAR 4E07
ENCODING 19975
SWIDTH 1008 0
DWIDTH 14 0
BBX 13 13 1 -1
BITMAP
FFF8
0400
0400
0400
07E0
0420
0420
0820
0820
1020
2020
4020
80C0
ENDCHAR
STARTCHAR 4E08
ENCODING 19976
SWIDTH 1008 0
DWIDTH 14 0
BBX 13 14 1 -2
BITMAP
0200
0200
0200
FFF8
0200
0200
2200
1200
0A00
0600
0600
0980
3060
C018
ENDCHAR
STARTCHAR 4E09
ENCODING 19977
SWIDTH 1008 0
DWIDTH 14 0
BBX 13 12 1 -1
BITMAP
7FF0
0000
0000
0000
0000
3FE0
0000
0000
0000
0000
0000
FFF8
ENDCHAR
STARTCHAR 4E0A
ENCODING 19978
SWIDTH 1008 0
DWIDTH 14 0
BBX 13 13 1 -2
BITMAP
0400
0400
0400
0400
0400
07E0
0400
0400
0400
0400
0400
0400
FFF8
ENDCHAR
STARTCHAR 4E0B
ENCODING 19979
SWIDTH 1008 0
DWIDTH 14 0
BBX 13 13 1 -1
BITMAP
FFF8
0200
0200
0300
0280
0240
0220
0220
0200
0200
0200
0200
0200
ENDCHAR
STARTCHAR 4E0D
ENCODING 19981
SWIDTH 1008 0
DWIDTH 14 0
BBX 13 13 1 -1
BITMAP
FFF8
0100
0100
0200
0700
0AC0
3220
C210
0208
0200
0200
0200
0200
ENDCHAR
STARTCHAR 4E0E
ENCODING 19982
SWIDTH 1008 0
DWIDTH 14 0
BBX 13 14 1 -2
BITMAP
0800
0800
0FE0
0800
0800
0F80
0880
0080
FFF8
0080
0080
0080
0080
0700
ENDCHAR
STARTCHAR 4E10
ENCODING 19984
SWIDTH 1008 0
DWIDTH 14 0
BBX 13 13 1 -1
BITMAP
FFF8
0200
0200
43F0
4200
4200
7FF0
4010
0010
0010
0020
0020
00C0
ENDCHAR
STARTCHAR 4E11
ENCODING 19985
SWIDTH 1008 0
DWIDTH 14 0
BBX 13 12 1 -1
BITMAP
3FC0
0440
0440
0440
0440
7FF0
0840
0840
0840
0840
0840
FFF8
ENDCHAR
STARTCHAR 4E14
ENCODING 19988
SWIDTH 1008 0
DWIDTH 14 0
BBX 13 12 1 -1
BITMAP
1FC0
1040
1040
1040
1FC0
1040
1040
1FC0
1040
1040
1040
FFF8
ENDCHAR
STARTCHAR 4E15
ENCODING 19989
SWIDTH 1008 0
DWIDTH 14 0
BBX 13 12 1 -1
BITMAP
7FF0
0100
0200
0700
0AC0
1220
6210
8208
0200
0200
0000
7FF0
ENDCHAR
STARTCHAR 4E16
ENCODING 19990
SWIDTH 1008 0
DWIDTH 14 0
BBX 13 14 1 -2
BITMAP
2440
2440
2440
2440
FFF8
2440
2440
2440
27C0
2440
2000
2000
3FF0
2000
ENDCHAR
STARTCHAR 4E17
ENCODING 19991
SWIDTH 1008 0
DWIDTH 14 0
BBX 13 14 1 -2
BITMAP
2220
2220
2220
2220
2220
FFF8
2220
2220
2220
2220
2220
2220
3FE0
2020
ENDCHAR
STARTCHAR 4E18
ENCODING 19992
SWIDTH 1008 0
DWIDTH 14 0
BBX 13 13 1 -2
BITMAP
0040
0180
1E00
1000
1000
1FF0
1080
1080
1080
1080
1080
1080
FFF8
ENDCHAR
STARTCHAR 4E19
ENCODING 19993
SWIDTH 1008 0
DWIDTH 14 0
BBX 13 13 1 -1
BITMAP
FFF8
0200
0200
7FF0
4210
4210
4510
4490
4850
5050
4010
4010
4030
ENDCHAR
STARTCHAR 4E1E
ENCODING 19998
SWIDTH 1008 0
DWIDTH 14 0
BBX 13 12 1 -1
BITMAP
1FC0
0080
0110
7A90
0AA0
1240
1240
2220
4210
8608
0000
7FF0
ENDCHAR
STARTCHAR 4E21
ENCODING 20001
SWIDTH 1008 0
DWIDTH 14 0
BBX 13 13 1 -1
BITMAP
FFF8
0200
0200
7FF0
4210
5250
5250
5250
5250
5FD0
5050
4010
4030
ENDCHAR
STARTCHAR 4E26
ENCODING 20006
SWIDTH 1008 0
DWIDTH 14 0
BBX 13 13 1 -2
BITMAP
1040
0840
0880
FFF8
0880
0880
4890
2890
28A0
28C0
0880
0880
FFF8
ENDCHAR
STARTCHAR 4E28
ENCODING 20008
SWIDTH 1008 0
DWIDTH 14 0
BBX 1 13 7 -1
BITMAP
80
80
80
80
80
80
80
80
80
80
80
80
80
ENDCHAR
STARTCHAR 4E2A
ENCODING 20010
SWIDTH 1008 0
DWIDTH 14 0
BBX 13 14 1 -2
BITMAP
0200
0200
0500
0500
0880
1040
2220
4210
8208
0200
0200
0200
0200
0200
ENDCHAR
STARTCHAR 4E2D
ENCODING 20013
SWIDTH 1008 0
DWIDTH 14 0
BBX 11 14 2 -2
BITMAP
0400
0400
0400
FFE0
8420
8420
8420
8420
FFE0
8420
0400
0400
0400
0400
ENDCHAR
STARTCHAR 4E2F
ENCODING 20015
SWIDTH 1008 0
DWIDTH 14 0
BBX 11 13 2 -1
BITMAP
0440
0580
0E00
7420
04C0
0F00
7420
04C0
0700
1C00
E400
0400
0400
ENDCHAR
STARTCHAR 4E30
ENCODING 20016
SWIDTH 1008 0
DWIDTH 14 0
BBX 13 13 1 -1
BITMAP
0200
0200
7FE0
0200
0200
3FC0
0200
0200
FFF8
0200
0200
0200
0200
ENDCHAR
STARTCHAR 4E31
ENCODING 20017
SWIDTH 1008 0
DWIDTH 14 0
BBX 12 14 1 -2
BITMAP
0900
0900
8910
8910
8910
8910
8910
8910
F9F0
8910
1100
1100
2100
4100
ENDCHAR
STARTCHAR 4E32
ENCODING 20018
SWIDTH 1008 0
DWIDTH 14 0
BBX 11 14 2 -2
BITMAP
0400
0400
7FC0
4440
4440
7FC0
0400
FFE0
8420
8420
FFE0
8420
0400
0400
ENDCHAR
STARTCHAR 4E36
ENCODING 20022
SWIDTH 1008 0
DWIDTH 14 0
BBX 3 4 6 2
BITMAP
80
40
20
20
ENDCHAR
STARTCHAR 4E38
ENCODING 20024
SWIDTH 1008 0
DWIDTH 14 0
BBX 13 14 1 -2
BITMAP
0400
0400
0400
0400
FF80
0480
0480
3480
0C80
0A80
1188
2088
4088
8078
ENDCHAR
STARTCHAR 4E39
ENCODING 20025
SWIDTH 1008 0
DWIDTH 14 0
BBX 13 13 1 -1
BITMAP
1FC0
1040
1440
1240
1240
1040
FFF8
1040
1040
2040
2040
4040
80C0
ENDCHAR
STARTCHAR 4E3B
ENCODING 20027
SWIDTH 1008 0
DWIDTH 14 0
BBX 13 13 1 -2
BITMAP
0400
0200
0200
7FF0
0200
0200
0200
3FE0
0200
0200
0200
0200
FFF8
ENDCHAR
STARTCHAR 4E3C
ENCODING 20028
SWIDTH 1008 0
DWIDTH 14 0
BBX 13 14 1 -2
BITMAP
0840
0840
0840
7FF8
0840
0A40
0940
0940
FFF8
0840
1040
1040
2040
4040
ENDCHAR
STARTCHAR 4E3F
ENCODING 20031
SWIDTH 1008 0
DWIDTH 14 0
BBX 8 14 3 -2
BITMAP
01
01
01
01
01
01
01
01
02
02
04
08
30
C0
ENDCHAR
STARTCHAR 4E42
ENCODING 20034
SWIDTH 1008 0
DWIDTH 14 0
BBX 13 14 1 -2
BITMAP
0040
2040
2040
1040
1080
1080
0880
0900
0500
0200
0500
0880
3060
C018
ENDCHAR
STARTCHAR 4E43
ENCODING 20035
SWIDTH 1008 0
DWIDTH 14 0
BBX 12 13 1 -1
BITMAP
7F80
0880
0880
0880
0880
08F0
0890
0810
1010
1010
2010
4010
80E0
ENDCHAR
STARTCHAR 4E45
ENCODING 20037
SWIDTH 1008 0
DWIDTH 14 0
BBX 13 14 1 -2
BITMAP
0400
0400
0400
07C0
0840
0840
1080
2080
4180
0240
0440
0820
3010
C008
ENDCHAR
STARTCHAR 4E4B
ENCODING 20043
SWIDTH 1008 0
DWIDTH 14 0
BBX 13 14 1 -2
BITMAP
0200
0200
0200
7FE0
0020
0040
0040
0080
0100
2200
3400
2800
4600
81F8
ENDCHAR
STARTCHAR 4E4D
ENCODING 20045
SWIDTH 1008 0
DWIDTH 14 0
BBX 13 14 1 -2
BITMAP
0800
0800
0800
1FF8
1200
2200
43F0
8200
0200
03F0
0200
0200
0200
0200
ENDCHAR
STARTCHAR 4E4E
ENCODING 20046
SWIDTH 1008 0
DWIDTH 14 0
BBX 13 14 1 -2
BITMAP
0060
7F80
0220
2220
1240
1280
0200
FFF8
0200
0200
0200
0200
0200
0600
ENDCHAR
STARTCHAR 4E4F
ENCODING 20047
SWIDTH 1008 0
DWIDTH 14 0
BBX 13 14 1 -2
BITMAP
0030
01C0
7E00
0200
0200
3FE0
0020
0040
0080
1300
1C00
2800
4600
81F8
ENDCHAR
STARTCHAR 4E55
ENCODING 20053
SWIDTH 1008 0
DWIDTH 14 0
BBX 13 14 1 -2
BITMAP
00F0
3F00
2100
3FF8
2100
3FF8
2100
2FF0
2910
2910
4910
4960
8100
0100
ENDCHAR
STARTCHAR 4E56
ENCODING 20054
SWIDTH 1008 0
DWIDTH 14 0
BBX 13 14 1 -2
BITMAP
0060
3F80
0200
0200
FFF8
0200
1240
F258
1260
1240
3248
D238
0200
0200
ENDCHAR
STARTCHAR 4E57
ENCODING 20055
SWIDTH 1008 0
DWIDTH 14 0
BBX 13 14 1 -2
BITMAP
00C0
3F00
0200
7FF0
1240
FFF8
1240
7FF0
0700
0A80
3260
C218
0200
0200
ENDCHAR
STARTCHAR 4E58
ENCODING 20056
SWIDTH 1008 0
DWIDTH 14 0
BBX 13 14 1 -2
BITMAP
00C0
3F00
0200
FFF8
0A90
7AE0
0A80
3A90
CA70
0700
0A80
3260
C218
0200
ENDCHAR
STARTCHAR 4E59
ENCODING 20057
SWIDTH 1008 0
DWIDTH 14 0
BBX 11 12 2 -1
BITMAP
FF80
0100
0200
0400
0800
1000
2000
4000
8020
8020
8020
7FE0
ENDCHAR
STARTCHAR 4E5D
ENCODING 20061
SWIDTH 1008 0
DWIDTH 14 0
BBX 13 14 1 -2
BITMAP
0400
0400
0400
0400
FF80
0480
0480
0480
0880
0880
1088
2088
4088
8078
ENDCHAR
STARTCHAR 4E5E
ENCODING 20062
SWIDTH 1008 0
DWIDTH 14 0
BBX 12 14 1 -2
BITMAP
1000
1000
1000
3FF0
2000
4000
9F80
0200
0400
0800
1000
2010
2010
1FF0
ENDCHAR
STARTCHAR 4E5F
ENCODING 20063
SWIDTH 1008 0
DWIDTH 14 0
BBX 13 14 1 -2
BITMAP
0200
2200
2200
2260
23A0
2E20
3220
E220
2220
2220
22C0
2008
2008
1FF8
ENDCHAR
STARTCHAR 4E62
ENCODING 20066
SWIDTH 1008 0
DWIDTH 14 0
BBX 13 14 1 -2
BITMAP
2100
2100
2100
A900
A900
A900
A900
A900
A900
A900
F908
8908
8108
00F8
ENDCHAR
STARTCHAR 4E71
ENCODING 20081
SWIDTH 1008 0
DWIDTH 14 0
BBX 13 14 1 -2
BITMAP
0480
1880
7080
1080
1080
FE80
1080
1080
7C80
4480
4480
4488
7C88
4478
ENDCHAR
STARTCHAR 4E73
ENCODING 20083
SWIDTH 1008 0
DWIDTH 14 0
BBX 13 14 1 -2
BITMAP
0680
F880
2280
9280
5480
4880
7E80
0480
0880
0E80
F880
0888
0888
1878
ENDCHAR
STARTCHAR 4E7E
ENCODING 20094
SWIDTH 1008 0
DWIDTH 14 0
BBX 13 14 1 -2
BITMAP
1100
1100
FFF8
1100
7E00
45F0
7C20
4440
7C80
1080
FF00
1108
1108
10F8
ENDCHAR
STARTCHAR 4E80
ENCODING 20096
SWIDTH 1008 0
DWIDTH 14 0
BBX 13 14 1 -2
BITMAP
0400
0780
1900
FFC0
1240
1FC0
1FC0
3FE0
2220
3FE0
2220
3FE8
2208
01F8
ENDCHAR
STARTCHAR 4E82
ENCODING 20098
SWIDTH 1008 0
DWIDTH 14 0
BBX 13 14 1 -2
BITMAP
0E80
F480
5280
7E80
AC80
1080
FE80
AA80
FA80
BA80
AA80
9288
AA88
C678
ENDCHAR
STARTCHAR 4E85
ENCODING 20101
SWIDTH 1008 0
DWIDTH 14 0
BBX 3 14 5 -2
BITMAP
20
20
20
20
20
20
20
20
20
20
20
20
20
C0
ENDCHAR
STARTCHAR 4E86
ENCODING 20102
SWIDTH 1008 0
DWIDTH 14 0
BBX 10 13 2 -1
BITMAP
FFC0
0080
0100
0600
0400
0400
0400
0400
0400
0400
0400
0400
0C00
ENDCHAR
STARTCHAR 4E88
ENCODING 20104
SWIDTH 1008 0
DWIDTH 14 0
BBX 13 13 1 -1
BITMAP
3FE0
0440
0280
0300
FFF8
0210
0220
0240
0200
0200
0200
0200
0600
ENDCHAR
STARTCHAR 4E89
ENCODING 20105
SWIDTH 1008 0
DWIDTH 14 0
BBX 13 14 1 -2
BITMAP
0200
07C0
1880
6100
3FE0
0220
FFF8
0220
0220
3FE0
0220
0200
0200
0600
ENDCHAR
STARTCHAR 4E8A
ENCODING 20106
SWIDTH 1008 0
DWIDTH 14 0
BBX 13 14 1 -2
BITMAP
0200
0200
FFF8
2220
1220
1240
3FE0
0220
FFF8
0220
3FE0
0220
0200
0600
ENDCHAR
STARTCHAR 4E8B
ENCODING 20107
SWIDTH 1008 0
DWIDTH 14 0
BBX 13 14 1 -2
BITMAP
0200
FFF8
0200
1FC0
1240
1FC0
0200
3FE0
0220
FFF8
0220
3FE0
0220
0600
ENDCHAR
STARTCHAR 4E8C
ENCODING 20108
SWIDTH 1008 0
DWIDTH 14 0
BBX 13 10 1 0
BITMAP
7FF0
0000
0000
0000
0000
0000
0000
0000
0000
FFF8
ENDCHAR
STARTCHAR 4E8D
ENCODING 20109
SWIDTH 1008 0
DWIDTH 14 0
BBX 13 12 1 0
BITMAP
7FE0
0000
0000
FFF8
0200
0200
0200
0200
0200
0200
0200
0600
ENDCHAR
STARTCHAR 4E8E
ENCODING 20110
SWIDTH 1008 0
DWIDTH 14 0
BBX 13 13 1 -1
BITMAP
7FF0
0200
0200
0200
0200
FFF8
0200
0200
0200
0200
0200
0200
0C00
ENDCHAR
STARTCHAR 4E91
ENCODING 20113
SWIDTH 1008 0
DWIDTH 14 0
BBX 13 13 1 -1
BITMAP
3FE0
0000
0000
0000
FFF8
0200
0200
0280
0440
0420
08E0
7F10
0010
ENDCHAR
STARTCHAR 4E92
ENCODING 20114
SWIDTH 1008 0
DWIDTH 14 0
BBX 13 12 1 -1
BITMAP
7FF0
0400
0400
0FC0
0840
0840
0840
1FC0
1080
0080
0080
FFF8
ENDCHAR
STARTCHAR 4E94
ENCODING 20116
SWIDTH 1008 0
DWIDTH 14 0
BBX 13 12 1 -1
BITMAP
7FF0
0400
0400
0400
0400
7FC0
0840
0840
0840
1040
1040
FFF8
ENDCHAR
STARTCHAR 4E95
ENCODING 20117
SWIDTH 1008 0
DWIDTH 14 0
BBX 13 14 1 -2
BITMAP
0880
0880
0880
0880
7FF0
0880
0880
0880
FFF8
0880
1080
1080
2080
4080
ENDCHAR
STARTCHAR 4E98
ENCODING 20120
SWIDTH 1008 0
DWIDTH 14 0
BBX 13 13 1 -1
BITMAP
7FF0
0000
0000
1FC0
1040
1040
1FC0
1040
1040
1FC0
1040
0000
FFF8
ENDCHAR
STARTCHAR 4E99
ENCODING 20121
SWIDTH 1008 0
DWIDTH 14 0
BBX 13 12 1 -1
BITMAP
7FF0
0400
0400
0FC0
0A40
0940
0940
1440
1280
1280
0080
FFF8
ENDCHAR
STARTCHAR 4E9B
ENCODING 20123
SWIDTH 1008 0
DWIDTH 14 0
BBX 13 13 1 -2
BITMAP
1100
1100
5130
5FC0
5100
5108
5D08
E0F8
0000
3FE0
0000
0000
FFF8
ENDCHAR
STARTCHAR 4E9C
ENCODING 20124
SWIDTH 1008 0
DWIDTH 14 0
BBX 12 12 1 -1
BITMAP
FFF0
0900
0900
7FE0
4920
4920
4920
7FE0
4920
0900
0900
FFF0
ENDCHAR
STARTCHAR 4E9E
ENCODING 20126
SWIDTH 1008 0
DWIDTH 14 0
BBX 13 12 1 -1
BITMAP
FFF8
0880
0880
0880
78F0
4010
4010
78F0
4890
0880
0880
FFF8
ENDCHAR
STARTCHAR 4E9F
ENCODING 20127
SWIDTH 1008 0
DWIDTH 14 0
BBX 13 12 1 -1
BITMAP
FFF8
0400
0400
0FF0
7990
4950
4960
4920
7950
4188
0600
FFF8
ENDCHAR
STARTCHAR 4EA0
ENCODING 20128
SWIDTH 1008 0
DWIDTH 14 0
BBX 13 5 1 1
BITMAP
0200
0200
0200
0200
FFF8
ENDCHAR
STARTCHAR 4EA1
ENCODING 20129
SWIDTH 1008 0
DWIDTH 14 0
BBX 13 13 1 -2
BITMAP
0200
0200
0200
FFF8
2000
2000
2000
2000
2000
2000
2000
2000
1FF0
ENDCHAR
STARTCHAR 4EA2
ENCODING 20130
SWIDTH 1008 0
DWIDTH 14 0
BBX 13 14 1 -2
BITMAP
0200
0200
FFF8
0000
0000
0F80
0880
0880
0880
0880
1080
1088
2088
4078
ENDCHAR
STARTCHAR 4EA4
ENCODING 20132
SWIDTH 1008 0
DWIDTH 14 0
BBX 13 14 1 -2
BITMAP
0200
0200
FFF8
0880
0840
10A0
2890
4490
0500
0300
0300
0480
1860
E018
ENDCHAR
STARTCHAR 4EA5
ENCODING 20133
SWIDTH 1008 0
DWIDTH 14 0
BBX 13 14 1 -2
BITMAP
0200
0200
FFF8
0200
0480
3480
0920
0640
0480
1980
2240
0C20
3010
C010
ENDCHAR
STARTCHAR 4EA6
ENCODING 20134
SWIDTH 1008 0
DWIDTH 14 0
BBX 13 14 1 -2
BITMAP
0200
0200
0200
FFF8
0480
0480
24A0
2490
4488
8488
0880
0880
1080
2180
ENDCHAR
STARTCHAR 4EA8
ENCODING 20136
SWIDTH 1008 0
DWIDTH 14 0
BBX 13 14 1 -2
BITMAP
0200
FFF8
0000
1FC0
1040
1FC0
0000
3FC0
0080
0300
0200
0200
0200
0600
ENDCHAR
STARTCHAR 4EAB
ENCODING 20139
SWIDTH 1008 0
DWIDTH 14 0
BBX 13 14 1 -2
BITMAP
0200
FFF8
0000
1FC0
1040
1FC0
0000
3FC0
0080
0300
FFF8
0200
0200
0600
ENDCHAR
STARTCHAR 4EAC
ENCODING 20140
SWIDTH 1008 0
DWIDTH 14 0
BBX 13 14 1 -2
BITMAP
0200
0200
FFF8
0000
1FC0
1040
1040
1FC0
0200
1240
1220
2210
4210
0600
ENDCHAR
STARTCHAR 4EAD
ENCODING 20141
SWIDTH 1008 0
DWIDTH 14 0
BBX 13 14 1 -2
BITMAP
0200
FFF8
0000
1FC0
1040
1FC0
0000
7FF8
4010
BFE0
0200
0200
0200
0600
ENDCHAR
STARTCHAR 4EAE
ENCODING 20142
SWIDTH 1008 0
DWIDTH 14 0
BBX 13 14 1 -2
BITMAP
0200
FFF8
0000
1FC0
1040
1FC0
0000
7FF8
4010
8900
0900
0908
3108
C0F8
ENDCHAR
STARTCHAR 4EB0
ENCODING 20144
SWIDTH 1008 0
DWIDTH 14 0
BBX 13 14 1 -2
BITMAP
0200
0200
FFF8
0000
3FE0
2020
3FE0
2020
3FE0
1240
1220
2210
4210
0600
ENDCHAR
STARTCHAR 4EB3
ENCODING 20147
SWIDTH 1008 0
DWIDTH 14 0
BBX 13 14 1 -2
BITMAP
0200
FFF8
0000
1FC0
1040
1FC0
0000
7FF8
4190
9E00
03F0
7E00
0208
01F8
ENDCHAR
STARTCHAR 4EB6
ENCODING 20150
SWIDTH 1008 0
DWIDTH 14 0
BBX 13 13 1 -2
BITMAP
0200
FFF8
3FE0
2FA0
28A0
2FA0
3FE0
1FC0
1040
1FC0
1040
1FC0
FFF8
ENDCHAR
STARTCHAR 4EBA
ENCODING 20154
SWIDTH 1008 0
DWIDTH 14 0
BBX 13 14 1 -2
BITMAP
0200
0200
0200
0200
0200
0200
0700
0500
0880
0880
1040
2020
4010
8008
ENDCHAR
STARTCHAR 4EC0
ENCODING 20160
SWIDTH 1008 0
DWIDTH 14 0
BBX 13 14 1 -2
BITMAP
0880
0880
0880
1080
1080
3FF8
5080
9080
1080
1080
1080
1080
1080
1080
ENDCHAR
STARTCHAR 4EC1
ENCODING 20161
SWIDTH 1008 0
DWIDTH 14 0
BBX 13 14 1 -2
BITMAP
1000
1000
17F0
2000
2000
6000
A000
2000
2000
2000
2000
2FF8
2000
2000
ENDCHAR
STARTCHAR 4EC2
ENCODING 20162
SWIDTH 1008 0
DWIDTH 14 0
BBX 12 14 1 -2
BITMAP
1100
1100
1100
2100
3FF0
6110
A110
2110
2110
2210
2210
2410
2810
3060
ENDCHAR
STARTCHAR 4EC4
ENCODING 20164
SWIDTH 1008 0
DWIDTH 14 0
BBX 13 13 1 -1
BITMAP
3FF8
2000
2100
2100
2100
2100
2280
2280
2440
4440
4820
9010
2008
ENDCHAR
STARTCHAR 4EC6
ENCODING 20166
SWIDTH 1008 0
DWIDTH 14 0
BBX 13 14 1 -2
BITMAP
0880
0880
0880
1080
10C0
30A0
5090
9088
1088
1080
1080
1080
1080
1080
ENDCHAR
STARTCHAR 4EC7
ENCODING 20167
SWIDTH 1008 0
DWIDTH 14 0
BBX 13 14 1 -2
BITMAP
1200
1200
1200
2200
23C0
7E40
A240
2240
2240
2240
2448
2448
2848
3038
ENDCHAR
STARTCHAR 4ECA
ENCODING 20170
SWIDTH 1008 0
DWIDTH 14 0
BBX 13 14 1 -2
BITMAP
0200
0200
0500
0880
3060
CF98
0000
0000
3FC0
0040
0080
0080
0100
0100
ENDCHAR
STARTCHAR 4ECB
ENCODING 20171
SWIDTH 1008 0
DWIDTH 14 0
BBX 13 14 1 -2
BITMAP
0200
0200
0500
0880
3060
C898
0880
0880
0880
0880
1080
1080
2080
4080
ENDCHAR
STARTCHAR 4ECD
ENCODING 20173
SWIDTH 1008 0
DWIDTH 14 0
BBX 12 14 1 -2
BITMAP
1000
1FC0
1240
2240
2240
6240
A270
2250
2210
2210
2410
2410
2810
3060
ENDCHAR
STARTCHAR 4ECE
ENCODING 20174
SWIDTH 1008 0
DWIDTH 14 0
BBX 13 14 1 -2
BITMAP
1040
1040
1040
1040
1040
1040
1040
10C0
18A0
24A0
2520
2310
4210
8408
ENDCHAR
STARTCHAR 4ECF
ENCODING 20175
SWIDTH 1008 0
DWIDTH 14 0
BBX 13 14 1 -2
BITMAP
1100
1100
1100
1100
2100
2100
6100
A200
2240
2220
2410
24F0
3F08
2008
ENDCHAR
STARTCHAR 4ED4
ENCODING 20180
SWIDTH 1008 0
DWIDTH 14 0
BBX 13 14 1 -2
BITMAP
1000
17F0
1020
2040
2080
6080
A080
2FF8
2080
2080
2080
2080
2080
2180
ENDCHAR
STARTCHAR 4ED5
ENCODING 20181
SWIDTH 1008 0
DWIDTH 14 0
BBX 13 14 1 -2
BITMAP
1080
1080
1080
2080
2080
6FF8
A080
2080
2080
2080
2080
2080
27F0
2000
ENDCHAR
STARTCHAR 4ED6
ENCODING 20182
SWIDTH 1008 0
DWIDTH 14 0
BBX 13 14 1 -2
BITMAP
1080
1080
1480
2490
24F0
6790
BC90
2490
2490
24B0
2480
2408
2408
23F8
ENDCHAR
STARTCHAR 4ED7
ENCODING 20183
SWIDTH 1008 0
DWIDTH 14 0
BBX 13 14 1 -2
BITMAP
1080
1080
1080
2FF8
2080
6480
A480
2280
2380
2100
2180
2240
2420
2818
ENDCHAR
STARTCHAR 4ED8
ENCODING 20184
SWIDTH 1008 0
DWIDTH 14 0
BBX 13 14 1 -2
BITMAP
0820
0820
0820
1020
17F8
3020
5220
9120
1120
1020
1020
1020
1020
1060
ENDCHAR
STARTCHAR 4ED9
ENCODING 20185
SWIDTH 1008 0
DWIDTH 14 0
BBX 12 14 1 -2
BITMAP
1080
1080
1080
2490
2490
6490
A490
2490
2490
2490
2490
27F0
2410
2410
ENDCHAR
STARTCHAR 4EDD
ENCODING 20189
SWIDTH 1008 0
DWIDTH 14 0
BBX 13 13 1 -2
BITMAP
0200
0200
0500
0880
1040
2020
C018
1FC0
0200
0200
0200
0200
FFF8
ENDCHAR
STARTCHAR 4EDE
ENCODING 20190
SWIDTH 1008 0
DWIDTH 14 0
BBX 12 14 1 -2
BITMAP
1000
1FF0
1110
2110
2110
6110
A510
2510
2910
2110
2210
2210
2410
2860
ENDCHAR
STARTCHAR 4EDF
ENCODING 20191
SWIDTH 1008 0
DWIDTH 14 0
BBX 13 14 1 -2
BITMAP
1010
1060
1780
2080
2080
6080
BFF8
2080
2080
2080
2080
2080
2080
2080
ENDCHAR
STARTCHAR 4EE1
ENCODING 20193
SWIDTH 1008 0
DWIDTH 14 0
BBX 13 14 1 -2
BITMAP
1200
1200
1200
23F8
2400
67E0
A840
2080
2100
2200
2400
2410
2410
23F0
ENDCHAR
STARTCHAR 4EE3
ENCODING 20195
SWIDTH 1008 0
DWIDTH 14 0
BBX 13 14 1 -2
BITMAP
0920
0910
0910
1100
11F8
3E80
5080
9080
1040
1040
1028
1028
1018
1008
ENDCHAR
STARTCHAR 4EE4
ENCODING 20196
SWIDTH 1008 0
DWIDTH 14 0
BBX 13 14 1 -2
BITMAP
0200
0200
0500
0880
3060
DFD8
0000
3FE0
0220
0220
0220
03C0
0200
0200
ENDCHAR
STARTCHAR 4EE5
ENCODING 20197
SWIDTH 1008 0
DWIDTH 14 0
BBX 13 14 1 -2
BITMAP
2020
2020
2420
2220
2120
2120
2020
2020
2020
2060
2C50
3090
C308
0C08
ENDCHAR
STARTCHAR 4EED
ENCODING 20205
SWIDTH 1008 0
DWIDTH 14 0
BBX 13 14 1 -2
BITMAP
1000
1FF0
1110
2110
2110
6910
A510
2310
2110
22D0
2238
2410
2810
3060
ENDCHAR
STARTCHAR 4EEE
ENCODING 20206
SWIDTH 1008 0
DWIDTH 14 0
BBX 13 14 1 -2
BITMAP
1000
17F8
1400
2400
27F0
6510
A510
24A0
24A0
2440
2840
28A0
3310
2C08
ENDCHAR
STARTCHAR 4EF0
ENCODING 20208
SWIDTH 1008 0
DWIDTH 14 0
BBX 12 14 1 -2
BITMAP
1080
1100
16F0
2490
2490
6490
A490
2490
2490
2790
3CE0
2080
2080
2080
ENDCHAR
STARTCHAR 4EF2
ENCODING 20210
SWIDTH 1008 0
DWIDTH 14 0
BBX 13 14 1 -2
BITMAP
1080
1080
1080
2FF8
2888
6888
A888
2888
2FF8
2888
2080
2080
2080
2080
ENDCHAR
STARTCHAR 4EF6
ENCODING 20214
SWIDTH 1008 0
DWIDTH 14 0
BBX 13 14 1 -2
BITMAP
1080
1280
1280
27F0
2480
6880
A080
2FF8
2080
2080
2080
2080
2080
2080
ENDCHAR
STARTCHAR 4EF7
ENCODING 20215
SWIDTH 1008 0
DWIDTH 14 0
BBX 13 14 1 -2
BITMAP
1100
1100
1180
2280
2240
6420
AA50
3248
2240
2240
2440
2440
2840
3040
ENDCHAR
STARTCHAR 4EFB
ENCODING 20219
SWIDTH 1008 0
DWIDTH 14 0
BBX 13 14 1 -2
BITMAP
1030
17C0
1080
2080
2080
6080
AFF8
2080
2080
2080
2080
2080
27F0
2000
ENDCHAR
STARTCHAR 4EFD
ENCODING 20221
SWIDTH 1008 0
DWIDTH 14 0
BBX 13 14 1 -2
BITMAP
11C0
1040
1240
2240
2220
6420
A7F0
2928
2120
2120
2220
2220
2420
28C0
ENDCHAR
STARTCHAR 4EFF
ENCODING 20223
SWIDTH 1008 0
DWIDTH 14 0
BBX 13 14 1 -2
BITMAP
1080
1080
1080
27F8
2080
6080
A0F0
2090
2090
2110
2110
2210
2410
2860
ENDCHAR
STARTCHAR 4F01
ENCODING 20225
SWIDTH 1008 0
DWIDTH 14 0
BBX 13 13 1 -2
BITMAP
0200
0200
0500
0880
3260
C218
0200
1200
13E0
1200
1200
1200
FFF8
ENDCHAR
STARTCHAR 4F03
ENCODING 20227
SWIDTH 1008 0
DWIDTH 14 0
BBX 13 14 1 -2
BITMAP
1000
17F8
1110
20E0
2080
67F8
A088
2090
20A0
2080
2080
2080
2080
2180
ENDCHAR
STARTCHAR 4F09
ENCODING 20233
SWIDTH 1008 0
DWIDTH 14 0
BBX 13 14 1 -2
BITMAP
1080
1080
1FF8
2000
2000
63C0
A240
2240
2240
2240
2440
2448
2848
3038
ENDCHAR
STARTCHAR 4F0A
ENCODING 20234
SWIDTH 1008 0
DWIDTH 14 0
BBX 13 14 1 -2
BITMAP
1000
17F0
1090
2090
2FF8
6090
A090
27F0
2090
2080
2100
2100
2200
2400
ENDCHAR
STARTCHAR 4F0B
ENCODING 20235
SWIDTH 1008 0
DWIDTH 14 0
BBX 13 14 1 -2
BITMAP
1000
1FE0
1220
2240
2240
63F0
A310
2310
24A0
24A0
2440
28A0
2910
3608
ENDCHAR
STARTCHAR 4F0D
ENCODING 20237
SWIDTH 1008 0
DWIDTH 14 0
BBX 13 14 1 -2
BITMAP
1000
1FF0
1100
2100
2100
6100
AFE0
2220
2220
2220
2220
2220
3FF8
2000
ENDCHAR
STARTCHAR 4F0E
ENCODING 20238
SWIDTH 1008 0
DWIDTH 14 0
BBX 13 14 1 -2
BITMAP
1080
1080
1080
2FF8
2080
6080
A7F0
2210
2220
2120
2140
2080
2360
2C18
ENDCHAR
STARTCHAR 4F0F
ENCODING 20239
SWIDTH 1008 0
DWIDTH 14 0
BBX 13 14 1 -2
BITMAP
1080
10A0
1090
2090
2080
6FF8
A080
2080
2080
2140
2140
2220
2C10
3008
ENDCHAR
STARTCHAR 4F10
ENCODING 20240
SWIDTH 1008 0
DWIDTH 14 0
BBX 13 14 1 -2
BITMAP
08A0
0890
0890
1080
10F8
3F90
5090
90A0
1060
1040
10C8
1128
1618
1008
ENDCHAR
STARTCHAR 4F11
ENCODING 20241
SWIDTH 1008 0
DWIDTH 14 0
BBX 13 14 1 -2
BITMAP
1080
1080
1080
2080
2FF8
6080
A1C0
21C0
22A0
22A0
2490
2888
2080
2080
ENDCHAR
STARTCHAR 4F1A
ENCODING 20250
SWIDTH 1008 0
DWIDTH 14 0
BBX 13 14 1 -2
BITMAP
0200
0200
0500
0880
3060
CF98
0000
0000
7FF0
0480
0440
09E0
7E10
0010
ENDCHAR
STARTCHAR 4F1C
ENCODING 20252
SWIDTH 1008 0
DWIDTH 14 0
BBX 13 14 1 -2
BITMAP
1100
1100
1FC0
2140
2248
6248
A438
2880
2080
2FF8
2080
2080
2080
2080
ENDCHAR
STARTCHAR 4F1D
ENCODING 20253
SWIDTH 1008 0
DWIDTH 14 0
BBX 13 14 1 -2
BITMAP
1000
17F0
1000
2000
2000
6FF8
A100
2100
2140
2220
2210
2470
3F88
2008
ENDCHAR
STARTCHAR 4F2F
ENCODING 20271
SWIDTH 1008 0
DWIDTH 14 0
BBX 12 14 1 -2
BITMAP
1080
1080
1080
2100
27F0
6410
A410
2410
27F0
2410
2410
2410
27F0
2410
ENDCHAR
STARTCHAR 4F30
ENCODING 20272
SWIDTH 1008 0
DWIDTH 14 0
BBX 13 14 1 -2
BITMAP
1080
1080
1080
2FF8
2080
6080
A080
27F0
2410
2410
2410
2410
27F0
2410
ENDCHAR
STARTCHAR 4F34
ENCODING 20276
SWIDTH 1008 0
DWIDTH 14 0
BBX 13 14 1 -2
BITMAP
1080
1490
1290
22A0
2080
67F0
A080
2080
2FF8
2080
2080
2080
2080
2080
ENDCHAR
STARTCHAR 4F36
ENCODING 20278
SWIDTH 1008 0
DWIDTH 14 0
BBX 13 14 1 -2
BITMAP
0880
0880
0940
1140
1220
37F0
5808
97F0
1090
1090
1090
10E0
1080
1080
ENDCHAR
STARTCHAR 4F38
ENCODING 20280
SWIDTH 1008 0
DWIDTH 14 0
BBX 12 14 1 -2
BITMAP
1080
1080
17F0
2490
2490
67F0
A490
2490
27F0
2490
2080
2080
2080
2080
ENDCHAR
STARTCHAR 4F3A
ENCODING 20282
SWIDTH 1008 0
DWIDTH 14 0
BBX 12 14 1 -2
BITMAP
1000
1FF0
1010
2FD0
2010
6790
A490
2490
2490
2790
2490
2010
2010
2030
ENDCHAR
STARTCHAR 4F3C
ENCODING 20284
SWIDTH 1008 0
DWIDTH 14 0
BBX 13 14 1 -2
BITMAP
1020
1420
1620
2520
24A0
64A0
A420
2420
2420
2420
2560
2650
3888
2108
ENDCHAR
STARTCHAR 4F3D
ENCODING 20285
SWIDTH 1008 0
DWIDTH 14 0
BBX 12 14 1 -2
BITMAP
1400
1400
1470
3F50
2550
6550
A550
2550
2550
2550
2950
2970
3350
2000
ENDCHAR
STARTCHAR 4F43
ENCODING 20291
SWIDTH 1008 0
DWIDTH 14 0
BBX 12 14 1 -2
BITMAP
1000
17F0
1490
2490
2490
6490
A7F0
2490
2490
2490
2490
2490
27F0
2410
ENDCHAR
STARTCHAR 4F46
ENCODING 20294
SWIDTH 1008 0
DWIDTH 14 0
BBX 13 14 1 -2
BITMAP
1000
17E0
1420
2420
2420
67E0
A420
2420
2420
27E0
2420
2000
3FF8
2000
ENDCHAR
STARTCHAR 4F47
ENCODING 20295
SWIDTH 1008 0
DWIDTH 14 0
BBX 13 14 1 -2
BITMAP
1080
1080
17F8
2408
2410
6800
AFF8
2080
2080
2080
2080
2080
2080
2180
ENDCHAR
STARTCHAR 4F48
ENCODING 20296
SWIDTH 1008 0
DWIDTH 14 0
BBX 13 14 1 -2
BITMAP
1080
1080
1080
2FF8
2140
6240
A3F8
2648
2A48
3248
2248
2270
2040
2040
ENDCHAR
STARTCHAR 4F49
ENCODING 20297
SWIDTH 1008 0
DWIDTH 14 0
BBX 13 14 1 -2
BITMAP
1080
1080
1080
27F0
2080
6080
A080
2FF8
2080
2120
2110
2270
2F88
2008
ENDCHAR
STARTCHAR 4F4D
ENCODING 20301
SWIDTH 1008 0
DWIDTH 14 0
BBX 13 14 1 -2
BITMAP
1100
1100
1100
2100
3FF8
6020
A420
2220
2220
2240
2240
2080
3FF8
2000
ENDCHAR
STARTCHAR 4F4E
ENCODING 20302
SWIDTH 1008 0
DWIDTH 14 0
BBX 13 14 1 -2
BITMAP
1030
17C0
1480
2480
2480
67F8
A440
2440
2440
2720
3828
2018
2FF8
2008
ENDCHAR
STARTCHAR 4F4F
ENCODING 20303
SWIDTH 1008 0
DWIDTH 14 0
BBX 13 14 1 -2
BITMAP
1100
1080
1080
2FF8
2080
6080
A080
27F0
2080
2080
2080
2080
2FF8
2000
ENDCHAR
STARTCHAR 4F50
ENCODING 20304
SWIDTH 1008 0
DWIDTH 14 0
BBX 13 14 1 -2
BITMAP
1100
1100
1100
2FF8
2100
6100
A100
23F0
2240
2440
2840
3040
27F8
2000
ENDCHAR
STARTCHAR 4F51
ENCODING 20305
SWIDTH 1008 0
DWIDTH 14 0
BBX 13 14 1 -2
BITMAP
1100
1100
1100
2FF8
2200
6200
A400
27F0
2A10
3210
2210
2210
23F0
2210
ENDCHAR
STARTCHAR 4F53
ENCODING 20307
SWIDTH 1008 0
DWIDTH 14 0
BBX 13 14 1 -2
BITMAP
1080
1080
1080
2080
2FF8
61C0
A1C0
22A0
22A0
2490
2BE8
2080
2080
2080
ENDCHAR
STARTCHAR 4F55
ENCODING 20309
SWIDTH 1008 0
DWIDTH 14 0
BBX 13 14 1 -2
BITMAP
1000
1FF8
1010
2010
2790
6490
A490
2490
2790
2490
2010
2010
2010
2030
ENDCHAR
STARTCHAR 4F56
ENCODING 20310
SWIDTH 1008 0
DWIDTH 14 0
BBX 13 14 1 -2
BITMAP
1080
1040
1050
2110
2110
6520
A520
2560
2D50
2988
2108
2310
2510
28F0
ENDCHAR
STARTCHAR 4F57
ENCODING 20311
SWIDTH 1008 0
DWIDTH 14 0
BBX 13 14 1 -2
BITMAP
1080
1080
17F8
2408
2510
6900
A110
2120
21C0
2100
2100
2108
2108
20F8
ENDCHAR
STARTCHAR 4F59
ENCODING 20313
SWIDTH 1008 0
DWIDTH 14 0
BBX 13 14 1 -2
BITMAP
0200
0200
0500
0880
3060
DFD8
0200
0200
7FF0
1240
1220
2210
4210
0600
ENDCHAR
STARTCHAR 4F5A
ENCODING 20314
SWIDTH 1008 0
DWIDTH 14 0
BBX 13 14 1 -2
BITMAP
1080
1480
1480
2480
27F0
6880
B080
3FF8
2180
2140
2240
2420
2810
3008
ENDCHAR
STARTCHAR 4F5B
ENCODING 20315
SWIDTH 1008 0
DWIDTH 14 0
BBX 13 14 1 -2
BITMAP
1140
1140
1FF0
2150
2150
6FF0
A940
2940
2FF8
2948
2248
2248
2470
2840
ENDCHAR
STARTCHAR 4F5C
ENCODING 20316
SWIDTH 1008 0
DWIDTH 14 0
BBX 13 14 1 -2
BITMAP
1200
1200
1200
27F8
2500
6900
B1F0
2100
2100
21F0
2100
2100
2100
2100
ENDCHAR
STARTCHAR 4F5D
ENCODING 20317
SWIDTH 1008 0
DWIDTH 14 0
BBX 12 14 1 -2
BITMAP
1200
1200
1200
27F0
2410
6810
A790
2490
2490
2490
2790
2410
2010
2060
ENDCHAR
STARTCHAR 4F5E
ENCODING 20318
SWIDTH 1008 0
DWIDTH 14 0
BBX 13 14 1 -2
BITMAP
1000
17F0
1000
2000
2FF8
6100
A100
2FF8
2220
2220
27C0
2060
2190
2E08
ENDCHAR
STARTCHAR 4F5F
ENCODING 20319
SWIDTH 1008 0
DWIDTH 14 0
BBX 13 14 1 -2
BITMAP
1200
1200
13E0
2420
2640
6940
A080
2140
2620
2918
2080
2020
20C0
2300
ENDCHAR
STARTCHAR 4F60
ENCODING 20320
SWIDTH 1008 0
DWIDTH 14 0
BBX 13 14 1 -2
BITMAP
1200
1200
1200
23F8
2490
68A0
A080
22C0
22A0
2290
2488
2888
2080
2180
ENDCHAR
STARTCHAR 4F69
ENCODING 20329
SWIDTH 1008 0
DWIDTH 14 0
BBX 13 14 1 -2
BITMAP
1000
1FE0
1820
2820
2FE0
6920
AFE0
2D60
2D60
2D60
2DE8
3518
3118
2108
ENDCHAR
STARTCHAR 4F6A
ENCODING 20330
SWIDTH 1008 0
DWIDTH 14 0
BBX 12 14 1 -2
BITMAP
1000
17F0
1410
2410
25D0
6550
A550
2550
2550
25D0
2410
2410
27F0
2410
ENDCHAR
STARTCHAR 4F6C
ENCODING 20332
SWIDTH 1008 0
DWIDTH 14 0
BBX 13 14 1 -2
BITMAP
1080
1080
17F0
2090
20A0
6FF8
A040
2180
2130
23C0
2500
2910
2110
20F0
ENDCHAR
STARTCHAR 4F6F
ENCODING 20335
SWIDTH 1008 0
DWIDTH 14 0
BBX 13 14 1 -2
BITMAP
1420
1220
1240
2FF8
2080
6080
A7F0
2080
2080
2FF8
2080
2080
2080
2080
ENDCHAR
STARTCHAR 4F70
ENCODING 20336
SWIDTH 1008 0
DWIDTH 14 0
BBX 13 14 1 -2
BITMAP
1000
1FF8
1080
2100
27F0
6410
A410
2410
27F0
2410
2410
2410
27F0
2410
ENDCHAR
STARTCHAR 4F73
ENCODING 20339
SWIDTH 1008 0
DWIDTH 14 0
BBX 13 14 1 -2
BITMAP
1080
1080
1080
27F0
2080
6080
AFF8
2080
2080
27F0
2080
2080
2FF8
2000
ENDCHAR
STARTCHAR 4F75
ENCODING 20341
SWIDTH 1008 0
DWIDTH 14 0
BBX 13 14 1 -2
BITMAP
1420
1220
1240
2FF0
2240
6240
A240
3FF8
2240
2240
2440
2440
2840
3040
ENDCHAR
STARTCHAR 4F76
ENCODING 20342
SWIDTH 1008 0
DWIDTH 14 0
BBX 13 14 1 -2
BITMAP
1080
1080
1080
3FF8
2080
6080
A7F0
2000
27F0
2410
2410
2410
27F0
2410
ENDCHAR
STARTCHAR 4F7B
ENCODING 20347
SWIDTH 1008 0
DWIDTH 14 0
BBX 13 14 1 -2
BITMAP
1140
1140
1150
2950
2560
6540
A160
2350
2548
3948
2240
2248
2448
2838
ENDCHAR
STARTCHAR 4F7C
ENCODING 20348
SWIDTH 1008 0
DWIDTH 14 0
BBX 13 14 1 -2
BITMAP
1080
1080
1FF8
2240
2220
6450
AA50
2240
2180
2180
2180
2240
2C20
3018
ENDCHAR
STARTCHAR 4F7E
ENCODING 20350
SWIDTH 1008 0
DWIDTH 14 0
BBX 13 14 1 -2
BITMAP
11E0
1020
1220
2210
2410
6BE8
A220
23E0
2220
23E0
2220
2220
2220
2260
ENDCHAR
STARTCHAR 4F7F
ENCODING 20351
SWIDTH 1008 0
DWIDTH 14 0
BBX 13 14 1 -2
BITMAP
1080
1080
1FF8
2080
27F0
6490
A490
27F0
2490
2280
2100
2180
2660
3818
ENDCHAR
STARTCHAR 4F83
ENCODING 20355
SWIDTH 1008 0
DWIDTH 14 0
BBX 13 14 1 -2
BITMAP
1000
17F0
1410
2410
2410
67F0
A000
2520
2520
2520
2520
2928
2928
3018
ENDCHAR
STARTCHAR 4F86
ENCODING 20358
SWIDTH 1008 0
DWIDTH 14 0
BBX 13 14 1 -2
BITMAP
0200
0200
FFF8
1240
1240
1A60
2690
4710
0700
0A80
3260
C218
0200
0200
ENDCHAR
STARTCHAR 4F88
ENCODING 20360
SWIDTH 1008 0
DWIDTH 14 0
BBX 13 14 1 -2
BITMAP
1100
11F0
1210
2520
28C0
6080
A340
2CF8
2108
2690
2060
2040
2180
2E00
ENDCHAR
STARTCHAR 4F8A
ENCODING 20362
SWIDTH 1008 0
DWIDTH 14 0
BBX 13 14 1 -2
BITMAP
1080
1080
1490
2290
22A0
6080
AFF8
2140
2140
2140
2240
2248
2448
2838
ENDCHAR
STARTCHAR 4F8B
ENCODING 20363
SWIDTH 1008 0
DWIDTH 14 0
BBX 12 14 1 -2
BITMAP
1010
1FD0
1450
2450
2750
6950
A950
3550
2350
2250
2250
2410
2810
3030
ENDCHAR
STARTCHAR 4F8D
ENCODING 20365
SWIDTH 1008 0
DWIDTH 14 0
BBX 13 14 1 -2
BITMAP
1080
1080
17F0
2080
2080
6FF8
A020
2020
2FF8
2420
2220
2220
2020
2060
ENDCHAR
STARTCHAR 4F8F
ENCODING 20367
SWIDTH 1008 0
DWIDTH 14 0
BBX 13 14 1 -2
BITMAP
1080
1280
1280
27F0
2480
6880
BFF8
21C0
21C0
22A0
22A0
2490
2888
2080
ENDCHAR
STARTCHAR 4F91
ENCODING 20369
SWIDTH 1008 0
DWIDTH 14 0
BBX 13 14 1 -2
BITMAP
1100
1100
1FF8
2100
2200
63F0
A610
2BF0
3210
23F0
2210
2210
2210
2230
ENDCHAR
STARTCHAR 4F94
ENCODING 20372
SWIDTH 1008 0
DWIDTH 14 0
BBX 13 14 1 -2
BITMAP
1080
10C0
1120
2FD0
2290
6280
A7F0
2880
2080
2FF8
2080
2080
2080
2080
ENDCHAR
STARTCHAR 4F96
ENCODING 20374
SWIDTH 1008 0
DWIDTH 14 0
BBX 13 14 1 -2
BITMAP
0200
0200
0500
0880
3FE0
C018
3FE0
2520
2520
3FE0
2520
2520
2520
2560
ENDCHAR
STARTCHAR 4F97
ENCODING 20375
SWIDTH 1008 0
DWIDTH 14 0
BBX 13 14 1 -2
BITMAP
1000
17F8
1408
2408
27F8
6408
A5E8
2528
2528
2528
25E8
2528
2408
2418
ENDCHAR
STARTCHAR 4F98
ENCODING 20376
SWIDTH 1008 0
DWIDTH 14 0
BBX 13 14 1 -2
BITMAP
1080
1080
17F8
2408
2430
68C0
A780
2080
20F8
2F80
2080
2088
2088
2078
ENDCHAR
STARTCHAR 4F9B
ENCODING 20379
SWIDTH 1008 0
DWIDTH 14 0
BBX 13 14 1 -2
BITMAP
1240
1240
1240
2240
2FF0
6240
A240
2240
3FF8
2000
2240
2220
2410
2810
ENDCHAR
STARTCHAR 4F9D
ENCODING 20381
SWIDTH 1008 0
DWIDTH 14 0
BBX 13 14 1 -2
BITMAP
1080
1080
1080
2FF8
2100
6190
A290
26A0
2A40
2240
2220
22A0
2310
2C08
ENDCHAR
STARTCHAR 4FA0
ENCODING 20384
SWIDTH 1008 0
DWIDTH 14 0
BBX 13 14 1 -2
BITMAP
1080
1080
1080
2FF8
2490
6290
A2A0
3FF8
2080
2140
2140
2220
2410
2808
ENDCHAR
STARTCHAR 4FA1
ENCODING 20385
SWIDTH 1008 0
DWIDTH 14 0
BBX 13 14 1 -2
BITMAP
1000
1FF8
1140
2140
2140
67F0
A550
2550
2550
2550
2550
2550
27F0
2410
ENDCHAR
STARTCHAR 4FAB
ENCODING 20395
SWIDTH 1008 0
DWIDTH 14 0
BBX 13 14 1 -2
BITMAP
1080
1080
1FF8
2400
2400
63F0
A100
2FF8
2220
2220
27C0
2060
2190
2E08
ENDCHAR
STARTCHAR 4FAD
ENCODING 20397
SWIDTH 1008 0
DWIDTH 14 0
BBX 13 14 1 -2
BITMAP
1000
17F0
1410
2410
27F0
6450
A440
2520
28A0
2890
3008
2300
20C0
2020
ENDCHAR
STARTCHAR 4FAE
ENCODING 20398
SWIDTH 1008 0
DWIDTH 14 0
BBX 13 14 1 -2
BITMAP
1200
1200
13F8
2400
27E0
6AA0
A2A0
3FF8
24A0
24A0
2FF8
2820
2020
20C0
ENDCHAR
STARTCHAR 4FAF
ENCODING 20399
SWIDTH 1008 0
DWIDTH 14 0
BBX 13 14 1 -2
BITMAP
13E0
1020
1020
2FF8
2200
6200
A3F0
2480
2880
2FF8
20C0
2120
2610
3808
ENDCHAR
STARTCHAR 4FB5
ENCODING 20405
SWIDTH 1008 0
DWIDTH 14 0
BBX 13 14 1 -2
BITMAP
1000
17E0
1020
27E0
2020
67E0
A000
2FF8
2810
37E0
2240
2180
2660
3818
ENDCHAR
STARTCHAR 4FB6
ENCODING 20406
SWIDTH 1008 0
DWIDTH 14 0
BBX 12 14 1 -2
BITMAP
1000
17E0
1420
2420
2420
67E0
A100
2200
2FF0
2810
2810
2810
2FF0
2810
ENDCHAR
STARTCHAR 4FBF
ENCODING 20415
SWIDTH 1008 0
DWIDTH 14 0
BBX 13 14 1 -2
BITMAP
1000
1FF8
1080
27F0
2490
67F0
A490
27F0
2490
2280
2100
2180
2260
2C18
ENDCHAR
STARTCHAR 4FC2
ENCODING 20418
SWIDTH 1008 0
DWIDTH 14 0
BBX 13 14 1 -2
BITMAP
1030
11C0
1F20
2120
2640
61A0
A130
23C8
2E80
20A0
2490
2488
2888
2080
ENDCHAR
STARTCHAR 4FC3
ENCODING 20419
SWIDTH 1008 0
DWIDTH 14 0
BBX 13 14 1 -2
BITMAP
1000
17F0
1410
2410
27F0
6490
A080
2480
24F0
2480
2480
2680
2980
3078
ENDCHAR
STARTCHAR 4FC4
ENCODING 20420
SWIDTH 1008 0
DWIDTH 14 0
BBX 13 14 1 -2
BITMAP
10C0
1350
1E48
2248
2240
7FF8
A240
2350
2250
2620
3A20
2268
2698
2208
ENDCHAR
STARTCHAR 4FC9
ENCODING 20425
SWIDTH 1008 0
DWIDTH 14 0
BBX 13 14 1 -2
BITMAP
1000
17F8
1080
2080
23E0
6120
A120
2FF8
2000
23F0
2210
2210
23F0
2210
ENDCHAR
STARTCHAR 4FCA
ENCODING 20426
SWIDTH 1008 0
DWIDTH 14 0
BBX 13 14 1 -2
BITMAP
1100
1120
1230
2FC8
2240
6248
A538
29E0
2220
2640
2980
2180
2660
3818
ENDCHAR
STARTCHAR 4FCE
ENCODING 20430
SWIDTH 1008 0
DWIDTH 14 0
BBX 13 13 1 -2
BITMAP
2000
23E0
2220
3220
4A20
4BE0
A220
2220
33E0
2A20
4A20
4220
9FF8
ENDCHAR
STARTCHAR 4FD0
ENCODING 20432
SWIDTH 1008 0
DWIDTH 14 0
BBX 12 14 1 -2
BITMAP
1090
1350
1E50
2250
2250
7FD0
A250
2650
2750
2AD0
2AD0
3210
2210
2230
ENDCHAR
STARTCHAR 4FD1
ENCODING 20433
SWIDTH 1008 0
DWIDTH 14 0
BBX 12 14 1 -2
BITMAP
1000
17F0
1120
20C0
27F0
6490
A490
27F0
2490
2490
27F0
2490
2490
24B0
ENDCHAR
STARTCHAR 4FD4
ENCODING 20436
SWIDTH 1008 0
DWIDTH 14 0
BBX 13 14 1 -2
BITMAP
1000
17F0
1410
27F0
2410
67F0
A410
27F0
2550
2140
2240
2248
2448
2838
ENDCHAR
STARTCHAR 4FD7
ENCODING 20439
SWIDTH 1008 0
DWIDTH 14 0
BBX 13 14 1 -2
BITMAP
1240
1220
1410
2910
2100
6280
A240
2420
2FF0
3428
2420
2420
27E0
2420
ENDCHAR
STARTCHAR 4FD8
ENCODING 20440
SWIDTH 1008 0
DWIDTH 14 0
BBX 13 14 1 -2
BITMAP
1010
1060
17A0
2490
2488
6808
A7F0
2060
2080
2FF8
2080
2080
2080
2180
ENDCHAR
STARTCHAR 4FDA
ENCODING 20442
SWIDTH 1008 0
DWIDTH 14 0
BBX 13 14 1 -2
BITMAP
1000
17F0
1490
2490
27F0
6490
A490
27F0
2080
27F0
2080
2080
2FF8
2000
ENDCHAR
STARTCHAR 4FDB
ENCODING 20443
SWIDTH 1008 0
DWIDTH 14 0
BBX 13 14 1 -2
BITMAP
1100
11E0
1240
2480
2FF0
6490
A490
27F0
24D0
2140
2140
2248
2448
2838
ENDCHAR
STARTCHAR 4FDD
ENCODING 20445
SWIDTH 1008 0
DWIDTH 14 0
BBX 13 14 1 -2
BITMAP
1000
17F0
1410
2410
27F0
6490
A080
2FF8
21C0
22A0
2490
2888
2080
2080
ENDCHAR
STARTCHAR 4FDF
ENCODING 20447
SWIDTH 1008 0
DWIDTH 14 0
BBX 13 14 1 -2
BITMAP
1100
1140
1120
2270
2F90
6200
A3F0
2480
2880
3FF8
2080
2140
2220
2C18
ENDCHAR
STARTCHAR 4FE0
ENCODING 20448
SWIDTH 1008 0
DWIDTH 14 0
BBX 13 14 1 -2
BITMAP
1080
1080
1080
2FF8
22A0
62A0
A2A0
25D0
2888
2140
2140
2220
2410
2808
ENDCHAR
STARTCHAR 4FE1
ENCODING 20449
SWIDTH 1008 0
DWIDTH 14 0
BBX 13 14 1 -2
BITMAP
1000
13E0
1000
2FF8
2000
67F0
A000
27F0
2000
27F0
2410
2410
27F0
2410
ENDCHAR
STARTCHAR 4FE3
ENCODING 20451
SWIDTH 1008 0
DWIDTH 14 0
BBX 13 14 1 -2
BITMAP
1000
17F0
1410
2410
27F0
6000
A7F0
2080
2080
2FF8
20C0
2120
2610
3808
ENDCHAR
STARTCHAR 4FE4
ENCODING 20452
SWIDTH 1008 0
DWIDTH 14 0
BBX 13 14 1 -2
BITMAP
1220
1120
1140
27F0
2090
67F0
A480
27F8
2588
2188
2288
24B0
2880
2080
ENDCHAR
STARTCHAR 4FE5
ENCODING 20453
SWIDTH 1008 0
DWIDTH 14 0
BBX 13 14 1 -2
BITMAP
1080
1080
1FF8
2080
27F0
6490
A7F0
2490
27F0
2080
2FF8
2080
2080
2080
ENDCHAR
STARTCHAR 4FEE
ENCODING 20462
SWIDTH 1008 0
DWIDTH 14 0
BBX 13 14 1 -2
BITMAP
1100
1100
19F8
2A20
2D40
69C0
AE78
2880
2B20
28C0
2B10
2820
20C0
2700
ENDCHAR
STARTCHAR 4FEF
ENCODING 20463
SWIDTH 1008 0
DWIDTH 14 0
BBX 13 14 1 -2
BITMAP
1080
1080
1FF8
2910
2910
6910
ABF8
2A90
2E50
2A50
2A10
3210
3210
2230
ENDCHAR
STARTCHAR 4FF1
ENCODING 20465
SWIDTH 1008 0
DWIDTH 14 0
BBX 13 14 1 -2
BITMAP
1000
17E0
1420
2420
27E0
6420
A7E0
2420
27E0
2420
3FF8
2240
2420
3810
ENDCHAR
STARTCHAR 4FF3
ENCODING 20467
SWIDTH 1008 0
DWIDTH 14 0
BBX 13 14 1 -2
BITMAP
1140
1140
1140
2F78
2140
6140
AF78
2140
2140
2F78
2140
2240
2440
2840
ENDCHAR
STARTCHAR 4FF5
ENCODING 20469
SWIDTH 1008 0
DWIDTH 14 0
BBX 13 14 1 -2
BITMAP
1080
1080
1FF8
2080
27F0
6080
AFF8
2180
2290
2660
2A40
22A0
2310
2C08
ENDCHAR
STARTCHAR 4FF6
ENCODING 20470
SWIDTH 1008 0
DWIDTH 14 0
BBX 13 14 1 -2
BITMAP
1400
1400
14F0
2710
2490
6490
BF90
2450
2660
2D20
2D60
3450
2490
2D08
ENDCHAR
STARTCHAR 4FF8
ENCODING 20472
SWIDTH 1008 0
DWIDTH 14 0
BBX 13 14 1 -2
BITMAP
1080
1080
17F0
2080
27F0
6140
AFF8
22A0
27F0
2888
27F0
2080
2080
2080
ENDCHAR
STARTCHAR 4FFA
ENCODING 20474
SWIDTH 1008 0
DWIDTH 14 0
BBX 13 14 1 -2
BITMAP
1100
1100
1FF0
2280
2540
6930
BFE8
2920
2FE0
2920
2FE0
2928
2108
20F8
ENDCHAR
STARTCHAR 4FFE
ENCODING 20478
SWIDTH 1008 0
DWIDTH 14 0
BBX 13 14 1 -2
BITMAP
1080
1100
17F0
2490
27F0
6490
A7F0
2080
2140
2240
2FF8
2040
2040
2040
ENDCHAR
STARTCHAR 5001
ENCODING 20481
SWIDTH 1008 0
DWIDTH 14 0
BBX 13 14 1 -2
BITMAP
1400
1400
1400
2FF8
2A48
7248
A248
2FC8
2248
2248
2548
2578
2948
3000
ENDCHAR
STARTCHAR 5002
ENCODING 20482
SWIDTH 1008 0
DWIDTH 14 0
BBX 13 14 1 -2
BITMAP
1110
1110
1220
2F78
2220
6220
A220
2F78
2220
2220
2420
2420
2820
3020
ENDCHAR
STARTCHAR 5005
ENCODING 20485
SWIDTH 1008 0
DWIDTH 14 0
BBX 13 14 1 -2
BITMAP
1080
1080
1FF8
2220
2220
6260
A590
2890
2080
2FF8
2080
2080
2080
2080
ENDCHAR
STARTCHAR 5006
ENCODING 20486
SWIDTH 1008 0
DWIDTH 14 0
BBX 13 14 1 -2
BITMAP
1000
1FF8
1080
2080
2FF8
6888
AEE8
2AA8
2AA8
2DD8
2998
2888
2888
2898
ENDCHAR
STARTCHAR 5009
ENCODING 20489
SWIDTH 1008 0
DWIDTH 14 0
BBX 13 14 1 -2
BITMAP
0200
0500
0880
3FE0
C018
1FC0
1040
1FC0
1FC0
1000
3FE0
3020
5FE0
1020
ENDCHAR
STARTCHAR 500B
ENCODING 20491
SWIDTH 1008 0
DWIDTH 14 0
BBX 12 14 1 -2
BITMAP
1000
1FF0
1910
2910
2FF0
6910
ABD0
2A50
2A50
2BD0
2A50
2810
2FF0
2810
ENDCHAR
STARTCHAR 500D
ENCODING 20493
SWIDTH 1008 0
DWIDTH 14 0
BBX 13 14 1 -2
BITMAP
1080
1080
1FF8
2420
2220
6240
BFF8
2000
27F0
2410
2410
2410
27F0
2410
ENDCHAR
STARTCHAR 500E
ENCODING 20494
SWIDTH 1008 0
DWIDTH 14 0
BBX 13 14 1 -2
BITMAP
1140
1140
1140
27F0
2550
6550
A7F0
2550
2550
2FF8
2140
2120
2210
2410
ENDCHAR
STARTCHAR 500F
ENCODING 20495
SWIDTH 1008 0
DWIDTH 14 0
BBX 13 14 1 -2
BITMAP
1100
1100
11F0
2B20
2CC0
69C0
AE38
28A0
2890
2FF8
2880
2940
2220
2C18
ENDCHAR
STARTCHAR 5011
ENCODING 20497
SWIDTH 1008 0
DWIDTH 14 0
BBX 13 14 1 -2
BITMAP
1000
1F78
1948
2F78
2948
6F78
A808
2808
2808
2808
2808
2808
2808
2818
ENDCHAR
STARTCHAR 5012
ENCODING 20498
SWIDTH 1008 0
DWIDTH 14 0
BBX 12 14 1 -2
BITMAP
1010
1FD0
1250
2350
24D0
7FD0
A250
2250
2FD0
2250
2250
2390
3C10
2030
ENDCHAR
STARTCHAR 5014
ENCODING 20500
SWIDTH 1008 0
DWIDTH 14 0
BBX 13 14 1 -2
BITMAP
1000
17F8
1408
27F8
2440
6550
A550
2550
25F0
2648
2A48
2A48
33F8
2208
ENDCHAR
STARTCHAR 5016
ENCODING 20502
SWIDTH 1008 0
DWIDTH 14 0
BBX 13 14 1 -2
BITMAP
1080
1080
17F0
2080
2080
6FF8
A220
2240
2FF8
2080
2080
27F0
2080
2080
ENDCHAR
STARTCHAR 5018
ENCODING 20504
SWIDTH 1008 0
DWIDTH 14 0
BBX 13 14 1 -2
BITMAP
1080
12A0
1290
2488
2888
67F0
A410
25D0
2550
2550
2550
25D0
2410
2430
ENDCHAR
STARTCHAR 5019
ENCODING 20505
SWIDTH 1008 0
DWIDTH 14 0
BBX 13 14 1 -2
BITMAP
13E0
1020
1820
2FF8
6900
A9F0
2A40
2C40
2FF8
28C0
28A0
2920
2210
2C08
ENDCHAR
STARTCHAR 501A
ENCODING 20506
SWIDTH 1008 0
DWIDTH 14 0
BBX 13 14 1 -2
BITMAP
1080
1080
1FF8
2140
2220
6420
BFF8
2010
2790
2490
2490
2790
2410
2030
ENDCHAR
STARTCHAR 501F
ENCODING 20511
SWIDTH 1008 0
DWIDTH 14 0
BBX 13 14 1 -2
BITMAP
1240
1240
1240
2FF0
2240
6240
BFF8
2000
27E0
2420
27E0
2420
27E0
2420
ENDCHAR
STARTCHAR 5021
ENCODING 20513
SWIDTH 1008 0
DWIDTH 14 0
BBX 12 14 1 -2
BITMAP
1000
17E0
1420
27E0
2420
67E0
A420
2000
2FF0
2810
2FF0
2810
2FF0
2810
ENDCHAR
STARTCHAR 5023
ENCODING 20515
SWIDTH 1008 0
DWIDTH 14 0
BBX 13 14 1 -2
BITMAP
1440
1440
1440
3F40
24F8
6490
A790
2550
2550
2560
2920
2960
3190
2608
ENDCHAR
STARTCHAR 5024
ENCODING 20516
SWIDTH 1008 0
DWIDTH 14 0
BBX 13 14 1 -2
BITMAP
1080
1080
1FF8
2080
2BE0
6A20
ABE0
2A20
2BE0
2A20
2BE0
2800
2FF8
2800
ENDCHAR
STARTCHAR 5025
ENCODING 20517
SWIDTH 1008 0
DWIDTH 14 0
BBX 13 14 1 -2
BITMAP
1080
1080
17F8
2548
2550
6948
A238
2400
27F0
2080
2080
2080
2FF8
2000
ENDCHAR
STARTCHAR 5026
ENCODING 20518
SWIDTH 1008 0
DWIDTH 14 0
BBX 13 14 1 -2
BITMAP
12A0
1290
1490
27F0
2080
6FF8
A140
23E0
2650
2A48
22C0
2210
2210
21F0
ENDCHAR
STARTCHAR 5027
ENCODING 20519
SWIDTH 1008 0
DWIDTH 14 0
BBX 13 14 1 -2
BITMAP
1080
1080
17F8
2410
2BE0
6000
A000
2FF8
2080
22A0
2290
2488
2888
2180
ENDCHAR
STARTCHAR 5028
ENCODING 20520
SWIDTH 1008 0
DWIDTH 14 0
BBX 13 14 1 -2
BITMAP
1000
17F0
1410
2410
27F0
6490
A480
27F8
2480
2BF0
2A10
3210
23F0
2210
ENDCHAR
STARTCHAR 5029
ENCODING 20521
SWIDTH 1008 0
DWIDTH 14 0
BBX 13 14 1 -2
BITMAP
1080
17F0
1080
27F0
2080
6FF8
A000
27F0
2490
2490
27F0
2410
2410
2430
ENDCHAR
STARTCHAR 502A
ENCODING 20522
SWIDTH 1008 0
DWIDTH 14 0
BBX 13 14 1 -2
BITMAP
1100
1670
1410
2410
2770
6410
A410
27F0
2550
2140
2240
2248
2448
2838
ENDCHAR
STARTCHAR 502B
ENCODING 20523
SWIDTH 1008 0
DWIDTH 14 0
BBX 13 14 1 -2
BITMAP
1080
1080
1140
2220
27F0
6808
B7F0
2550
2550
27F0
2550
2550
2550
2430
ENDCHAR
STARTCHAR 502C
ENCODING 20524
SWIDTH 1008 0
DWIDTH 14 0
BBX 13 14 1 -2
BITMAP
1080
1080
10F8
2080
27F0
6410
A7F0
2410
27F0
2080
2FF8
2080
2080
2080
ENDCHAR
STARTCHAR 502D
ENCODING 20525
SWIDTH 1008 0
DWIDTH 14 0
BBX 13 14 1 -2
BITMAP
1030
17C0
1080
2FF8
21C0
62A0
A490
2080
2FF8
2120
23A0
2040
21A0
2E10
ENDCHAR
STARTCHAR 502E
ENCODING 20526
SWIDTH 1008 0
DWIDTH 14 0
BBX 13 14 1 -2
BITMAP
1000
17F0
1490
2490
27F0
6490
A7F0
2080
2FF8
21C0
22A0
2490
2888
2080
ENDCHAR
STARTCHAR 5036
ENCODING 20534
SWIDTH 1008 0
DWIDTH 14 0
BBX 13 14 1 -2
BITMAP
1000
17E0
1420
2420
27E0
6420
A7E0
2420
27E0
2000
3FF8
2240
2420
3810
ENDCHAR
STARTCHAR 5039
ENCODING 20537
SWIDTH 1008 0
DWIDTH 14 0
BBX 12 14 1 -2
BITMAP
1100
1100
1280
2440
2FE0
7110
AFE0
2920
2FE0
2920
2280
2240
2420
2810
ENDCHAR
STARTCHAR 503B
ENCODING 20539
SWIDTH 1008 0
DWIDTH 14 0
BBX 13 14 1 -2
BITMAP
1000
1FF0
1550
2550
2760
6560
A550
2750
2548
2548
2748
2D70
2140
2140
ENDCHAR
STARTCHAR 5040
ENCODING 20544
SWIDTH 1008 0
DWIDTH 14 0
BBX 13 14 1 -2
BITMAP
1220
1220
1FF8
2220
2080
67F0
A490
2490
2FF8
2080
20C0
2120
2210
2C08
ENDCHAR
STARTCHAR 5041
ENCODING 20545
SWIDTH 1008 0
DWIDTH 14 0
BBX 13 14 1 -2
BITMAP
1030
13E0
1290
2248
2408
6040
A3F0
2250
27F8
2250
27F8
2210
2210
2230
ENDCHAR
STARTCHAR 5043
ENCODING 20547
SWIDTH 1008 0
DWIDTH 14 0
BBX 13 14 1 -2
BITMAP
1000
1FF8
1BF0
2A10
2BF0
6A10
ABF0
2880
2FF8
2B20
28C0
2BB0
2FF8
2800
ENDCHAR
STARTCHAR 5047
ENCODING 20551
SWIDTH 1008 0
DWIDTH 14 0
BBX 13 14 1 -2
BITMAP
1000
1F70
1910
2910
2F70
6910
A800
2EF0
2890
2850
2E60
2820
2850
2988
ENDCHAR
STARTCHAR 5048
ENCODING 20552
SWIDTH 1008 0
DWIDTH 14 0
BBX 12 14 1 -2
BITMAP
1000
17E0
1420
27E0
2420
67E0
A400
27F0
2910
3990
2A50
2C10
2FD0
2860
ENDCHAR
STARTCHAR 5049
ENCODING 20553
SWIDTH 1008 0
DWIDTH 14 0
BBX 13 14 1 -2
BITMAP
1080
17E0
1120
2FF8
2000
67E0
A420
27E0
2040
27F0
2440
3FF8
2040
2040
ENDCHAR
STARTCHAR 504F
ENCODING 20559
SWIDTH 1008 0
DWIDTH 14 0
BBX 12 14 1 -2
BITMAP
1000
1FF0
1000
27E0
2420
67E0
A400
27F0
2D50
2D50
37F0
2550
2550
2430
ENDCHAR
STARTCHAR 5050
ENCODING 20560
SWIDTH 1008 0
DWIDTH 14 0
BBX 13 14 1 -2
BITMAP
1080
1FF8
1120
20C0
2320
67F8
A420
24C0
2710
2460
2588
2810
2860
3380
ENDCHAR
STARTCHAR 5055
ENCODING 20565
SWIDTH 1008 0
DWIDTH 14 0
BBX 13 14 1 -2
BITMAP
1440
1448
17D0
2460
2440
6748
BCB8
2100
27F0
2410
27F0
2410
27F0
2410
ENDCHAR
STARTCHAR 5056
ENCODING 20566
SWIDTH 1008 0
DWIDTH 14 0
BBX 13 14 1 -2
BITMAP
1080
1080
17F0
2090
20A0
6FF8
A0C0
2120
27F0
3A10
23F0
2210
23F0
2210
ENDCHAR
ENDFONT
